<svg xmlns="http://www.w3.org/2000/svg" xmlns:xlink="http://www.w3.org/1999/xlink" version="1.1" x="0px" y="0px" viewBox="0 0 128 160" enable-background="new 0 0 128 128" xml:space="preserve" fill="#FF9D5F"><g><path d="M5.6,46.8c0.4,0,0.8-0.3,0.8-0.8V33.4c0-0.4-0.3-0.8-0.8-0.8c-0.4,0-0.8,0.3-0.8,0.8V46C4.9,46.4,5.2,46.8,5.6,46.8z"/><path d="M5.6,55c0.4,0,0.8-0.3,0.8-0.8v-4.1c0-0.4-0.3-0.8-0.8-0.8c-0.4,0-0.8,0.3-0.8,0.8v4.1C4.9,54.6,5.2,55,5.6,55z"/><path d="M120.6,80.4c-0.4,0-0.8,0.3-0.8,0.8v12.6c0,0.4,0.3,0.8,0.8,0.8c0.4,0,0.8-0.3,0.8-0.8V81.1   C121.3,80.7,121,80.4,120.6,80.4z"/><path d="M120.6,97.1c-0.4,0-0.8,0.3-0.8,0.8v4.1c0,0.4,0.3,0.8,0.8,0.8c0.4,0,0.8-0.3,0.8-0.8v-4.1C121.3,97.4,121,97.1,120.6,97.1   z"/><path d="M52.8,8.3c0.2,0,0.4-0.1,0.5-0.2L55,6.3c0.3-0.3,0.3-0.8,0-1.1c-0.3-0.3-0.8-0.3-1.1,0L52.2,7c-0.3,0.3-0.3,0.8,0,1.1   C52.4,8.2,52.6,8.3,52.8,8.3z"/><path d="M47.2,13.9c0.2,0,0.4-0.1,0.5-0.2l1.7-1.7c0.3-0.3,0.3-0.8,0-1.1s-0.8-0.3-1.1,0l-1.7,1.7c-0.3,0.3-0.3,0.8,0,1.1   C46.8,13.8,47,13.9,47.2,13.9z"/><path d="M53.9,13.6c0.1,0.1,0.3,0.2,0.5,0.2s0.4-0.1,0.5-0.2c0.3-0.3,0.3-0.8,0-1.1l-1.7-1.7c-0.3-0.3-0.8-0.3-1.1,0   s-0.3,0.8,0,1.1L53.9,13.6z"/><path d="M48.4,8.1c0.1,0.1,0.3,0.2,0.5,0.2s0.4-0.1,0.5-0.2c0.3-0.3,0.3-0.8,0-1.1l-1.7-1.7c-0.3-0.3-0.8-0.3-1.1,0s-0.3,0.8,0,1.1   L48.4,8.1z"/><path d="M124.5,40c0.1,0.1,0.3,0.2,0.5,0.2s0.4-0.1,0.5-0.2l1.7-1.7c0.3-0.3,0.3-0.8,0-1.1s-0.8-0.3-1.1,0l-1.7,1.7   C124.2,39.2,124.2,39.7,124.5,40z"/><path d="M120.6,42.8l-1.7,1.7c-0.3,0.3-0.3,0.8,0,1.1c0.1,0.1,0.3,0.2,0.5,0.2s0.4-0.1,0.5-0.2l1.7-1.7c0.3-0.3,0.3-0.8,0-1.1   C121.4,42.5,120.9,42.5,120.6,42.8z"/><path d="M125.6,42.8c-0.3-0.3-0.8-0.3-1.1,0c-0.3,0.3-0.3,0.8,0,1.1l1.7,1.7c0.1,0.1,0.3,0.2,0.5,0.2s0.4-0.1,0.5-0.2   c0.3-0.3,0.3-0.8,0-1.1L125.6,42.8z"/><path d="M120,37.2c-0.3-0.3-0.8-0.3-1.1,0c-0.3,0.3-0.3,0.8,0,1.1l1.7,1.7c0.1,0.1,0.3,0.2,0.5,0.2s0.4-0.1,0.5-0.2   c0.3-0.3,0.3-0.8,0-1.1L120,37.2z"/><path d="M68.9,97.6l-1.7,1.7c-0.3,0.3-0.3,0.8,0,1.1c0.1,0.1,0.3,0.2,0.5,0.2s0.4-0.1,0.5-0.2l1.7-1.7c0.3-0.3,0.3-0.8,0-1.1   S69.2,97.3,68.9,97.6z"/><path d="M63.3,103.2l-1.7,1.7c-0.3,0.3-0.3,0.8,0,1.1c0.1,0.1,0.3,0.2,0.5,0.2s0.4-0.1,0.5-0.2l1.7-1.7c0.3-0.3,0.3-0.8,0-1.1   C64.1,102.9,63.6,102.9,63.3,103.2z"/><path d="M68.2,103.2c-0.3-0.3-0.8-0.3-1.1,0c-0.3,0.3-0.3,0.8,0,1.1l1.7,1.7c0.1,0.1,0.3,0.2,0.5,0.2s0.4-0.1,0.5-0.2   c0.3-0.3,0.3-0.8,0-1.1L68.2,103.2z"/><path d="M62.6,97.6c-0.3-0.3-0.8-0.3-1.1,0s-0.3,0.8,0,1.1l1.7,1.7c0.1,0.1,0.3,0.2,0.5,0.2s0.4-0.1,0.5-0.2c0.3-0.3,0.3-0.8,0-1.1   L62.6,97.6z"/><path d="M5.6,84.8c2,0,3.7-1.7,3.7-3.7s-1.7-3.7-3.7-3.7s-3.7,1.7-3.7,3.7S3.6,84.8,5.6,84.8z M5.6,79c1.2,0,2.2,1,2.2,2.2   s-1,2.2-2.2,2.2s-2.2-1-2.2-2.2C3.4,79.9,4.4,79,5.6,79z"/><path d="M85.6,15.1c2,0,3.7-1.7,3.7-3.7s-1.7-3.7-3.7-3.7s-3.7,1.7-3.7,3.7S83.6,15.1,85.6,15.1z M85.6,9.2c1.2,0,2.2,1,2.2,2.2   s-1,2.2-2.2,2.2s-2.2-1-2.2-2.2C83.5,10.2,84.4,9.2,85.6,9.2z"/><path d="M105.9,87.7c0-2-1.7-3.7-3.7-3.7s-3.7,1.7-3.7,3.7s1.7,3.7,3.7,3.7C104.2,91.4,105.9,89.7,105.9,87.7z M100,87.7   c0-1.2,1-2.2,2.2-2.2s2.2,1,2.2,2.2s-1,2.2-2.2,2.2C101,89.9,100,88.9,100,87.7z"/><path d="M14.5,9.2h13.6c0.4,0,0.8-0.3,0.8-0.8s-0.3-0.8-0.8-0.8H14.5c-0.4,0-0.8,0.3-0.8,0.8S14.1,9.2,14.5,9.2z"/><path d="M5.6,9.2H10c0.4,0,0.8-0.3,0.8-0.8S10.4,7.7,10,7.7H5.6C5.2,7.7,4.9,8,4.9,8.4S5.2,9.2,5.6,9.2z"/><path d="M5.6,13.9h9.5c0.4,0,0.8-0.3,0.8-0.8s-0.3-0.8-0.8-0.8H5.6c-0.4,0-0.8,0.3-0.8,0.8S5.2,13.9,5.6,13.9z"/><path d="M19.2,12.3c-0.4,0-0.8,0.3-0.8,0.8s0.3,0.8,0.8,0.8h3.1c0.4,0,0.8-0.3,0.8-0.8s-0.3-0.8-0.8-0.8H19.2z"/><path d="M116.4,19.2h-13.6c-0.4,0-0.8,0.3-0.8,0.8c0,0.4,0.3,0.8,0.8,0.8h13.6c0.4,0,0.8-0.3,0.8-0.8   C117.2,19.6,116.8,19.2,116.4,19.2z"/><path d="M126,20c0-0.4-0.3-0.8-0.8-0.8h-4.4c-0.4,0-0.8,0.3-0.8,0.8c0,0.4,0.3,0.8,0.8,0.8h4.4C125.7,20.7,126,20.4,126,20z"/><path d="M115.8,16.1h9.5c0.4,0,0.8-0.3,0.8-0.8s-0.3-0.8-0.8-0.8h-9.5c-0.4,0-0.8,0.3-0.8,0.8S115.4,16.1,115.8,16.1z"/><path d="M108.7,16.1h3.1c0.4,0,0.8-0.3,0.8-0.8s-0.3-0.8-0.8-0.8h-3.1c-0.4,0-0.8,0.3-0.8,0.8S108.3,16.1,108.7,16.1z"/><path d="M103.9,108.9H90.3c-0.4,0-0.8,0.3-0.8,0.8c0,0.4,0.3,0.8,0.8,0.8h13.6c0.4,0,0.8-0.3,0.8-0.8   C104.7,109.3,104.3,108.9,103.9,108.9z"/><path d="M112.8,108.9h-4.4c-0.4,0-0.8,0.3-0.8,0.8c0,0.4,0.3,0.8,0.8,0.8h4.4c0.4,0,0.8-0.3,0.8-0.8   C113.5,109.3,113.2,108.9,112.8,108.9z"/><path d="M112.8,104.3h-9.5c-0.4,0-0.8,0.3-0.8,0.8c0,0.4,0.3,0.8,0.8,0.8h9.5c0.4,0,0.8-0.3,0.8-0.8   C113.5,104.6,113.2,104.3,112.8,104.3z"/><path d="M96.2,104.3c-0.4,0-0.8,0.3-0.8,0.8c0,0.4,0.3,0.8,0.8,0.8h3.1c0.4,0,0.8-0.3,0.8-0.8c0-0.4-0.3-0.8-0.8-0.8H96.2z"/><path d="M52.4,116.8H38.8c-0.4,0-0.8,0.3-0.8,0.8c0,0.4,0.3,0.8,0.8,0.8h13.6c0.4,0,0.8-0.3,0.8-0.8   C53.1,117.1,52.8,116.8,52.4,116.8z"/><path d="M29.9,118.3h4.4c0.4,0,0.8-0.3,0.8-0.8c0-0.4-0.3-0.8-0.8-0.8h-4.4c-0.4,0-0.8,0.3-0.8,0.8S29.5,118.3,29.9,118.3z"/><path d="M39.4,121.5h-9.5c-0.4,0-0.8,0.3-0.8,0.8c0,0.4,0.3,0.8,0.8,0.8h9.5c0.4,0,0.8-0.3,0.8-0.8   C40.1,121.8,39.8,121.5,39.4,121.5z"/><path d="M46.5,121.5h-3.1c-0.4,0-0.8,0.3-0.8,0.8c0,0.4,0.3,0.8,0.8,0.8h3.1c0.4,0,0.8-0.3,0.8-0.8S46.9,121.5,46.5,121.5z"/><path d="M71.5,49.6c-0.2-0.1-0.4,0-0.6,0.1s-0.3,0.3-0.3,0.5c-0.3,2-2.5,3.6-5.1,3.6s-4.8-1.6-5.1-3.6c0-0.2-0.2-0.4-0.3-0.5   c-0.2-0.1-0.4-0.1-0.6-0.1c-4.6,1.5-7.6,6-7.3,10.9l0.6,9.6c0,0.4,0.4,0.7,0.8,0.7h24c0.4,0,0.7-0.3,0.8-0.7l0.6-9.6   C79.2,55.6,76.1,51.1,71.5,49.6z M77.3,60.4l-0.6,8.9H54.1l-0.6-8.9c-0.3-3.9,2-7.5,5.5-9.1c0.8,2.3,3.4,4,6.4,4s5.6-1.7,6.4-4   C75.4,52.9,77.6,56.5,77.3,60.4z"/><path d="M65.5,49.6c4.3,0,7.7-3.7,7.7-8.2s-3.5-8.2-7.7-8.2c-4.3,0-7.7,3.7-7.7,8.2C57.7,45.9,61.2,49.6,65.5,49.6z M65.5,34.6   c3.4,0,6.2,3,6.2,6.7S68.9,48,65.5,48c-3.4,0-6.2-3-6.2-6.7C59.2,37.6,62,34.6,65.5,34.6z"/><path d="M98,66.6h13.8c0.4,0,0.7-0.3,0.8-0.7l0.5-7.3l0,0c0.2-3.8-2.1-7.3-5.7-8.5c-0.2-0.1-0.4,0-0.6,0.1s-0.3,0.3-0.3,0.5   c-0.2,1.5-1.8,2.6-3.7,2.6c-0.7,0-1.4-0.2-2.1-0.5c0-1-0.1-1.9-0.2-2.9c0.7,0.3,1.5,0.5,2.2,0.5c3.4,0,6.1-2.9,6.1-6.5   s-2.7-6.5-6.1-6.5c-1.9,0-3.6,0.9-4.8,2.4c-1.7-4.2-4.3-8-7.5-11.3c-6.6-6.6-15.5-10.3-24.8-10.3c-9.4,0-18.2,3.7-24.8,10.3   c-3.3,3.3-5.8,7-7.6,11.2c-1.1-1.5-2.9-2.4-4.8-2.4c-3.4,0-6.1,2.9-6.1,6.5s2.7,6.5,6.1,6.5c0.8,0,1.5-0.2,2.2-0.5   c-0.1,0.9-0.2,1.9-0.2,2.9c-0.6,0.3-1.3,0.5-2.1,0.5c-1.9,0-3.5-1.1-3.7-2.6c0-0.2-0.2-0.4-0.3-0.5C24.1,50,23.9,50,23.7,50   c-3.6,1.2-6,4.7-5.7,8.5l0.5,7.3c0,0.4,0.4,0.7,0.8,0.7H33c1.2,2.9,2.8,5.7,4.7,8.1L2.1,104.8c-0.9,0.8-1.5,2-1.6,3.2   s0.4,2.4,1.3,3.3l5.7,5.7c0.8,0.8,2,1.3,3.1,1.3c0.1,0,0.1,0,0.2,0c1.2-0.1,2.4-0.6,3.2-1.6l30.1-35.6c6.3,4.9,13.9,7.3,21.4,7.3   c9,0,18-3.5,24.8-10.3C93.6,74.8,96.2,70.9,98,66.6z M107.6,51.7c2.6,1.2,4.2,3.8,4,6.7l-0.4,6.6H98.5c0-0.1,0-0.1,0.1-0.2   c0.3-0.7,0.5-1.5,0.7-2.3c0-0.1,0.1-0.3,0.1-0.4c0.2-0.8,0.4-1.5,0.5-2.3c0,0,0,0,0-0.1c0.1-0.8,0.3-1.6,0.4-2.4   c0-0.2,0-0.3,0.1-0.5c0.1-0.8,0.1-1.6,0.2-2.4v-0.1c0.6,0.2,1.3,0.4,2.1,0.4C104.9,54.7,106.9,53.5,107.6,51.7z M102.6,38.8   c2.5,0,4.6,2.2,4.6,5s-2.1,5-4.6,5c-0.9,0-1.7-0.3-2.4-0.8c-0.1-0.3-0.1-0.7-0.2-1c0-0.2-0.1-0.4-0.1-0.6c-0.1-0.6-0.2-1.1-0.4-1.6   c0-0.1,0-0.2-0.1-0.3c-0.1-0.5-0.3-1-0.4-1.5c-0.1-0.2-0.1-0.4-0.2-0.6c-0.1-0.3-0.2-0.6-0.3-0.9C99.3,39.9,100.9,38.8,102.6,38.8z    M23.7,43.8c0-2.7,2.1-5,4.6-5c1.7,0,3.3,1,4.1,2.7c-0.1,0.3-0.2,0.7-0.3,1C32,42.7,32,42.9,31.9,43c-0.3,1.1-0.6,2.3-0.9,3.4   c0,0.2-0.1,0.4-0.1,0.5c-0.1,0.3-0.1,0.7-0.2,1c-0.7,0.5-1.6,0.8-2.4,0.8C25.8,48.8,23.7,46.6,23.7,43.8z M19.8,65.1l-0.4-6.6   c-0.2-2.9,1.4-5.5,4-6.7c0.7,1.8,2.7,3,5,3c0.7,0,1.4-0.1,2.1-0.4c0,0.1,0,0.1,0,0.2c0,0.8,0.1,1.6,0.2,2.4c0,0.2,0,0.3,0.1,0.5   c0.1,0.8,0.2,1.6,0.4,2.4c0,0,0,0,0,0.1c0.1,0.8,0.3,1.6,0.5,2.3c0,0.1,0.1,0.3,0.1,0.4c0.2,0.8,0.4,1.5,0.7,2.3   c0,0.1,0,0.1,0.1,0.2L19.8,65.1L19.8,65.1z M12.9,115.7L12.9,115.7c-0.5,0.6-1.3,1-2.1,1s-1.6-0.3-2.2-0.8l-5.7-5.7   C2.3,109.6,2,108.8,2,108s0.4-1.6,1-2.1l35.5-30c0.2,0.2,0.3,0.4,0.5,0.6c0.1,0.1,0.2,0.2,0.3,0.4c0.3,0.4,0.7,0.8,1,1.1   c0.1,0.1,0.1,0.1,0.2,0.2c0.1,0.1,0.2,0.2,0.3,0.3c0.3,0.3,0.6,0.6,1,0.9c0.1,0.1,0.3,0.2,0.4,0.4c0.2,0.2,0.4,0.4,0.6,0.5   L12.9,115.7z M44.4,79.5c-0.4-0.3-0.8-0.7-1.2-1c-0.5-0.5-1-0.9-1.5-1.4c-0.2-0.2-0.3-0.4-0.5-0.5c-0.7-0.7-1.4-1.5-1.9-2.2   c-2.1-2.7-3.9-5.6-5.1-8.8c-0.2-0.5-0.4-1-0.5-1.5c-1.2-3.5-1.8-7.1-1.8-10.9c0-1.6,0.1-3.2,0.3-4.6c0.1-0.6,0.2-1.2,0.3-1.7   c0.3-1.7,0.8-3.4,1.4-5.1l0,0c1.7-4.6,4.3-8.7,7.8-12.1c6.3-6.3,14.8-9.8,23.8-9.8s17.4,3.5,23.8,9.8c3.5,3.5,6.1,7.6,7.8,12.2   c0.8,2.1,1.4,4.4,1.7,6.8l0,0c0.2,1.5,0.3,3,0.3,4.6v0.1c0,3.7-0.6,7.3-1.7,10.7c-0.2,0.5-0.3,1-0.5,1.5l0,0l0,0   c-1.7,4.3-4.2,8.2-7.6,11.6C77.1,89.2,57.8,90.3,44.4,79.5z"/><path d="M65.5,26.3c-7.2,0-14,2.8-19.1,7.9c-9.8,9.8-10.6,25.2-1.9,36c0.6,0.8,1.2,1.5,1.9,2.2s1.4,1.3,2.2,2   c4.8,3.8,10.8,5.9,16.9,5.9c7.2,0,14-2.8,19.1-7.9c10.5-10.5,10.5-27.7,0-38.2C79.4,29.1,72.7,26.3,65.5,26.3z M83.5,71.4   c-4.8,4.8-11.2,7.5-18,7.5c-5.8,0-11.5-2-15.9-5.6c-0.7-0.6-1.4-1.2-2.1-1.9c-0.7-0.7-1.3-1.3-1.8-2c-8.2-10.2-7.4-24.8,1.8-34   c4.8-4.8,11.2-7.5,18-7.5s13.2,2.7,18,7.5C93.4,45.2,93.4,61.4,83.5,71.4z"/><path d="M109.3,72.2c0.4,0,0.8-0.3,0.8-0.8s-0.3-0.8-0.8-0.8h-3c-0.4,0-0.8,0.3-0.8,0.8s0.3,0.8,0.8,0.8H109.3z"/><path d="M102.8,72.2c0.4,0,0.8-0.3,0.8-0.8s-0.3-0.8-0.8-0.8h-3c-0.4,0-0.8,0.3-0.8,0.8s0.3,0.8,0.8,0.8H102.8z"/><path d="M29.1,72.2c0.4,0,0.8-0.3,0.8-0.8s-0.3-0.8-0.8-0.8h-3c-0.4,0-0.8,0.3-0.8,0.8s0.3,0.8,0.8,0.8H29.1z"/><path d="M22.5,72.2c0.4,0,0.8-0.3,0.8-0.8s-0.3-0.8-0.8-0.8h-3c-0.4,0-0.8,0.3-0.8,0.8s0.3,0.8,0.8,0.8H22.5z"/></g></svg>