<svg xmlns="http://www.w3.org/2000/svg" xmlns:xlink="http://www.w3.org/1999/xlink" version="1.1" x="0px" y="0px" viewBox="0 0 128 160" fill="#FF9D5F" enable-background="new 0 0 128 128" xml:space="preserve"><g><path d="M64,15.9c1.3,0,2.4-0.9,2.7-2.1H79c-3.6,2-6.1,5.8-6.4,10.1h-1.2c-0.4,0-0.8,0.3-0.8,0.8v3.6c0,0.4,0.3,0.8,0.8,0.8H75   c0.4,0,0.8-0.3,0.8-0.8v-3.6c0-0.4-0.3-0.8-0.8-0.8h-0.9c0.3-4.8,3.8-8.9,8.6-9.9v0.8c0,0.4,0.3,0.8,0.8,0.8H87   c0.4,0,0.8-0.3,0.8-0.8v-0.8c4.7,1,8.2,5.1,8.5,9.9h-0.9c-0.4,0-0.8,0.3-0.8,0.8v3.6c0,0.4,0.3,0.8,0.8,0.8H99   c0.4,0,0.8-0.3,0.8-0.8v-3.6c0-0.4-0.3-0.8-0.8-0.8h-1.2c-0.3-4.3-2.7-8.1-6.4-10.1h12.3c0.3,1.2,1.4,2.1,2.7,2.1   c1.6,0,2.8-1.3,2.8-2.8c0-1.6-1.3-2.8-2.8-2.8c-1.3,0-2.4,0.9-2.7,2.1h-16v-1c0-0.4-0.3-0.8-0.8-0.8h-3.6c-0.4,0-0.8,0.3-0.8,0.8v1   h-16c-0.3-1.2-1.4-2.1-2.7-2.1c-1.6,0-2.8,1.3-2.8,2.8C61.2,14.7,62.4,15.9,64,15.9z M74.3,27.5h-2.1v-2.1h2.1V27.5z M98.3,27.5   h-2.1v-2.1h2.1V27.5z M106.5,11.8c0.7,0,1.3,0.6,1.3,1.3c0,0.7-0.6,1.3-1.3,1.3c-0.7,0-1.3-0.6-1.3-1.3   C105.1,12.4,105.7,11.8,106.5,11.8z M84.2,12.1h2.1v1c0,0,0,0,0,0c0,0,0,0,0,0.1v1h-2.1V12.1z M64,11.8c0.7,0,1.3,0.6,1.3,1.3   c0,0.7-0.6,1.3-1.3,1.3c-0.7,0-1.3-0.6-1.3-1.3C62.7,12.4,63.3,11.8,64,11.8z"/><path d="M7.9,74.1c0-0.4-0.3-0.8-0.8-0.8c-0.4,0-0.8,0.3-0.8,0.8v13.2c0,0.4,0.3,0.8,0.8,0.8c0.4,0,0.8-0.3,0.8-0.8V74.1z"/><path d="M7.1,90.9c-0.4,0-0.8,0.3-0.8,0.8v4.3c0,0.4,0.3,0.8,0.8,0.8c0.4,0,0.8-0.3,0.8-0.8v-4.3C7.9,91.2,7.5,90.9,7.1,90.9z"/><path d="M120.1,25.7c0.4,0,0.8-0.3,0.8-0.8V11.8c0-0.4-0.3-0.8-0.8-0.8s-0.8,0.3-0.8,0.8V25C119.3,25.4,119.6,25.7,120.1,25.7z"/><path d="M120.1,34.4c0.4,0,0.8-0.3,0.8-0.8v-4.3c0-0.4-0.3-0.8-0.8-0.8s-0.8,0.3-0.8,0.8v4.3C119.3,34,119.6,34.4,120.1,34.4z"/><path d="M1.8,54.6c-0.3-0.3-0.8-0.3-1.1,0c-0.3,0.3-0.3,0.8,0,1.1L2.1,57c0.1,0.1,0.3,0.2,0.5,0.2c0.2,0,0.4-0.1,0.5-0.2   c0.3-0.3,0.3-0.8,0-1.1L1.8,54.6z"/><path d="M5.2,60.1l1.4,1.4c0.1,0.1,0.3,0.2,0.5,0.2c0.2,0,0.4-0.1,0.5-0.2c0.3-0.3,0.3-0.8,0-1.1L6.3,59c-0.3-0.3-0.8-0.3-1.1,0   C4.9,59.3,4.9,59.8,5.2,60.1z"/><path d="M2.1,59l-1.4,1.4c-0.3,0.3-0.3,0.8,0,1.1c0.1,0.1,0.3,0.2,0.5,0.2c0.2,0,0.4-0.1,0.5-0.2l1.4-1.4c0.3-0.3,0.3-0.8,0-1.1   C2.9,58.8,2.4,58.8,2.1,59z"/><path d="M5.7,57.2c0.2,0,0.4-0.1,0.5-0.2l1.4-1.4c0.3-0.3,0.3-0.8,0-1.1c-0.3-0.3-0.8-0.3-1.1,0l-1.4,1.4c-0.3,0.3-0.3,0.8,0,1.1   C5.4,57.2,5.5,57.2,5.7,57.2z"/><path d="M49.8,108.6c-0.3-0.3-0.8-0.3-1.1,0c-0.3,0.3-0.3,0.8,0,1.1l1.4,1.4c0.1,0.1,0.3,0.2,0.5,0.2c0.2,0,0.4-0.1,0.5-0.2   c0.3-0.3,0.3-0.8,0-1.1L49.8,108.6z"/><path d="M54.3,113.1c-0.3-0.3-0.8-0.3-1.1,0c-0.3,0.3-0.3,0.8,0,1.1l1.4,1.4c0.1,0.1,0.3,0.2,0.5,0.2c0.2,0,0.4-0.1,0.5-0.2   c0.3-0.3,0.3-0.8,0-1.1L54.3,113.1z"/><path d="M50.1,113.1l-1.4,1.4c-0.3,0.3-0.3,0.8,0,1.1c0.1,0.1,0.3,0.2,0.5,0.2c0.2,0,0.4-0.1,0.5-0.2l1.4-1.4   c0.3-0.3,0.3-0.8,0-1.1C50.9,112.8,50.4,112.8,50.1,113.1z"/><path d="M54.6,108.6l-1.4,1.4c-0.3,0.3-0.3,0.8,0,1.1c0.1,0.1,0.3,0.2,0.5,0.2c0.2,0,0.4-0.1,0.5-0.2l1.4-1.4   c0.3-0.3,0.3-0.8,0-1.1C55.4,108.3,54.9,108.3,54.6,108.6z"/><path d="M120.3,50.6l1.4,1.4c0.1,0.1,0.3,0.2,0.5,0.2c0.2,0,0.4-0.1,0.5-0.2c0.3-0.3,0.3-0.8,0-1.1l-1.4-1.4   c-0.3-0.3-0.8-0.3-1.1,0C120,49.8,120,50.3,120.3,50.6z"/><path d="M125.9,54c-0.3-0.3-0.8-0.3-1.1,0c-0.3,0.3-0.3,0.8,0,1.1l1.4,1.4c0.1,0.1,0.3,0.2,0.5,0.2c0.2,0,0.4-0.1,0.5-0.2   c0.3-0.3,0.3-0.8,0-1.1L125.9,54z"/><path d="M121.7,54l-1.4,1.4c-0.3,0.3-0.3,0.8,0,1.1c0.1,0.1,0.3,0.2,0.5,0.2c0.2,0,0.4-0.1,0.5-0.2l1.4-1.4c0.3-0.3,0.3-0.8,0-1.1   C122.5,53.7,122,53.7,121.7,54z"/><path d="M125.4,52.2c0.2,0,0.4-0.1,0.5-0.2l1.4-1.4c0.3-0.3,0.3-0.8,0-1.1c-0.3-0.3-0.8-0.3-1.1,0l-1.4,1.4c-0.3,0.3-0.3,0.8,0,1.1   C125,52.2,125.2,52.2,125.4,52.2z"/><path d="M75,107c-2.1,0-3.8,1.7-3.8,3.8c0,2.1,1.7,3.8,3.8,3.8s3.8-1.7,3.8-3.8C78.9,108.8,77.1,107,75,107z M75,113.2   c-1.3,0-2.3-1-2.3-2.3c0-1.3,1-2.3,2.3-2.3s2.3,1,2.3,2.3C77.3,112.2,76.3,113.2,75,113.2z"/><path d="M45.1,36.7c0,2.1,1.7,3.8,3.8,3.8c2.1,0,3.8-1.7,3.8-3.8c0-2.1-1.7-3.8-3.8-3.8C46.8,32.9,45.1,34.6,45.1,36.7z M51.2,36.7   c0,1.3-1,2.3-2.3,2.3c-1.3,0-2.3-1-2.3-2.3c0-1.3,1-2.3,2.3-2.3C50.2,34.4,51.2,35.4,51.2,36.7z"/><path d="M29.4,114H15.1c-0.4,0-0.8,0.3-0.8,0.8c0,0.4,0.3,0.8,0.8,0.8h14.3c0.4,0,0.8-0.3,0.8-0.8C30.1,114.3,29.8,114,29.4,114z"/><path d="M10.4,114H5.7c-0.4,0-0.8,0.3-0.8,0.8c0,0.4,0.3,0.8,0.8,0.8h4.6c0.4,0,0.8-0.3,0.8-0.8C11.1,114.3,10.8,114,10.4,114z"/><path d="M5.7,110.6h10c0.4,0,0.8-0.3,0.8-0.8c0-0.4-0.3-0.8-0.8-0.8h-10c-0.4,0-0.8,0.3-0.8,0.8C5,110.2,5.3,110.6,5.7,110.6z"/><path d="M23.2,110.6c0.4,0,0.8-0.3,0.8-0.8c0-0.4-0.3-0.8-0.8-0.8H20c-0.4,0-0.8,0.3-0.8,0.8c0,0.4,0.3,0.8,0.8,0.8H23.2z"/><path d="M108.8,112.1c0-0.4-0.3-0.8-0.8-0.8H93.7c-0.4,0-0.8,0.3-0.8,0.8c0,0.4,0.3,0.8,0.8,0.8h14.3   C108.5,112.8,108.8,112.5,108.8,112.1z"/><path d="M117.4,111.3h-4.6c-0.4,0-0.8,0.3-0.8,0.8c0,0.4,0.3,0.8,0.8,0.8h4.6c0.4,0,0.8-0.3,0.8-0.8   C118.1,111.6,117.8,111.3,117.4,111.3z"/><path d="M117.4,116.2h-10c-0.4,0-0.8,0.3-0.8,0.8c0,0.4,0.3,0.8,0.8,0.8h10c0.4,0,0.8-0.3,0.8-0.8   C118.1,116.6,117.8,116.2,117.4,116.2z"/><path d="M103.1,116.2h-3.2c-0.4,0-0.8,0.3-0.8,0.8c0,0.4,0.3,0.8,0.8,0.8h3.2c0.4,0,0.8-0.3,0.8-0.8   C103.9,116.6,103.5,116.2,103.1,116.2z"/><path d="M38,25.1c0,0.4,0.3,0.8,0.8,0.8H53c0.4,0,0.8-0.3,0.8-0.8c0-0.4-0.3-0.8-0.8-0.8H38.7C38.3,24.4,38,24.7,38,25.1z"/><path d="M29.4,25.9H34c0.4,0,0.8-0.3,0.8-0.8c0-0.4-0.3-0.8-0.8-0.8h-4.6c-0.4,0-0.8,0.3-0.8,0.8C28.6,25.6,29,25.9,29.4,25.9z"/><path d="M29.4,21h10c0.4,0,0.8-0.3,0.8-0.8c0-0.4-0.3-0.8-0.8-0.8h-10c-0.4,0-0.8,0.3-0.8,0.8C28.6,20.6,29,21,29.4,21z"/><path d="M43.7,21h3.2c0.4,0,0.8-0.3,0.8-0.8c0-0.4-0.3-0.8-0.8-0.8h-3.2c-0.4,0-0.8,0.3-0.8,0.8C42.9,20.6,43.3,21,43.7,21z"/><path d="M28.8,61.4c-0.6,0-1.2,0.2-1.7,0.7c-0.5,0.5-0.7,1.1-0.7,1.7c0,0.4,0.3,0.8,0.8,0.8c0.4,0,0.8-0.3,0.8-0.8   c0-0.2,0.1-0.5,0.3-0.6c0.2-0.2,0.4-0.3,0.6-0.3c0.4,0,0.8-0.3,0.8-0.8C29.6,61.7,29.2,61.4,28.8,61.4z"/><path d="M82,62.9c0.2,0,0.5,0.1,0.6,0.3c0.2,0.2,0.3,0.4,0.3,0.6c0,0.4,0.3,0.8,0.8,0.8c0.4,0,0.8-0.3,0.8-0.8   c0-0.6-0.2-1.2-0.7-1.7c-0.5-0.5-1.1-0.7-1.7-0.7c-0.4,0-0.8,0.3-0.8,0.8C81.3,62.5,81.6,62.9,82,62.9z"/><path d="M82,91.8c0.6,0,1.2-0.2,1.7-0.7c0.5-0.5,0.7-1.1,0.7-1.7c0-0.4-0.3-0.8-0.8-0.8c-0.4,0-0.8,0.3-0.8,0.8   c0,0.2-0.1,0.5-0.3,0.6c-0.2,0.2-0.4,0.3-0.6,0.3c-0.4,0-0.8,0.3-0.8,0.8C81.3,91.4,81.6,91.8,82,91.8z"/><path d="M28.8,90.3c-0.2,0-0.5-0.1-0.6-0.3c-0.2-0.2-0.3-0.4-0.3-0.6c0-0.4-0.3-0.8-0.8-0.8c-0.4,0-0.8,0.3-0.8,0.8   c0,0.6,0.2,1.2,0.7,1.7c0.5,0.5,1.1,0.7,1.7,0.7c0.4,0,0.8-0.3,0.8-0.8S29.2,90.3,28.8,90.3z"/><path d="M106.6,57.3h-11c-0.4,0-0.8,0.3-0.8,0.8v3.5c0,0.4,0.3,0.8,0.8,0.8h11c0.4,0,0.8-0.3,0.8-0.8V58   C107.4,57.6,107,57.3,106.6,57.3z M105.9,60.7h-9.5v-2h9.5V60.7z"/><path d="M106.6,63.9h-11c-0.4,0-0.8,0.3-0.8,0.8v3.5c0,0.4,0.3,0.8,0.8,0.8h11c0.4,0,0.8-0.3,0.8-0.8v-3.5   C107.4,64.3,107,63.9,106.6,63.9z M105.9,67.4h-9.5v-2h9.5V67.4z"/><path d="M106.6,84.3h-11c-0.4,0-0.8,0.3-0.8,0.8v3.5c0,0.4,0.3,0.8,0.8,0.8h11c0.4,0,0.8-0.3,0.8-0.8V85   C107.4,84.6,107,84.3,106.6,84.3z M105.9,87.7h-9.5v-2h9.5V87.7z"/><path d="M106.6,90.9h-11c-0.4,0-0.8,0.3-0.8,0.8v3.5c0,0.4,0.3,0.8,0.8,0.8h11c0.4,0,0.8-0.3,0.8-0.8v-3.5   C107.4,91.2,107,90.9,106.6,90.9z M105.9,94.4h-9.5v-2h9.5V94.4z"/><path d="M106.3,76.6c0-2.9-2.3-5.2-5.2-5.2c-2.9,0-5.2,2.3-5.2,5.2c0,2.9,2.3,5.2,5.2,5.2C104,81.8,106.3,79.4,106.3,76.6z    M97.4,76.6c0-2,1.7-3.7,3.7-3.7c2,0,3.7,1.7,3.7,3.7c0,2-1.7,3.7-3.7,3.7C99.1,80.3,97.4,78.6,97.4,76.6z"/><path d="M126.8,71.8c-1.1-2.7-2.3-5.6-5-5.6c-2.6,0-3.8,2.8-4.9,5.6c-0.8,2-1.6,3.9-2.8,4.5V52.7c0-1.8-1.5-3.3-3.3-3.3H92.2   c-0.1-0.7-0.2-1.4-0.3-2.1l-0.2-1c-0.2-0.9-0.3-1.8-0.5-2.7c0.5-0.4,0.8-1,0.8-1.6c0-0.7-0.3-1.2-0.8-1.6l3.3-5.9   c0.1-0.2,0.1-0.5,0-0.7c0-0.1-0.1-0.1-0.1-0.2c-4.4-4.9-7.1-11.5-8.3-15c0,0,0,0,0,0c0,0,0,0,0-0.1c0-0.1-0.1-0.1-0.1-0.2   c0,0,0,0-0.1-0.1c0,0-0.1-0.1-0.2-0.1c0,0,0,0-0.1,0c-0.1,0-0.2-0.1-0.3-0.1c-0.1,0-0.2,0-0.3,0.1c0,0,0,0-0.1,0   c-0.1,0-0.1,0.1-0.2,0.1c0,0,0,0-0.1,0.1c0,0-0.1,0.1-0.1,0.2c0,0,0,0,0,0.1c0,0,0,0,0,0c-1.2,3.5-3.8,10-8.3,14.9   c-0.1,0.1-0.1,0.1-0.1,0.2c-0.1,0.2-0.1,0.5,0,0.7l3.3,5.9c-0.5,0.4-0.8,1-0.8,1.6c0,0.7,0.3,1.2,0.8,1.6c-0.2,0.9-0.3,1.8-0.5,2.7   l-0.2,1c-0.1,0.7-0.2,1.4-0.3,2.1H34.8L11.2,25.8c0,0,0,0,0,0c0,0,0,0,0,0l-2.6-2.6c-0.8-0.8-1.8-1.2-2.9-1.2   c-1.1,0-2.1,0.4-2.9,1.2c-1.6,1.6-1.6,4.2,0,5.7l20.5,20.5h-4.4c-1.8,0-3.3,1.5-3.3,3.3v47.8c0,1.8,1.5,3.3,3.3,3.3h91.9   c1.8,0,3.3-1.5,3.3-3.3V77.9c2.1-0.5,3.2-3,4.2-5.5c1-2.4,1.9-4.7,3.6-4.7c1.6,0,2.6,2.3,3.6,4.7c0.2,0.5,0.4,1,0.6,1.4   c0.2,0.4,0.6,0.6,1,0.4s0.6-0.6,0.4-1C127.2,72.8,127,72.3,126.8,71.8z M80.2,41.9c0-0.4,0.3-0.7,0.7-0.7h8.9   c0.4,0,0.7,0.3,0.7,0.7c0,0.4-0.3,0.7-0.7,0.7h-8.9C80.5,42.6,80.2,42.3,80.2,41.9z M85.3,30.2c0.6,0,1.1,0.5,1.1,1.1   c0,0.6-0.5,1.1-1.1,1.1c-0.6,0-1.1-0.5-1.1-1.1C84.2,30.6,84.7,30.2,85.3,30.2z M84.5,22.8v6c-1.1,0.3-1.8,1.3-1.8,2.5   c0,1.4,1.2,2.6,2.6,2.6c1.4,0,2.6-1.2,2.6-2.6c0-1.2-0.8-2.1-1.8-2.5v-6c1.5,3.4,3.7,7.7,6.8,11.3l-3.1,5.7h-8.8l-3.1-5.7   C80.8,30.5,83.1,26.2,84.5,22.8z M80.2,47.5l0.2-1c0.1-0.8,0.3-1.6,0.4-2.4h8.9c0.2,0.8,0.3,1.6,0.4,2.4l0.2,1   c0.1,0.6,0.2,1.2,0.3,1.8H79.9C80,48.7,80.1,48.1,80.2,47.5z M44.2,58.8H85c1,0,1.8,0.8,1.8,1.8v31.9c0,1-0.8,1.8-1.8,1.8H25.8   c-1,0-1.8-0.8-1.8-1.8V60.6c0-1,0.8-1.8,1.8-1.8h6.9l11,11c0,0,0.1,0,0.1,0.1c0.1,0.1,0.2,0.2,0.3,0.3l7.3,2.8v12.6   c0,2.4,1.9,4.3,4.3,4.3c2.4,0,4.3-1.9,4.3-4.3v-4.9c0-1.5,1.2-2.8,2.8-2.8s2.8,1.2,2.8,2.8v0.8v4.2c0,2.4,1.9,4.3,4.3,4.3   c2.4,0,4.3-1.9,4.3-4.3V83c0-0.4-0.3-0.8-0.8-0.8c-0.4,0-0.8,0.3-0.8,0.8v2.5c0,1.5-1.2,2.8-2.8,2.8S67,87,67,85.5v-4.2v-0.8   c0-2.4-1.9-4.3-4.3-4.3s-4.3,1.9-4.3,4.3v4.9c0,1.5-1.2,2.8-2.8,2.8c-1.5,0-2.8-1.2-2.8-2.8V72.7c0-0.2-0.1-0.4-0.2-0.5   c0,0,0-0.1,0-0.1l-2.9-7.6c-0.1-0.1-0.1-0.2-0.3-0.3c0,0,0-0.1-0.1-0.1L44.2,58.8z M33.9,50.6l7.9,7.9l6,6l-3.6,3.6L33.6,57.5l0,0   l-7.9-7.9c0,0,0,0,0,0L7.1,31l3.6-3.6L33.9,50.6z M48.7,65.8l2,5.2l-5.2-2L48.7,65.8z M3.9,24.2c0.5-0.5,1.1-0.8,1.8-0.8   c0.7,0,1.3,0.3,1.8,0.8l2.1,2.1L6,29.9l-2.1-2.1C2.9,26.8,2.9,25.2,3.9,24.2z M110.8,102.3H18.9c-1,0-1.8-0.8-1.8-1.8V52.7   c0-1,0.8-1.8,1.8-1.8h5.9l6.4,6.4h-5.4c-1.8,0-3.3,1.5-3.3,3.3v31.9c0,1.8,1.5,3.3,3.3,3.3H85c1.8,0,3.3-1.5,3.3-3.3V60.6   c0-1.8-1.5-3.3-3.3-3.3H42.7l-6.4-6.4h74.5c1,0,1.8,0.8,1.8,1.8v24.6c0,0,0,0,0,0c0,0,0,0,0,0v23.2   C112.6,101.5,111.8,102.3,110.8,102.3z"/></g></svg>