<svg xmlns="http://www.w3.org/2000/svg" xmlns:xlink="http://www.w3.org/1999/xlink" version="1.1" x="0px" y="0px" viewBox="0 0 128 160" enable-background="new 0 0 128 128" xml:space="preserve" fill="#FF9D5F"><g><path d="M66.2,9.1c0,0,2.6-1.1,7.3,0.5c0.1,0,0.2,0,0.2,0c0.3,0,0.6-0.2,0.7-0.5c0.1-0.4-0.1-0.8-0.5-1c-5.3-1.8-8.3-0.5-8.4-0.5   c-0.4,0.2-0.5,0.6-0.4,1C65.4,9.1,65.8,9.3,66.2,9.1z"/><path d="M114.1,43.2c5.8,0,10.5-4.7,10.5-10.5s-4.7-10.5-10.5-10.5c-5.8,0-10.5,4.7-10.5,10.5S108.3,43.2,114.1,43.2z M105.2,33.5   h3.9c0.1,3.2,0.8,5.9,2,7.7C107.8,39.9,105.5,37,105.2,33.5z M114.1,23.7c1.6,0,3.4,3.4,3.6,8.2h-7.2   C110.7,27.1,112.5,23.7,114.1,23.7z M117.7,33.5c-0.2,4.9-2,8.2-3.6,8.2c-1.6,0-3.4-3.4-3.6-8.2H117.7z M117.3,41.1   c1.1-1.7,1.9-4.5,2-7.7h3.9C122.8,37,120.5,39.9,117.3,41.1z M123.1,32h-3.9c-0.1-3.2-0.8-5.9-2-7.7   C120.5,25.5,122.8,28.4,123.1,32z M111,24.3c-1.1,1.7-1.9,4.5-2,7.7h-3.9C105.5,28.4,107.8,25.5,111,24.3z"/><path d="M121.2,71.4c0-0.4-0.3-0.8-0.8-0.8c-0.4,0-0.8,0.3-0.8,0.8v10c0,0.4,0.3,0.8,0.8,0.8c0.4,0,0.8-0.3,0.8-0.8V71.4z"/><path d="M120.4,83.9c-0.4,0-0.8,0.3-0.8,0.8v3.2c0,0.4,0.3,0.8,0.8,0.8c0.4,0,0.8-0.3,0.8-0.8v-3.2   C121.2,84.3,120.8,83.9,120.4,83.9z"/><path d="M13.3,26c0-0.4-0.3-0.8-0.8-0.8c-0.4,0-0.8,0.3-0.8,0.8v10c0,0.4,0.3,0.8,0.8,0.8c0.4,0,0.8-0.3,0.8-0.8V26z"/><path d="M12.5,38.5c-0.4,0-0.8,0.3-0.8,0.8v3.2c0,0.4,0.3,0.8,0.8,0.8c0.4,0,0.8-0.3,0.8-0.8v-3.2C13.3,38.8,13,38.5,12.5,38.5z"/><path d="M1.8,95.1c-0.3-0.3-0.8-0.3-1.1,0c-0.3,0.3-0.3,0.8,0,1.1l1.7,1.7C2.5,98,2.7,98,2.9,98c0.2,0,0.4-0.1,0.5-0.2   c0.3-0.3,0.3-0.8,0-1.1L1.8,95.1z"/><path d="M6.2,101.6l1.7,1.7c0.1,0.1,0.3,0.2,0.5,0.2c0.2,0,0.4-0.1,0.5-0.2c0.3-0.3,0.3-0.8,0-1.1l-1.7-1.7c-0.3-0.3-0.8-0.3-1.1,0   C5.9,100.8,5.9,101.3,6.2,101.6z"/><path d="M2.4,100.5l-1.7,1.7c-0.3,0.3-0.3,0.8,0,1.1c0.1,0.1,0.3,0.2,0.5,0.2s0.4-0.1,0.5-0.2l1.7-1.7c0.3-0.3,0.3-0.8,0-1.1   C3.2,100.2,2.7,100.2,2.4,100.5z"/><path d="M6.7,98c0.2,0,0.4-0.1,0.5-0.2l1.7-1.7c0.3-0.3,0.3-0.8,0-1.1c-0.3-0.3-0.8-0.3-1.1,0l-1.7,1.7c-0.3,0.3-0.3,0.8,0,1.1   C6.3,98,6.5,98,6.7,98z"/><path d="M107.4,7.6c0.1,0.1,0.3,0.2,0.5,0.2c0.2,0,0.4-0.1,0.5-0.2c0.3-0.3,0.3-0.8,0-1.1l-1.7-1.7c-0.3-0.3-0.8-0.3-1.1,0   c-0.3,0.3-0.3,0.8,0,1.1L107.4,7.6z"/><path d="M112.8,13c0.1,0.1,0.3,0.2,0.5,0.2c0.2,0,0.4-0.1,0.5-0.2c0.3-0.3,0.3-0.8,0-1.1l-1.7-1.7c-0.3-0.3-0.8-0.3-1.1,0   c-0.3,0.3-0.3,0.8,0,1.1L112.8,13z"/><path d="M106.2,13.2c0.2,0,0.4-0.1,0.5-0.2l1.7-1.7c0.3-0.3,0.3-0.8,0-1.1c-0.3-0.3-0.8-0.3-1.1,0l-1.7,1.7c-0.3,0.3-0.3,0.8,0,1.1   C105.8,13.1,106,13.2,106.2,13.2z"/><path d="M111.6,7.8c0.2,0,0.4-0.1,0.5-0.2l1.7-1.7c0.3-0.3,0.3-0.8,0-1.1c-0.3-0.3-0.8-0.3-1.1,0l-1.7,1.7c-0.3,0.3-0.3,0.8,0,1.1   C111.3,7.7,111.5,7.8,111.6,7.8z"/><path d="M39.7,32.3c2,0,3.6-1.6,3.6-3.6c0-2-1.6-3.6-3.6-3.6s-3.6,1.6-3.6,3.6C36.1,30.7,37.7,32.3,39.7,32.3z M39.7,26.6   c1.2,0,2.1,0.9,2.1,2.1c0,1.2-0.9,2.1-2.1,2.1c-1.2,0-2.1-0.9-2.1-2.1C37.6,27.5,38.5,26.6,39.7,26.6z"/><path d="M123.9,97.4c-2,0-3.6,1.6-3.6,3.6c0,2,1.6,3.6,3.6,3.6c2,0,3.6-1.6,3.6-3.6C127.5,99,125.9,97.4,123.9,97.4z M123.9,103.1   c-1.2,0-2.1-0.9-2.1-2.1c0-1.2,0.9-2.1,2.1-2.1c1.2,0,2.1,0.9,2.1,2.1C126,102.2,125,103.1,123.9,103.1z"/><path d="M16.1,16.2c0,0.4,0.3,0.8,0.8,0.8h13.3c0.4,0,0.8-0.3,0.8-0.8c0-0.4-0.3-0.8-0.8-0.8H16.9C16.5,15.4,16.1,15.8,16.1,16.2z"/><path d="M8.3,17h4.3c0.4,0,0.8-0.3,0.8-0.8c0-0.4-0.3-0.8-0.8-0.8H8.3c-0.4,0-0.8,0.3-0.8,0.8C7.5,16.6,7.8,17,8.3,17z"/><path d="M8.3,12.4h9.2c0.4,0,0.8-0.3,0.8-0.8s-0.3-0.8-0.8-0.8H8.3c-0.4,0-0.8,0.3-0.8,0.8S7.8,12.4,8.3,12.4z"/><path d="M21.5,12.4h3c0.4,0,0.8-0.3,0.8-0.8s-0.3-0.8-0.8-0.8h-3c-0.4,0-0.8,0.3-0.8,0.8S21.1,12.4,21.5,12.4z"/><path d="M83.5,30.5c0,0.4,0.3,0.8,0.8,0.8h13.3c0.4,0,0.8-0.3,0.8-0.8c0-0.4-0.3-0.8-0.8-0.8H84.3C83.9,29.8,83.5,30.1,83.5,30.5z"/><path d="M75.6,29.8c-0.4,0-0.8,0.3-0.8,0.8c0,0.4,0.3,0.8,0.8,0.8h4.3c0.4,0,0.8-0.3,0.8-0.8c0-0.4-0.3-0.8-0.8-0.8H75.6z"/><path d="M75.6,25.2c-0.4,0-0.8,0.3-0.8,0.8c0,0.4,0.3,0.8,0.8,0.8h9.2c0.4,0,0.8-0.3,0.8-0.8c0-0.4-0.3-0.8-0.8-0.8H75.6z"/><path d="M88.9,26.7h3c0.4,0,0.8-0.3,0.8-0.8c0-0.4-0.3-0.8-0.8-0.8h-3c-0.4,0-0.8,0.3-0.8,0.8C88.1,26.4,88.5,26.7,88.9,26.7z"/><path d="M18.7,61.2h88.9c0.4,0,0.7-0.2,0.7-0.6c0.1-0.3-0.1-0.7-0.4-0.8L68,40.8c-3-1.6-6.6-1.6-9.6,0l-39.9,19   c-0.3,0.2-0.5,0.5-0.4,0.8C18.1,60.9,18.4,61.2,18.7,61.2z M59,42.1c2.6-1.3,5.7-1.3,8.3,0l36.9,17.6H22.1L59,42.1z"/><path d="M116,113.5h-3.5v-3c0-0.3-0.1-0.5-0.4-0.7l-2.3-1.3V72.2h1.5c1.7,0,3.1-1.4,3.1-3.1v-0.5c0-0.6-0.2-1.2-0.5-1.6h6.4   c0.4,0,0.8-0.3,0.8-0.8v-6.5c0-0.3-0.2-0.6-0.4-0.7L69.2,34.1c-1.7-0.8-3.5-1.2-5.3-1.3c0,0,0,0,0,0V18.3c3.2-1.2,6.4-0.5,9.8,0.2   c2.1,0.5,4.2,0.9,6.4,0.9c1.6,0,3.2-0.3,4.8-1c0.3-0.1,0.4-0.4,0.4-0.7V5.5c0-0.3-0.1-0.5-0.3-0.6c-0.2-0.1-0.5-0.2-0.7-0.1   c-3.4,1.5-6.7,0.7-10.3,0c-3.3-0.7-6.7-1.5-10.1-0.4V2.8c0-0.4-0.3-0.8-0.8-0.8c-0.4,0-0.8,0.3-0.8,0.8v2.7v12.2v14.9c0,0,0,0,0,0   c-1.8,0.1-3.6,0.5-5.3,1.3L5.6,59c-0.3,0.1-0.4,0.4-0.4,0.7v6.5c0,0.4,0.3,0.8,0.8,0.8h6.4c-0.3,0.5-0.5,1-0.5,1.6v0.5   c0,1.7,1.4,3.1,3.1,3.1h1.5v36.3l-2.3,1.3c-0.2,0.1-0.4,0.4-0.4,0.7v3h-3.5c-2.8,0-5.1,2.3-5.1,5.1v6.6c0,0.4,0.3,0.8,0.8,0.8   h114.5c0.4,0,0.8-0.3,0.8-0.8v-6.6C121.2,115.7,118.9,113.5,116,113.5z M111,113.5H99v-2.6l1.8-1.1c0,0,0.1,0,0.1,0h8.1   c0,0,0.1,0,0.1,0l1.8,1.1V113.5z M84.6,113.5v-3c0-0.3-0.1-0.5-0.4-0.7l-2.3-1.3V72.2h1.5c1.7,0,3.1-1.4,3.1-3.1v-0.5   c0-0.6-0.2-1.2-0.5-1.6h10c-0.3,0.5-0.5,1-0.5,1.6v0.5c0,1.7,1.4,3.1,3.1,3.1h1.5v36.3l-2.3,1.3c-0.2,0.1-0.4,0.4-0.4,0.7v3H84.6z    M71.1,113.5v-2.6l1.8-1.1c0,0,0.1,0,0.1,0h8.1c0,0,0.1,0,0.1,0l1.8,1.1v2.6H71.1z M56.7,113.5v-3c0-0.3-0.1-0.5-0.4-0.7l-2.3-1.3   V72.2h1.5c1.7,0,3.1-1.4,3.1-3.1v-0.5c0-0.6-0.2-1.2-0.5-1.6h10c-0.3,0.5-0.5,1-0.5,1.6v0.5c0,1.7,1.4,3.1,3.1,3.1h1.5v36.3   l-2.3,1.3c-0.2,0.1-0.4,0.4-0.4,0.7v3H56.7z M43.2,113.5v-2.6l1.8-1.1c0,0,0.1,0,0.1,0h8.1c0,0,0.1,0,0.1,0l1.8,1.1v2.6H43.2z    M28.8,113.5v-3c0-0.3-0.1-0.5-0.4-0.7l-2.3-1.3V72.2h1.5c1.7,0,3.1-1.4,3.1-3.1v-0.5c0-0.6-0.2-1.2-0.5-1.6h10   c-0.3,0.5-0.5,1-0.5,1.6v0.5c0,1.7,1.4,3.1,3.1,3.1h1.5v36.3l-2.3,1.3c-0.2,0.1-0.4,0.4-0.4,0.7v3H28.8z M18,105.9h6.6v2.5H18   V105.9z M57.1,68.5v0.5c0,0.9-0.7,1.6-1.6,1.6h-2.3h-8.1h-2.3c-0.9,0-1.6-0.7-1.6-1.6v-0.5c0-0.9,0.7-1.6,1.6-1.6h12.6   C56.4,66.9,57.1,67.6,57.1,68.5z M45.9,105.9h6.6v2.5h-6.6V105.9z M52.5,104.3h-6.6V72.2h6.6V104.3z M85,68.5v0.5   c0,0.9-0.7,1.6-1.6,1.6h-2.3h-8.1h-2.3c-0.9,0-1.6-0.7-1.6-1.6v-0.5c0-0.9,0.7-1.6,1.6-1.6h12.6C84.3,66.9,85,67.6,85,68.5z    M73.8,105.9h6.6v2.5h-6.6V105.9z M80.4,104.3h-6.6V72.2h6.6V104.3z M101.7,105.9h6.6v2.5h-6.6V105.9z M108.3,104.3h-6.6V72.2h6.6   V104.3z M113,68.5v0.5c0,0.9-0.7,1.6-1.6,1.6h-2.3H101h-2.3c-0.9,0-1.6-0.7-1.6-1.6v-0.5c0-0.9,0.7-1.6,1.6-1.6h12.6   C112.2,66.9,113,67.6,113,68.5z M73.7,6.3C77,7,80.4,7.8,83.9,6.6v10.6c-3.2,1.2-6.4,0.5-9.8-0.2c-2.1-0.5-4.2-0.9-6.4-0.9   c-1.3,0-2.5,0.2-3.8,0.6V6C67.1,4.8,70.3,5.5,73.7,6.3z M6.7,60.1l51.2-24.7c3.4-1.6,7.3-1.6,10.7,0l51.2,24.7v5.3h-8.3H98.7H83.4   H70.8H55.5H42.9H27.6H15H6.7V60.1z M13.3,69.1v-0.5c0-0.9,0.7-1.6,1.6-1.6h12.6c0.9,0,1.6,0.7,1.6,1.6v0.5c0,0.9-0.7,1.6-1.6,1.6   h-2.3h-8.1H15C14.1,70.7,13.3,70,13.3,69.1z M24.6,72.2v32.2H18V72.2H24.6z M15.3,110.9l1.8-1.1c0,0,0.1,0,0.1,0h8.1   c0,0,0.1,0,0.1,0l1.8,1.1v2.6H15.3V110.9z M119.7,124.4H6.7v-5.9c0-2,1.6-3.6,3.6-3.6H116c2,0,3.6,1.6,3.6,3.6V124.4z"/><path d="M16.1,118.9h-1.5c-0.4,0-0.8,0.3-0.8,0.8c0,0.4,0.3,0.8,0.8,0.8h1.5c0.4,0,0.8-0.3,0.8-0.8   C16.8,119.3,16.5,118.9,16.1,118.9z"/><path d="M86.7,118.9h-2.9c-0.4,0-0.8,0.3-0.8,0.8c0,0.4,0.3,0.8,0.8,0.8h2.9c0.4,0,0.8-0.3,0.8-0.8   C87.4,119.3,87.1,118.9,86.7,118.9z"/><path d="M77.9,118.9h-2.9c-0.4,0-0.8,0.3-0.8,0.8c0,0.4,0.3,0.8,0.8,0.8h2.9c0.4,0,0.8-0.3,0.8-0.8   C78.6,119.3,78.3,118.9,77.9,118.9z"/><path d="M69,118.9h-2.9c-0.4,0-0.8,0.3-0.8,0.8c0,0.4,0.3,0.8,0.8,0.8H69c0.4,0,0.8-0.3,0.8-0.8C69.8,119.3,69.5,118.9,69,118.9z"/><path d="M104.4,118.9h-2.9c-0.4,0-0.8,0.3-0.8,0.8c0,0.4,0.3,0.8,0.8,0.8h2.9c0.4,0,0.8-0.3,0.8-0.8   C105.1,119.3,104.8,118.9,104.4,118.9z"/><path d="M95.5,118.9h-2.9c-0.4,0-0.8,0.3-0.8,0.8c0,0.4,0.3,0.8,0.8,0.8h2.9c0.4,0,0.8-0.3,0.8-0.8   C96.3,119.3,95.9,118.9,95.5,118.9z"/><path d="M24.9,118.9H22c-0.4,0-0.8,0.3-0.8,0.8c0,0.4,0.3,0.8,0.8,0.8h2.9c0.4,0,0.8-0.3,0.8-0.8C25.6,119.3,25.3,118.9,24.9,118.9   z"/><path d="M33.7,118.9h-2.9c-0.4,0-0.8,0.3-0.8,0.8c0,0.4,0.3,0.8,0.8,0.8h2.9c0.4,0,0.8-0.3,0.8-0.8   C34.5,119.3,34.1,118.9,33.7,118.9z"/><path d="M42.6,118.9h-2.9c-0.4,0-0.8,0.3-0.8,0.8c0,0.4,0.3,0.8,0.8,0.8h2.9c0.4,0,0.8-0.3,0.8-0.8C43.3,119.3,43,118.9,42.6,118.9   z"/><path d="M60.2,118.9h-2.9c-0.4,0-0.8,0.3-0.8,0.8c0,0.4,0.3,0.8,0.8,0.8h2.9c0.4,0,0.8-0.3,0.8-0.8C61,119.3,60.6,118.9,60.2,118.9   z"/><path d="M51.4,118.9h-2.9c-0.4,0-0.8,0.3-0.8,0.8c0,0.4,0.3,0.8,0.8,0.8h2.9c0.4,0,0.8-0.3,0.8-0.8   C52.1,119.3,51.8,118.9,51.4,118.9z"/><path d="M111.7,118.9h-1.5c-0.4,0-0.8,0.3-0.8,0.8c0,0.4,0.3,0.8,0.8,0.8h1.5c0.4,0,0.8-0.3,0.8-0.8   C112.5,119.3,112.2,118.9,111.7,118.9z"/></g></svg>