<svg xmlns="http://www.w3.org/2000/svg" xmlns:xlink="http://www.w3.org/1999/xlink" version="1.1" x="0px" y="0px" viewBox="0 0 128 160" enable-background="new 0 0 128 128" fill="#FF9D5F" xml:space="preserve"><g><path d="M10.8,39.4c0.4,0,0.7-0.3,0.7-0.7V27.6c0-0.4-0.3-0.7-0.7-0.7s-0.7,0.3-0.7,0.7v11.1C10.1,39,10.4,39.4,10.8,39.4z"/><path d="M10.8,46.6c0.4,0,0.7-0.3,0.7-0.7v-3.6c0-0.4-0.3-0.7-0.7-0.7s-0.7,0.3-0.7,0.7v3.6C10.1,46.3,10.4,46.6,10.8,46.6z"/><path d="M124.8,71.1c-0.4,0-0.7,0.3-0.7,0.7v11.1c0,0.4,0.3,0.7,0.7,0.7c0.4,0,0.7-0.3,0.7-0.7V71.9   C125.6,71.5,125.2,71.1,124.8,71.1z"/><path d="M124.8,85.8c-0.4,0-0.7,0.3-0.7,0.7v3.6c0,0.4,0.3,0.7,0.7,0.7c0.4,0,0.7-0.3,0.7-0.7v-3.6   C125.6,86.2,125.2,85.8,124.8,85.8z"/><path d="M25,10.4c0,0.4,0.3,0.7,0.7,0.7H39c0.4,0,0.7-0.3,0.7-0.7c0-0.4-0.3-0.7-0.7-0.7H25.7C25.3,9.6,25,10,25,10.4z"/><path d="M17,11.1h4.3c0.4,0,0.7-0.3,0.7-0.7c0-0.4-0.3-0.7-0.7-0.7H17c-0.4,0-0.7,0.3-0.7,0.7C16.3,10.8,16.6,11.1,17,11.1z"/><path d="M17,6.6h9.3c0.4,0,0.7-0.3,0.7-0.7c0-0.4-0.3-0.7-0.7-0.7H17c-0.4,0-0.7,0.3-0.7,0.7C16.3,6.2,16.6,6.6,17,6.6z"/><path d="M30.3,6.6h3c0.4,0,0.7-0.3,0.7-0.7c0-0.4-0.3-0.7-0.7-0.7h-3c-0.4,0-0.7,0.3-0.7,0.7C29.5,6.2,29.9,6.6,30.3,6.6z"/><path d="M100.3,116c0-0.4-0.3-0.7-0.7-0.7H86.3c-0.4,0-0.7,0.3-0.7,0.7c0,0.4,0.3,0.7,0.7,0.7h13.3   C100,116.7,100.3,116.4,100.3,116z"/><path d="M108.2,115.2h-4.3c-0.4,0-0.7,0.3-0.7,0.7c0,0.4,0.3,0.7,0.7,0.7h4.3c0.4,0,0.7-0.3,0.7-0.7   C108.9,115.6,108.6,115.2,108.2,115.2z"/><path d="M108.2,119.8h-9.3c-0.4,0-0.7,0.3-0.7,0.7c0,0.4,0.3,0.7,0.7,0.7h9.3c0.4,0,0.7-0.3,0.7-0.7   C108.9,120.1,108.6,119.8,108.2,119.8z"/><path d="M95,119.8h-3c-0.4,0-0.7,0.3-0.7,0.7c0,0.4,0.3,0.7,0.7,0.7h3c0.4,0,0.7-0.3,0.7-0.7C95.7,120.1,95.4,119.8,95,119.8z"/><path d="M111.5,7.9c0.1,0.1,0.3,0.2,0.5,0.2s0.4-0.1,0.5-0.2c0.3-0.3,0.3-0.8,0-1L111,5.3c-0.3-0.3-0.8-0.3-1,0   c-0.3,0.3-0.3,0.8,0,1L111.5,7.9z"/><path d="M116.5,12.8c0.1,0.1,0.3,0.2,0.5,0.2c0.2,0,0.4-0.1,0.5-0.2c0.3-0.3,0.3-0.8,0-1l-1.5-1.5c-0.3-0.3-0.8-0.3-1,0   c-0.3,0.3-0.3,0.8,0,1L116.5,12.8z"/><path d="M110.5,13c0.2,0,0.4-0.1,0.5-0.2l1.5-1.5c0.3-0.3,0.3-0.8,0-1c-0.3-0.3-0.8-0.3-1,0l-1.5,1.5c-0.3,0.3-0.3,0.8,0,1   C110.2,13,110.3,13,110.5,13z"/><path d="M115.5,8.1c0.2,0,0.4-0.1,0.5-0.2l1.5-1.5c0.3-0.3,0.3-0.8,0-1c-0.3-0.3-0.8-0.3-1,0L115,6.8c-0.3,0.3-0.3,0.8,0,1   C115.1,8,115.3,8.1,115.5,8.1z"/><path d="M40.9,115.2c-0.3-0.3-0.8-0.3-1,0c-0.3,0.3-0.3,0.8,0,1l1.5,1.5c0.1,0.1,0.3,0.2,0.5,0.2c0.2,0,0.4-0.1,0.5-0.2   c0.3-0.3,0.3-0.8,0-1L40.9,115.2z"/><path d="M45.9,120.1c-0.3-0.3-0.8-0.3-1,0c-0.3,0.3-0.3,0.8,0,1l1.5,1.5c0.1,0.1,0.3,0.2,0.5,0.2c0.2,0,0.4-0.1,0.5-0.2   c0.3-0.3,0.3-0.8,0-1L45.9,120.1z"/><path d="M41.4,120.1l-1.5,1.5c-0.3,0.3-0.3,0.8,0,1c0.1,0.1,0.3,0.2,0.5,0.2c0.2,0,0.4-0.1,0.5-0.2l1.5-1.5c0.3-0.3,0.3-0.8,0-1   C42.2,119.8,41.7,119.8,41.4,120.1z"/><path d="M46.4,115.2l-1.5,1.5c-0.3,0.3-0.3,0.8,0,1c0.1,0.1,0.3,0.2,0.5,0.2c0.2,0,0.4-0.1,0.5-0.2l1.5-1.5c0.3-0.3,0.3-0.8,0-1   C47.1,114.9,46.6,114.9,46.4,115.2z"/><path d="M1.8,68.1c-0.3-0.3-0.8-0.3-1,0s-0.3,0.8,0,1l1.5,1.5c0.1,0.1,0.3,0.2,0.5,0.2s0.4-0.1,0.5-0.2c0.3-0.3,0.3-0.8,0-1   L1.8,68.1z"/><path d="M8.2,74.6l-1.5-1.5c-0.3-0.3-0.8-0.3-1,0s-0.3,0.8,0,1l1.5,1.5c0.1,0.1,0.3,0.2,0.5,0.2s0.4-0.1,0.5-0.2   C8.5,75.3,8.5,74.9,8.2,74.6z"/><path d="M2.2,73.1l-1.5,1.5c-0.3,0.3-0.3,0.8,0,1c0.1,0.1,0.3,0.2,0.5,0.2c0.2,0,0.4-0.1,0.5-0.2l1.5-1.5c0.3-0.3,0.3-0.8,0-1   C3,72.8,2.5,72.8,2.2,73.1z"/><path d="M6.2,70.9c0.2,0,0.4-0.1,0.5-0.2l1.5-1.5c0.3-0.3,0.3-0.8,0-1c-0.3-0.3-0.8-0.3-1,0l-1.5,1.5c-0.3,0.3-0.3,0.8,0,1   C5.8,70.8,6,70.9,6.2,70.9z"/><path d="M123.8,38.6c-2,0-3.7,1.7-3.7,3.7c0,2,1.7,3.7,3.7,3.7c2,0,3.7-1.7,3.7-3.7C127.5,40.2,125.8,38.6,123.8,38.6z M123.8,44.5   c-1.2,0-2.2-1-2.2-2.2c0-1.2,1-2.2,2.2-2.2s2.2,1,2.2,2.2C126,43.5,125,44.5,123.8,44.5z"/><path d="M13.8,115.2c-2,0-3.7,1.7-3.7,3.7c0,2,1.7,3.7,3.7,3.7c2,0,3.7-1.7,3.7-3.7C17.5,116.9,15.8,115.2,13.8,115.2z M13.8,121.2   c-1.2,0-2.2-1-2.2-2.2s1-2.2,2.2-2.2c1.2,0,2.2,1,2.2,2.2S15,121.2,13.8,121.2z"/><path d="M24.9,90.7H9c-0.4,0-0.7,0.3-0.7,0.7v17.8c0,0.4,0.3,0.7,0.7,0.7h15.9c0.4,0,0.7-0.3,0.7-0.7V91.4   C25.6,91,25.3,90.7,24.9,90.7z M24.2,108.4H9.7V92.1h14.5V108.4z"/><path d="M48,82.6H32.1c-0.4,0-0.7,0.3-0.7,0.7v25.8c0,0.4,0.3,0.7,0.7,0.7H48c0.4,0,0.7-0.3,0.7-0.7V83.3   C48.7,82.9,48.4,82.6,48,82.6z M47.3,108.4H32.8V84h14.5V108.4z"/><path d="M71.1,78.4H55.2c-0.4,0-0.7,0.3-0.7,0.7v30c0,0.4,0.3,0.7,0.7,0.7h15.9c0.4,0,0.7-0.3,0.7-0.7v-30   C71.9,78.7,71.5,78.4,71.1,78.4z M70.4,108.4H55.9V79.9h14.5V108.4z"/><path d="M95,109.2V64.7c0-0.4-0.3-0.7-0.7-0.7H78.3c-0.4,0-0.7,0.3-0.7,0.7v44.5c0,0.4,0.3,0.7,0.7,0.7h15.9   C94.6,109.9,95,109.6,95,109.2z M93.5,108.4H79v-43h14.5V108.4z"/><path d="M117.3,54.2h-15.9c-0.4,0-0.7,0.3-0.7,0.7v54.2c0,0.4,0.3,0.7,0.7,0.7h15.9c0.4,0,0.7-0.3,0.7-0.7V54.9   C118.1,54.5,117.7,54.2,117.3,54.2z M116.6,108.4h-14.5V55.7h14.5V108.4z"/><path d="M77.5,47.5l11.1,11.1c0.1,0.1,0.3,0.2,0.5,0.2c0,0,0,0,0,0c0.2,0,0.4-0.1,0.5-0.2L114.3,34c0.3-0.3,0.3-0.8,0-1   c-0.3-0.3-0.8-0.3-1,0l-6.3,6.3c-0.8-1.6-2.3-2.7-4-3.1c-1.7-0.4-3.6-0.1-5,0.9c-2,1.5-5.3,1.5-7.3,0c-1.4-1-3.2-1.4-5-0.9   c-1.8,0.5-3.4,1.7-4.2,3.4c-0.5,1-1.6,5.1-1,8.8l-2.2-2.2c0.1-0.2,0.1-0.4,0.2-0.6c0.3-2-1.3-3.9-1.4-4c-2.9-2.8-7.3-3.2-10.4-0.9   c-1.4,1-3.2,1.6-5.1,1.6c-1.9,0-3.7-0.6-5.1-1.6c-1.9-1.4-4.2-1.8-6.5-1.2c-2.4,0.6-4.5,2.2-5.5,4.5c-0.5,1-0.8,2.1-1,3.2   c-2.3-1.3-5.1-1.2-7.2,0.4c-1.1,0.8-2.6,1.3-4.1,1.3c-1.5,0-3-0.5-4.1-1.3c-1.5-1.1-3.5-1.5-5.5-1c-2,0.5-3.7,1.9-4.6,3.7   c-0.9,1.8-1.5,3.8-1.8,5.9c-1.3,9.2,4,17.5,5.4,19.5l-5,5c-0.3,0.3-0.3,0.7,0,1c0.1,0.1,0.3,0.2,0.5,0.2c0.2,0,0.4-0.1,0.5-0.2   l20-19.6l7.2,7.2c0,0,0.1,0.1,0.1,0.1l4.9,4.9c0.1,0.1,0.3,0.2,0.5,0.2h0c0.2,0,0.4-0.1,0.5-0.2l25.9-26   C77,47.9,77.3,47.7,77.5,47.5z M82.8,40.2c0.6-1.3,1.8-2.2,3.2-2.6c1.3-0.3,2.7-0.1,3.7,0.7c1.2,0.9,2.8,1.4,4.5,1.4   c1.7,0,3.3-0.5,4.5-1.4c1.1-0.8,2.4-1,3.7-0.7c1.4,0.4,2.6,1.3,3.2,2.6c0,0.1,0.1,0.1,0.1,0.1L89.2,57l-6.5-6.5   C80.9,46.8,82.3,41.3,82.8,40.2z M17.6,56.3c0.3-2,0.8-3.8,1.7-5.5c0.7-1.5,2-2.5,3.6-2.9c1.5-0.4,3-0.1,4.2,0.8   c1.4,1,3.1,1.6,5,1.6c1.8,0,3.6-0.6,5-1.6c1.8-1.3,4.2-1.2,6.1,0.1c-0.1,0.8-0.1,1.7-0.2,2.5c-0.2,4.5,0.7,11.2,1.3,15.3l-6.2-6.2   l0,0l0,0l0,0c0,0-0.1-0.1-0.1-0.1c0,0-0.1-0.1-0.1-0.1c-0.1,0-0.1,0-0.2,0c0,0-0.1,0-0.1,0c-0.1,0-0.1,0-0.2,0c0,0-0.1,0-0.1,0   c0,0-0.1,0.1-0.1,0.1c0,0-0.1,0-0.1,0.1L22.6,74.5C21.1,72.3,16.4,64.6,17.6,56.3z M50.3,72.6L46,68.3c-0.6-3.6-1.8-11.8-1.6-17   c0-0.9,0.1-1.8,0.2-2.7c0,0,0,0,0-0.1c0.2-1.4,0.5-2.8,1.1-4c0.9-1.8,2.6-3.2,4.6-3.7c1.9-0.5,3.8-0.1,5.3,1c1.6,1.2,3.8,1.9,6,1.9   c2.2,0,4.3-0.7,6-1.9c2.5-1.8,6.2-1.5,8.5,0.7c0,0,1.2,1.5,1,2.8c0,0.2-0.1,0.3-0.2,0.5L50.3,72.6z"/><path d="M61.5,35.6c5.9,0,10.6-5.1,10.6-11.3s-4.8-11.3-10.6-11.3c-5.9,0-10.6,5.1-10.6,11.3S55.7,35.6,61.5,35.6z M61.5,14.4   c5.1,0,9.2,4.4,9.2,9.9s-4.1,9.9-9.2,9.9s-9.2-4.4-9.2-9.9S56.5,14.4,61.5,14.4z"/><path d="M94.3,33.7c4.4,0,8-3.8,8-8.5c0-4.7-3.6-8.5-8-8.5c-4.4,0-8,3.8-8,8.5C86.3,29.9,89.9,33.7,94.3,33.7z M94.3,18.1   c3.6,0,6.5,3.2,6.5,7s-2.9,7-6.5,7c-3.6,0-6.5-3.2-6.5-7S90.7,18.1,94.3,18.1z"/><path d="M32.1,24.8c-4.9,0-8.8,4.2-8.8,9.4c0,5.2,4,9.4,8.8,9.4c4.9,0,8.8-4.2,8.8-9.4C40.9,29,36.9,24.8,32.1,24.8z M32.1,42.1   c-4,0-7.3-3.5-7.3-7.9c0-4.4,3.3-7.9,7.3-7.9c4.1,0,7.3,3.5,7.3,7.9C39.4,38.5,36.1,42.1,32.1,42.1z"/></g></svg>