<svg xmlns="http://www.w3.org/2000/svg" xmlns:xlink="http://www.w3.org/1999/xlink" version="1.1" x="0px" y="0px" fill="#FF9D5F" viewBox="0 0 128 160" style="enable-background:new 0 0 128 128;" xml:space="preserve"><g><path d="M7.8,34.7c0.4,0,0.7-0.3,0.7-0.7v-9.1c0-0.4-0.3-0.7-0.7-0.7c-0.4,0-0.7,0.3-0.7,0.7V34C7.1,34.4,7.4,34.7,7.8,34.7z"/><path d="M7.8,42.2c0.4,0,0.7-0.3,0.7-0.7v-3.2c0-0.4-0.3-0.7-0.7-0.7c-0.4,0-0.7,0.3-0.7,0.7v3.2C7.1,41.9,7.4,42.2,7.8,42.2z"/><path d="M78.7,17.2c1.9,0,3.5-1.6,3.5-3.5s-1.6-3.5-3.5-3.5s-3.5,1.6-3.5,3.5S76.8,17.2,78.7,17.2z M78.7,11.7c1.1,0,2,0.9,2,2   s-0.9,2-2,2s-2-0.9-2-2S77.6,11.7,78.7,11.7z"/><path d="M19.8,7.6c0,0.4,0.3,0.7,0.7,0.7h11.3c0.4,0,0.7-0.3,0.7-0.7c0-0.4-0.3-0.7-0.7-0.7H20.6C20.1,6.8,19.8,7.2,19.8,7.6z"/><path d="M13.2,8.3h3.6c0.4,0,0.7-0.3,0.7-0.7c0-0.4-0.3-0.7-0.7-0.7h-3.6c-0.4,0-0.7,0.3-0.7,0.7C12.5,8,12.8,8.3,13.2,8.3z"/><path d="M13.2,4.4h7.9c0.4,0,0.7-0.3,0.7-0.7c0-0.4-0.3-0.7-0.7-0.7h-7.9c-0.4,0-0.7,0.3-0.7,0.7C12.5,4.1,12.8,4.4,13.2,4.4z"/><path d="M24.4,4.4H27c0.4,0,0.7-0.3,0.7-0.7C27.7,3.3,27.4,3,27,3h-2.5c-0.4,0-0.7,0.3-0.7,0.7C23.7,4.1,24,4.4,24.4,4.4z"/><path d="M118.8,116.4c0-0.4-0.3-0.7-0.7-0.7h-11.3c-0.4,0-0.7,0.3-0.7,0.7c0,0.4,0.3,0.7,0.7,0.7h11.3   C118.5,117.1,118.8,116.8,118.8,116.4z"/><path d="M125.4,115.6h-3.6c-0.4,0-0.7,0.3-0.7,0.7c0,0.4,0.3,0.7,0.7,0.7h3.6c0.4,0,0.7-0.3,0.7-0.7   C126.2,116,125.8,115.6,125.4,115.6z"/><path d="M125.4,119.5h-7.9c-0.4,0-0.7,0.3-0.7,0.7c0,0.4,0.3,0.7,0.7,0.7h7.9c0.4,0,0.7-0.3,0.7-0.7   C126.2,119.8,125.8,119.5,125.4,119.5z"/><path d="M114.2,119.5h-2.5c-0.4,0-0.7,0.3-0.7,0.7c0,0.4,0.3,0.7,0.7,0.7h2.5c0.4,0,0.7-0.3,0.7-0.7   C114.9,119.8,114.6,119.5,114.2,119.5z"/><path d="M54.6,4.5c0.1,0.1,0.3,0.2,0.5,0.2s0.4-0.1,0.5-0.2c0.3-0.3,0.3-0.8,0-1L54.1,2c-0.3-0.3-0.8-0.3-1,0c-0.3,0.3-0.3,0.8,0,1   L54.6,4.5z"/><path d="M59.4,9.3c0.1,0.1,0.3,0.2,0.5,0.2s0.4-0.1,0.5-0.2c0.3-0.3,0.3-0.8,0-1l-1.5-1.5c-0.3-0.3-0.8-0.3-1,0   c-0.3,0.3-0.3,0.8,0,1L59.4,9.3z"/><path d="M53.6,9.5c0.2,0,0.4-0.1,0.5-0.2l1.5-1.5c0.3-0.3,0.3-0.8,0-1c-0.3-0.3-0.8-0.3-1,0l-1.5,1.5c-0.3,0.3-0.3,0.8,0,1   C53.2,9.5,53.4,9.5,53.6,9.5z"/><path d="M58.4,4.7c0.2,0,0.4-0.1,0.5-0.2L60.4,3c0.3-0.3,0.3-0.8,0-1c-0.3-0.3-0.8-0.3-1,0l-1.5,1.5c-0.3,0.3-0.3,0.8,0,1   C58,4.6,58.2,4.7,58.4,4.7z"/><path d="M84.3,87.9l-1.5-1.5c-0.3-0.3-0.8-0.3-1,0c-0.3,0.3-0.3,0.8,0,1l1.5,1.5c0.1,0.1,0.3,0.2,0.5,0.2s0.4-0.1,0.5-0.2   C84.6,88.6,84.6,88.2,84.3,87.9z"/><path d="M87.6,91.2c-0.3-0.3-0.8-0.3-1,0c-0.3,0.3-0.3,0.8,0,1l1.5,1.5c0.1,0.1,0.3,0.2,0.5,0.2s0.4-0.1,0.5-0.2   c0.3-0.3,0.3-0.8,0-1L87.6,91.2z"/><path d="M83.3,91.2l-1.5,1.5c-0.3,0.3-0.3,0.8,0,1c0.1,0.1,0.3,0.2,0.5,0.2s0.4-0.1,0.5-0.2l1.5-1.5c0.3-0.3,0.3-0.8,0-1   S83.5,90.9,83.3,91.2z"/><path d="M89.1,86.4c-0.3-0.3-0.8-0.3-1,0l-1.5,1.5c-0.3,0.3-0.3,0.8,0,1c0.1,0.1,0.3,0.2,0.5,0.2s0.4-0.1,0.5-0.2l1.5-1.5   C89.4,87.2,89.4,86.7,89.1,86.4z"/><path d="M9.4,87.1c0.1,0.1,0.3,0.2,0.5,0.2s0.4-0.1,0.5-0.2c0.3-0.3,0.3-0.8,0-1l-1.5-1.5c-0.3-0.3-0.8-0.3-1,0   c-0.3,0.3-0.3,0.8,0,1L9.4,87.1z"/><path d="M12.7,90.4l1.5,1.5c0.1,0.1,0.3,0.2,0.5,0.2s0.4-0.1,0.5-0.2c0.3-0.3,0.3-0.8,0-1l-1.5-1.5c-0.3-0.3-0.8-0.3-1,0   C12.4,89.6,12.4,90.1,12.7,90.4z"/><path d="M7.9,91.9C8,92,8.2,92.1,8.4,92.1s0.4-0.1,0.5-0.2l1.5-1.5c0.3-0.3,0.3-0.8,0-1c-0.3-0.3-0.8-0.3-1,0l-1.5,1.5   C7.6,91.1,7.6,91.6,7.9,91.9z"/><path d="M13.2,87.3c0.2,0,0.4-0.1,0.5-0.2l1.5-1.5c0.3-0.3,0.3-0.8,0-1c-0.3-0.3-0.8-0.3-1,0L12.7,86c-0.3,0.3-0.3,0.8,0,1   C12.8,87.2,13,87.3,13.2,87.3z"/><path d="M96.9,5.7c3.1-2.2,6.8-3.1,10.5-2.5s7,2.6,9.2,5.7c4.5,6.3,3.1,15.1-3.2,19.6c-0.3,0.2-0.4,0.7-0.2,1   c0.1,0.2,0.4,0.3,0.6,0.3c0.1,0,0.3,0,0.4-0.1c7-5,8.6-14.7,3.6-21.7c-2.4-3.4-6-5.6-10.1-6.3S99.5,2,96.1,4.4   c-0.3,0.2-0.4,0.7-0.2,1C96.1,5.9,96.6,5.9,96.9,5.7z"/><path d="M111.1,26.2c0.1,0,0.3,0,0.4-0.1c2.4-1.7,4-4.2,4.4-7.1c0.5-2.9-0.2-5.8-1.9-8.2c-1.7-2.4-4.2-4-7.1-4.4   c-2.9-0.5-5.8,0.2-8.2,1.9c-0.3,0.2-0.4,0.7-0.2,1c0.2,0.3,0.7,0.4,1,0.2c2.1-1.5,4.6-2.1,7.1-1.7c2.5,0.4,4.7,1.8,6.2,3.8   c1.5,2.1,2.1,4.6,1.7,7.1s-1.8,4.7-3.8,6.2c-0.3,0.2-0.4,0.7-0.2,1C110.7,26.1,110.9,26.2,111.1,26.2z"/><path d="M108,21.2c-0.3,0.2-0.4,0.7-0.2,1c0.1,0.2,0.4,0.3,0.6,0.3c0.1,0,0.3,0,0.4-0.1c1.4-1,2.3-2.5,2.6-4.2   c0.3-1.7-0.1-3.4-1.1-4.8c-2.1-2.9-6.1-3.5-9-1.5c-0.3,0.2-0.4,0.7-0.2,1c0.2,0.3,0.7,0.4,1,0.2c2.2-1.6,5.3-1.1,6.9,1.1   c0.8,1.1,1.1,2.4,0.9,3.7C109.8,19.2,109.1,20.4,108,21.2z"/><path d="M104.7,55.9c2,2.9,5.1,4.9,8.5,5.7c1.1,0.3,2.2,0.4,3.3,0.4c2.1,0,4.3-0.5,6.2-1.4l0,0l0.6-0.3l0,0l0,0l0.7-0.4l0,0   c0.3-0.2,0.6-0.4,0.8-0.5c0.8-0.6,1.4-1.5,1.5-2.5c0.2-1-0.1-2-0.6-2.8l-5.2-7.4c-0.6-0.8-1.3-1.3-2.1-1.5   c-1.2-0.2-2.6,0.2-4.1,1.3c-0.1,0.1-0.2,0.1-0.3,0.2l0,0c-0.3,0.1-0.5,0.1-0.8,0.1s-0.5-0.1-0.8-0.3c0,0-0.2-0.2-0.4-0.4   c-0.2-0.3-0.4-0.5-0.5-0.6L102.6,33c-0.4-0.5-0.6-1.1-0.6-1.6c0-0.4,0.1-0.9,0.3-1.2l0,0c0.1-0.1,0.1-0.2,0.2-0.2l1-0.7   c1.7-1.2,2.1-3.6,0.9-5.3l-5.2-7.4c-0.6-0.8-1.5-1.4-2.5-1.5c-1-0.2-2,0.1-2.8,0.6c-0.3,0.2-0.5,0.4-0.8,0.6l0,0l-0.6,0.6l0,0   L92,17.3l0,0c-2.3,2.3-3.8,5.3-4.1,8.6c-0.4,3.5,0.5,7,2.6,9.9L104.7,55.9z M118.1,46.7c0.5,0.1,0.9,0.4,1.2,0.9l5.2,7.4   c0.4,0.5,0.5,1.1,0.4,1.7c-0.1,0.6-0.4,1.2-1,1.5c-0.3,0.2-0.6,0.4-0.8,0.5l-2.6-3.6l-5.3-7.5C116.3,46.8,117.3,46.5,118.1,46.7z    M94.7,16.9c0.5-0.4,1.1-0.5,1.7-0.4s1.2,0.4,1.5,0.9l5.2,7.4c0.7,1,0.5,2.5-0.6,3.2l-0.8,0.6L99.2,25l-5.3-7.5   C94.1,17.3,94.4,17.1,94.7,16.9z M89.3,26c0.3-2.8,1.5-5.5,3.5-7.5l8,11.2c-0.2,0.5-0.4,1-0.3,1.6c0,0.9,0.3,1.7,0.9,2.5l8.8,12.5   c0.2,0.3,0.5,0.7,0.6,0.8c0.3,0.4,0.6,0.6,0.7,0.7c0.4,0.3,0.9,0.5,1.4,0.5c0.3,0,0.6,0,0.9-0.1l3,4.2l4.9,7   c-2.6,1.2-5.5,1.5-8.3,0.8c-3.1-0.7-5.8-2.5-7.6-5.1L91.6,35C89.7,32.4,88.9,29.2,89.3,26z"/><path d="M83.1,111.2H64.5c-0.4,0-0.7,0.3-0.7,0.7c0,0.4,0.3,0.7,0.7,0.7h18.6c0.4,0,0.7-0.3,0.7-0.7   C83.8,111.6,83.5,111.2,83.1,111.2z"/><path d="M94,112.9c-3-9.6-11.9-15.1-23.1-14.2l-1.6,0.1c-1.6,0.1-3,0.2-4.7,0.3c-0.8-1.5-3.5-7.9-0.1-17c0.3-0.3,0.5-0.6,0.8-0.8   h15c0.1,0,0.2,0,0.3-0.1c0,0,0,0,0.1,0s0.1-0.1,0.1-0.1s0,0,0.1-0.1c0,0,0.1-0.1,0.1-0.2c0,0,0,0,0-0.1l0,0l1.7-4.6   c1.8-0.3,3.5-1,5-2c2.7-1.8,4.4-4.6,5-7.8c0.6-3.2-0.1-6.4-2-9.1c-1.7-2.5-4.2-4.2-7.1-4.9c0.2-1.3,0.3-2.6,0.3-4   C83.9,28.9,68,13,48.5,13S13.2,28.9,13.2,48.4c0,1.4,0.1,2.7,0.3,4c-2.9,0.7-5.4,2.4-7.1,4.9c-1.8,2.7-2.5,5.9-2,9.1   c0.6,3.2,2.4,6,5,7.8c2,1.4,4.4,2.2,6.9,2.2c0.7,0,1.5-0.1,2.2-0.2c0.4-0.1,0.7-0.5,0.6-0.9l-4-22.2V53c-0.2-1.4-0.3-2.9-0.3-4.5   c0-18.7,15.2-33.9,33.9-33.9s33.9,15.2,33.9,33.9c0,1.5-0.1,3-0.3,4.4V53L78,75.2c-0.1,0.4,0.2,0.8,0.6,0.9   c0.7,0.1,1.5,0.2,2.2,0.2c0.1,0,0.2,0,0.3,0l-1.3,3.4H66.5c2.1-2.8,3.8-6,5.1-9.7c0.1,0,0.2,0,0.3,0c2.6,0,4.6-4,4.6-9.3   c0-4.5-1.5-8.1-3.6-9v-0.4c0.4-3,0.8-6,0.9-9.1c0.9-13.6-2.9-14.8-9.2-16.7c-0.5-0.2-1.1-0.3-1.6-0.5c-5.4-1.7-11-2.1-14.7-2.1   c-5.3,0-10.4,0.8-14.7,2.1c-0.6,0.2-1.1,0.3-1.6,0.5c-6.3,1.9-10,3.1-9.2,16.7c0.2,3,0.6,6.1,0.9,9.1l0.1,0.4   c-2.1,0.9-3.6,4.6-3.6,9c0,5.3,2,9.3,4.6,9.3c0.1,0,0.2,0,0.3,0c1.6,4.7,4,8.7,6.9,11.9c3.3,9,0.6,15.6-0.2,17.1   c-1.6-0.1-3-0.2-4.6-0.3l-1.5-0.1C14.8,97.8,6,103.2,3,112.9c-0.8,2.4-1.5,4.8-2.3,7.2c-0.5,1.5-0.2,3.1,0.8,4.3   c0.9,1.3,2.4,2,3.9,2h86.2c1.6,0,3-0.7,3.9-2s1.2-2.8,0.8-4.3C95.5,117.6,94.8,115.2,94,112.9z M10.2,72.9c-2.3-1.6-3.9-4-4.4-6.8   c-1-5.5,2.5-10.9,7.9-12.2l3.8,20.9C14.8,75,12.3,74.4,10.2,72.9z M79.6,74.7l3.8-20.9c5.4,1.4,8.9,6.7,7.9,12.2   c-0.5,2.8-2.1,5.2-4.4,6.8C84.7,74.4,82.1,75,79.6,74.7z M32.6,26.9c0.5-0.2,1.1-0.3,1.6-0.5c4.1-1.3,9.1-2,14.2-2.1   c5.2,0,10.1,0.7,14.2,2.1c0.6,0.2,1.1,0.3,1.6,0.5c6,1.8,8.9,2.8,8.1,15.2c-0.1,1.8-0.3,3.6-0.5,5.3c-0.9-3.2-2.6-6.8-5.5-7.2   c-4.4-0.5-16.4-0.4-16.9-0.4c-0.1,0-5.1,0.4-10.7-5c-0.2-0.1-0.4-0.2-0.6-0.2c-0.2,0-0.4,0.1-0.5,0.3c-0.8,1.1-1.7,3.5-0.4,5.7   c-2.9-0.5-7.5-1-9.3,1.1c-1.2,1.4-2.3,4.2-3,6.5c-0.2-2-0.5-4.1-0.6-6.1C23.7,29.7,26.7,28.7,32.6,26.9z M26.2,68.5   c-0.1,0-0.2-0.1-0.3-0.1c-0.1,0-0.2,0-0.3,0.1c-0.2,0.1-0.3,0.1-0.5,0.1c-1.5,0-3.2-3.2-3.2-7.8c0-4.1,1.3-7.1,2.7-7.7h0.1   c0.3,0,0.6-0.2,0.7-0.6c0-0.1,1.7-7.4,3.8-9.8c1.4-1.6,6.9-0.9,10-0.1c0.3,0.1,0.7-0.1,0.8-0.4c0.2-0.3,0.1-0.7-0.2-0.9   c-2.2-1.7-1.8-3.7-1.3-4.8c5.8,5.2,11,4.8,11.1,4.8c0.1,0,12.3-0.1,16.7,0.4c3.2,0.4,4.8,7.8,5.2,10.7c0.1,0.4,0.4,0.7,0.8,0.6l0,0   c1.3,0.6,2.7,3.5,2.7,7.7c0,4.6-1.7,7.8-3.2,7.8c-0.2,0-0.3,0-0.5-0.1s-0.4-0.1-0.6,0s-0.3,0.3-0.4,0.4C69,73,67,76.7,64.5,79.6   h-10c-0.2-1.1-1.2-1.8-2.3-1.8h-7.3c-1.3,0-2.4,1.1-2.4,2.4v0.4c0,1.3,1.1,2.4,2.4,2.4h7.3c1.1,0,2.1-0.8,2.3-1.8h8.9   c-4.1,4.2-9.3,6.6-14.8,6.6c-5.6,0-10.8-2.4-14.9-6.7c0,0,0,0,0-0.1c-0.1-0.2-0.2-0.3-0.4-0.4c-2.9-3.1-5.1-7.1-6.6-11.7   C26.5,68.7,26.4,68.5,26.2,68.5z M53,80.6c0,0.5-0.4,0.9-0.9,0.9h-7.3c-0.5,0-0.9-0.4-0.9-0.9v-0.4c0-0.5,0.4-0.9,0.9-0.9h7.3   c0.5,0,0.9,0.4,0.9,0.9V80.6z M34.5,84c4,3.4,8.8,5.3,14,5.3c5.1,0,9.8-1.9,13.8-5.2c-2.5,9.2,0.7,15.1,1.2,15.9   c0.1,0.2,0.2,0.3,0.3,0.4c-2.3,3.7-4.9,7.1-7.7,10.1l-2.1-8.7l2.7-4.6c0.1-0.2,0.1-0.5,0-0.7s-0.4-0.4-0.6-0.4H40.9   c-0.3,0-0.5,0.1-0.6,0.4c-0.1,0.2-0.1,0.5,0,0.7l2.8,4.7l-2.1,8.7c-2.4-2.6-5.2-6-7.8-10.3c0.1-0.1,0.1-0.2,0.2-0.3   C33.7,99.4,37,93.2,34.5,84z M48.5,117.1c-0.9-0.6-3.4-2.3-6.5-5.4c0.1-0.1,0.2-0.2,0.2-0.4l2.2-8.9h8.3l2.2,8.9   c0,0.1,0.1,0.2,0.2,0.3l0,0C51.9,114.8,49.4,116.5,48.5,117.1z M52.8,101h-8.7l-2-3.4h12.7L52.8,101z M94.3,123.6   c-0.7,0.9-1.7,1.4-2.8,1.4H5.4c-1.1,0-2.1-0.5-2.8-1.4s-0.8-2-0.5-3c0.7-2.5,1.5-4.9,2.2-7.2c2.8-9,11.1-14,21.6-13.2l1.5,0.1   c1.4,0.1,2.6,0.2,4,0.2c7.7,13,16.3,18,16.7,18.2c0.1,0.1,0.2,0.1,0.4,0.1l0,0l0,0c0.1,0,0.2,0,0.3-0.1l0,0   c0.1-0.1,3.1-1.8,7.2-5.9c3.5-3.5,6.7-7.6,9.5-12.3c1.4-0.1,2.6-0.2,3.9-0.2l1.6-0.1c10.5-0.8,18.8,4.2,21.6,13.2   c0.7,2.4,1.5,4.8,2.2,7.2C95.2,121.6,95,122.7,94.3,123.6z"/><path d="M110,85.6c-1.4,0.6-2.4,1.8-2.9,3.2c-0.5,1.4-0.4,2.9,0.2,4.3s1.8,2.4,3.2,2.9c0.6,0.2,1.2,0.3,1.9,0.3   c0.8,0,1.7-0.2,2.4-0.6c2.8-1.3,4-4.7,2.6-7.5C116.2,85.5,112.8,84.3,110,85.6z M116.4,92.1c-0.4,1-1.1,1.9-2.1,2.4   s-2.1,0.5-3.2,0.2c-1-0.4-1.9-1.1-2.4-2.1s-0.5-2.1-0.2-3.2c0.4-1,1.1-1.9,2.1-2.4c0.6-0.3,1.2-0.4,1.8-0.4c1.6,0,3,0.9,3.8,2.4   C116.7,89.9,116.7,91,116.4,92.1z"/><path d="M127,86.9c-0.1-0.2-0.2-0.4-0.4-0.5c-0.2-0.1-0.4-0.1-0.6,0l-0.9,0.4c-0.3,0.1-0.6,0.1-0.9,0s-0.5-0.3-0.6-0.6   c-0.2-0.6,0-1.3,0.6-1.5l0.9-0.4c0.2-0.1,0.3-0.2,0.4-0.4c0.1-0.2,0-0.4-0.1-0.6c-1.3-2.3-3.2-4.2-5.4-5.5   c-0.2-0.1-0.4-0.1-0.6-0.1c-0.2,0.1-0.4,0.2-0.4,0.4l-0.4,0.9c-0.3,0.6-0.9,0.9-1.5,0.6s-0.9-0.9-0.6-1.5l0.4-0.9   c0.1-0.2,0.1-0.4,0-0.6s-0.3-0.3-0.5-0.4c-2.5-0.7-5.2-0.7-7.7,0c-0.2,0.1-0.4,0.2-0.5,0.4c-0.1,0.2-0.1,0.4,0,0.6l0.4,0.9   c0.1,0.3,0.1,0.6,0,0.9s-0.3,0.5-0.6,0.6c-0.3,0.1-0.6,0.1-0.9,0s-0.5-0.3-0.6-0.6l-0.5-1c-0.1-0.2-0.2-0.3-0.4-0.4   c-0.2-0.1-0.4,0-0.6,0.1c-2.3,1.3-4.2,3.2-5.5,5.4c-0.1,0.2-0.1,0.4-0.1,0.6c0.1,0.2,0.2,0.4,0.4,0.4l0.9,0.4   c0.6,0.3,0.9,0.9,0.6,1.5s-0.9,0.9-1.5,0.6l-0.9-0.4c-0.2-0.1-0.4-0.1-0.6,0s-0.3,0.3-0.4,0.5c-0.7,2.5-0.7,5.2,0,7.7   c0.1,0.2,0.2,0.4,0.4,0.5c0.2,0.1,0.4,0.1,0.6,0l0.9-0.4c0.6-0.2,1.3,0,1.5,0.6c0.1,0.3,0.1,0.6,0,0.9s-0.3,0.5-0.6,0.6L99.8,97   c-0.2,0.1-0.3,0.2-0.4,0.4c-0.1,0.2,0,0.4,0.1,0.6c1.3,2.3,3.2,4.2,5.4,5.5c0.2,0.1,0.4,0.1,0.6,0.1c0.2-0.1,0.4-0.2,0.4-0.4   l0.4-0.9c0.3-0.6,0.9-0.9,1.5-0.6s0.9,0.9,0.6,1.5l-0.4,0.9c-0.1,0.2-0.1,0.4,0,0.6s0.3,0.3,0.5,0.4c1.3,0.4,2.6,0.5,4,0.5   c1.3,0,2.5-0.2,3.8-0.5c0.2-0.1,0.4-0.2,0.5-0.4c0.1-0.2,0.1-0.4,0-0.6l-0.4-0.9c-0.2-0.6,0-1.3,0.6-1.5s1.3,0,1.5,0.6l0.4,0.9   c0.1,0.2,0.2,0.3,0.4,0.4c0.2,0.1,0.4,0,0.6-0.1c2.3-1.3,4.2-3.2,5.5-5.4c0.1-0.2,0.1-0.4,0.1-0.6c-0.1-0.2-0.2-0.4-0.4-0.4   l-0.9-0.4c-0.6-0.3-0.9-0.9-0.6-1.5s0.9-0.9,1.5-0.6L126,95c0.2,0.1,0.4,0.1,0.6,0s0.3-0.3,0.4-0.5C127.7,92.1,127.7,89.4,127,86.9   z M125.7,93.4L125.7,93.4c-1.4-0.6-3,0.1-3.6,1.4s0.1,2.9,1.4,3.5h0.1c-1,1.5-2.3,2.8-3.8,3.7v-0.1c-0.5-1.3-2.1-2-3.4-1.5   s-2,2.1-1.4,3.4v0.1c-1.8,0.3-3.6,0.3-5.3,0v-0.1c0.6-1.3-0.1-2.9-1.4-3.5s-2.9,0.1-3.5,1.4v0.1c-1.5-1-2.8-2.3-3.7-3.8h0.1   c0.7-0.3,1.2-0.8,1.4-1.4c0.3-0.6,0.3-1.4,0-2c-0.5-1.3-2.1-2-3.4-1.4h-0.1c-0.3-1.8-0.3-3.6,0-5.3h0.1c1.3,0.6,2.9-0.1,3.5-1.4   s-0.1-2.9-1.4-3.5h-0.1c1-1.5,2.3-2.8,3.8-3.7v0.1c0.3,0.7,0.8,1.2,1.4,1.4c0.6,0.3,1.4,0.3,2,0c0.7-0.3,1.2-0.8,1.4-1.4   c0.3-0.6,0.3-1.4,0-2v-0.1c1.8-0.3,3.6-0.3,5.3,0v0.1c-0.6,1.3,0.1,2.9,1.4,3.5s2.9-0.1,3.5-1.4v-0.1c1.5,1,2.8,2.3,3.7,3.8h-0.1   c-1.3,0.5-2,2.1-1.4,3.4c0.3,0.7,0.8,1.2,1.4,1.4c0.6,0.3,1.4,0.3,2,0h0.1C126.1,89.9,126.1,91.7,125.7,93.4z"/></g></svg>