<svg xmlns="http://www.w3.org/2000/svg" xmlns:xlink="http://www.w3.org/1999/xlink" version="1.1" x="0px" y="0px" fill="#FF9D5F" viewBox="0 0 128 160" enable-background="new 0 0 128 128" xml:space="preserve"><g><path d="M105.8,55.7c0.1,0.4,0.5,0.6,0.9,0.5c3.2-0.9,6.5-0.5,9.4,1.1c2.9,1.6,5,4.3,5.9,7.4c0.9,3.2,0.5,6.5-1.1,9.4   c-1.6,2.9-4.3,5-7.4,5.9c-0.4,0.1-0.6,0.5-0.5,0.9c0.1,0.3,0.4,0.5,0.7,0.5c0.1,0,0.1,0,0.2,0c3.6-1,6.5-3.4,8.3-6.6   c1.8-3.2,2.2-7,1.2-10.6c-1-3.6-3.4-6.5-6.6-8.3c-3.2-1.8-7-2.2-10.6-1.2C106,54.9,105.7,55.3,105.8,55.7z"/><path d="M112.2,75.5c-0.4,0.1-0.6,0.6-0.4,1c0.1,0.3,0.4,0.5,0.7,0.5c0.1,0,0.2,0,0.3,0c2.1-0.8,3.8-2.2,4.8-4.2   c1.2-2.1,1.5-4.6,0.8-7c-1.3-4.6-6-7.5-10.7-6.5c-0.4,0.1-0.7,0.5-0.6,0.9c0.1,0.4,0.5,0.7,0.9,0.6c3.9-0.8,7.8,1.6,8.9,5.4   c0.6,2,0.3,4-0.7,5.8C115.4,73.7,113.9,74.9,112.2,75.5z"/><path d="M23.2,42.1c0.8,0.6,1.2,1.5,1.2,2.4c0,0.4,0.3,0.8,0.8,0.8c0.4,0,0.8-0.3,0.8-0.8c0-1.3-0.6-2.6-1.7-3.5   c-0.9-0.8-2-1.2-3.2-1.4v-2.3c0-0.4-0.3-0.8-0.8-0.8c-0.4,0-0.8,0.3-0.8,0.8v2.3c-1.2,0.1-2.3,0.6-3.2,1.4   c-1.1,0.9-1.7,2.2-1.7,3.5c0,1.3,0.6,2.6,1.7,3.5c0.9,0.8,2,1.2,3.2,1.4v6.9c-0.8-0.1-1.6-0.5-2.2-1c-0.8-0.7-1.2-1.5-1.2-2.4   c0-0.4-0.3-0.8-0.8-0.8c-0.4,0-0.8,0.3-0.8,0.8c0,1.3,0.6,2.6,1.7,3.5c0.9,0.8,2,1.2,3.2,1.4v2.3c0,0.4,0.3,0.8,0.8,0.8   c0.4,0,0.8-0.3,0.8-0.8v-2.3c1.2-0.1,2.3-0.6,3.2-1.4c1.1-0.9,1.7-2.2,1.7-3.5c0-1.3-0.6-2.6-1.7-3.5c-0.9-0.8-2-1.2-3.2-1.4v-6.9   C21.8,41.3,22.6,41.6,23.2,42.1z M17.3,47c-0.8-0.6-1.2-1.5-1.2-2.4c0-0.9,0.4-1.8,1.2-2.4c0.6-0.5,1.4-0.8,2.2-1v6.7   C18.6,47.8,17.9,47.5,17.3,47z M23.2,50.6c0.8,0.6,1.2,1.5,1.2,2.4c0,0.9-0.4,1.8-1.2,2.4c-0.6,0.5-1.4,0.9-2.2,1v-6.8   C21.8,49.7,22.6,50,23.2,50.6z"/><path d="M119.3,39.7c0.4,0,0.8-0.3,0.8-0.8V23.9c0-0.4-0.3-0.8-0.8-0.8c-0.4,0-0.8,0.3-0.8,0.8v15.1   C118.5,39.4,118.9,39.7,119.3,39.7z"/><path d="M115.9,44.1c0.4,0,0.8-0.3,0.8-0.8v-4.9c0-0.4-0.3-0.8-0.8-0.8c-0.4,0-0.8,0.3-0.8,0.8v4.9   C115.1,43.8,115.4,44.1,115.9,44.1z"/><path d="M8.3,79.5c-0.4,0-0.8,0.3-0.8,0.8v15.1c0,0.4,0.3,0.8,0.8,0.8C8.7,96,9,95.7,9,95.3V80.2C9,79.8,8.7,79.5,8.3,79.5z"/><path d="M8.3,99.5c-0.4,0-0.8,0.3-0.8,0.8v4.9c0,0.4,0.3,0.8,0.8,0.8c0.4,0,0.8-0.3,0.8-0.8v-4.9C9,99.8,8.7,99.5,8.3,99.5z"/><path d="M105.1,4.4c0.1,0.1,0.3,0.2,0.5,0.2c0.2,0,0.4-0.1,0.5-0.2c0.3-0.3,0.3-0.8,0-1.1l-2-2c-0.3-0.3-0.8-0.3-1.1,0   c-0.3,0.3-0.3,0.8,0,1.1L105.1,4.4z"/><path d="M111.7,11c0.1,0.1,0.3,0.2,0.5,0.2c0.2,0,0.4-0.1,0.5-0.2c0.3-0.3,0.3-0.8,0-1.1l-2-2c-0.3-0.3-0.8-0.3-1.1,0   c-0.3,0.3-0.3,0.8,0,1.1L111.7,11z"/><path d="M103.5,11.2c0.2,0,0.4-0.1,0.5-0.2l2-2c0.3-0.3,0.3-0.8,0-1.1c-0.3-0.3-0.8-0.3-1.1,0l-2,2c-0.3,0.3-0.3,0.8,0,1.1   C103.2,11.1,103.4,11.2,103.5,11.2z"/><path d="M110.2,4.6c0.2,0,0.4-0.1,0.5-0.2l2-2c0.3-0.3,0.3-0.8,0-1.1c-0.3-0.3-0.8-0.3-1.1,0l-2,2c-0.3,0.3-0.3,0.8,0,1.1   C109.8,4.5,110,4.6,110.2,4.6z"/><path d="M116.2,93.5c0.1,0.1,0.3,0.2,0.5,0.2c0.2,0,0.4-0.1,0.5-0.2c0.3-0.3,0.3-0.8,0-1.1l-2-2c-0.3-0.3-0.8-0.3-1.1,0   c-0.3,0.3-0.3,0.8,0,1.1L116.2,93.5z"/><path d="M123.4,100.3c0.2,0,0.4-0.1,0.5-0.2c0.3-0.3,0.3-0.8,0-1.1l-2-2c-0.3-0.3-0.8-0.3-1.1,0c-0.3,0.3-0.3,0.8,0,1.1l2,2   C123,100.3,123.2,100.3,123.4,100.3z"/><path d="M114.2,100.1c0.1,0.1,0.3,0.2,0.5,0.2c0.2,0,0.4-0.1,0.5-0.2l2-2c0.3-0.3,0.3-0.8,0-1.1c-0.3-0.3-0.8-0.3-1.1,0l-2,2   C113.9,99.4,113.9,99.8,114.2,100.1z"/><path d="M122.8,90.4l-2,2c-0.3,0.3-0.3,0.8,0,1.1c0.1,0.1,0.3,0.2,0.5,0.2c0.2,0,0.4-0.1,0.5-0.2l2-2c0.3-0.3,0.3-0.8,0-1.1   C123.6,90.1,123.1,90.1,122.8,90.4z"/><path d="M16.5,116.5c-0.3-0.3-0.8-0.3-1.1,0c-0.3,0.3-0.3,0.8,0,1.1l2,2c0.1,0.1,0.3,0.2,0.5,0.2c0.2,0,0.4-0.1,0.5-0.2   c0.3-0.3,0.3-0.8,0-1.1L16.5,116.5z"/><path d="M23.1,123.1c-0.3-0.3-0.8-0.3-1.1,0c-0.3,0.3-0.3,0.8,0,1.1l2,2c0.1,0.1,0.3,0.2,0.5,0.2c0.2,0,0.4-0.1,0.5-0.2   c0.3-0.3,0.3-0.8,0-1.1L23.1,123.1z"/><path d="M17.5,123.1l-2,2c-0.3,0.3-0.3,0.8,0,1.1c0.1,0.1,0.3,0.2,0.5,0.2c0.2,0,0.4-0.1,0.5-0.2l2-2c0.3-0.3,0.3-0.8,0-1.1   C18.3,122.9,17.8,122.9,17.5,123.1z"/><path d="M24.1,116.5l-2,2c-0.3,0.3-0.3,0.8,0,1.1c0.1,0.1,0.3,0.2,0.5,0.2c0.2,0,0.4-0.1,0.5-0.2l2-2c0.3-0.3,0.3-0.8,0-1.1   C24.9,116.2,24.4,116.2,24.1,116.5z"/><path d="M72.7,9.7c2.5,0,4.6-2.1,4.6-4.6c0-2.5-2.1-4.6-4.6-4.6c-2.5,0-4.6,2.1-4.6,4.6C68.1,7.7,70.2,9.7,72.7,9.7z M72.7,2   c1.7,0,3.1,1.4,3.1,3.1c0,1.7-1.4,3.1-3.1,3.1c-1.7,0-3.1-1.4-3.1-3.1C69.6,3.4,71,2,72.7,2z"/><path d="M24.3,80c-2.5,0-4.6,2.1-4.6,4.6c0,2.5,2.1,4.6,4.6,4.6c2.5,0,4.6-2.1,4.6-4.6C28.9,82.1,26.9,80,24.3,80z M24.3,87.8   c-1.7,0-3.1-1.4-3.1-3.1s1.4-3.1,3.1-3.1c1.7,0,3.1,1.4,3.1,3.1S26.1,87.8,24.3,87.8z"/><path d="M14.1,6.7H32c0.4,0,0.8-0.3,0.8-0.8S32.4,5.1,32,5.1H14.1c-0.4,0-0.8,0.3-0.8,0.8S13.7,6.7,14.1,6.7z"/><path d="M2.5,6.7h5.8C8.7,6.7,9,6.3,9,5.9S8.7,5.1,8.3,5.1H2.5c-0.4,0-0.8,0.3-0.8,0.8S2.1,6.7,2.5,6.7z"/><path d="M14.9,12.8c0.4,0,0.8-0.3,0.8-0.8s-0.3-0.8-0.8-0.8H2.5c-0.4,0-0.8,0.3-0.8,0.8s0.3,0.8,0.8,0.8H14.9z"/><path d="M20.3,11.3c-0.4,0-0.8,0.3-0.8,0.8s0.3,0.8,0.8,0.8h4c0.4,0,0.8-0.3,0.8-0.8s-0.3-0.8-0.8-0.8H20.3z"/><path d="M113.9,126H96c-0.4,0-0.8,0.3-0.8,0.8c0,0.4,0.3,0.8,0.8,0.8h17.9c0.4,0,0.8-0.3,0.8-0.8C114.6,126.3,114.3,126,113.9,126z   "/><path d="M125.5,126h-5.8c-0.4,0-0.8,0.3-0.8,0.8c0,0.4,0.3,0.8,0.8,0.8h5.8c0.4,0,0.8-0.3,0.8-0.8C126.3,126.3,125.9,126,125.5,126   z"/><path d="M112.3,120.6c0,0.4,0.3,0.8,0.8,0.8h12.5c0.4,0,0.8-0.3,0.8-0.8c0-0.4-0.3-0.8-0.8-0.8h-12.5   C112.6,119.9,112.3,120.2,112.3,120.6z"/><path d="M103.7,119.9c-0.4,0-0.8,0.3-0.8,0.8c0,0.4,0.3,0.8,0.8,0.8h4c0.4,0,0.8-0.3,0.8-0.8c0-0.4-0.3-0.8-0.8-0.8H103.7z"/><path d="M97.8,115.4V79.6l11.1,2.3c0.3,0.1,0.5,0,0.7-0.2c0.2-0.2,0.2-0.5,0.2-0.7l-6.7-23.5c-0.1-0.3-0.3-0.5-0.5-0.5   c-0.3-0.1-0.5,0-0.7,0.2l-4.1,3.8v-8V29.6v-9.5c0-2.3-1.9-4.1-4.1-4.1H38.5c-2.3,0-4.1,1.9-4.1,4.1v9.5v7.8c-2-2.5-4.7-4.4-7.9-5.6   c-9.5-3.4-20,1.5-23.4,11c-3,8.4,0.4,17.6,8,22.1c0,0.6-0.5,2.3-1.2,4c-0.1,0.2-0.1,0.4,0,0.6c0.1,0.2,0.2,0.3,0.4,0.4   c0.1,0,0.2,0.1,0.4,0.1c0.7,0,1.6-0.5,3.5-1.6c0.8-0.5,2.1-1.2,2.5-1.3c6.7,1.4,13.5-1.2,17.7-6.3v54.8c0,2.3,1.9,4.1,4.1,4.1h55.2   C96,119.6,97.8,117.7,97.8,115.4z M102,59.1l6,21.1l-15.8-3.2c-0.1,0-0.2,0-0.4,0L74.1,82c-1.8,0.5-3.7-0.5-4.3-2.4   c-0.3-0.9-0.1-1.8,0.3-2.6c0.5-0.8,1.2-1.4,2.1-1.6L90,70.3c0.1,0,0.2-0.1,0.3-0.2L102,59.1z M81.9,81.4c0.1,0.5-0.1,0.8-0.5,1.3   c-0.5,0.6-1.1,1.5-0.7,2.7c0.3,1.2,1.3,1.6,2,1.9c0.6,0.3,1,0.4,1.1,0.9c0.1,0.5-0.1,0.8-0.5,1.3c-0.5,0.6-1.1,1.5-0.7,2.7   c0.3,1.2,1.3,1.6,2,1.9c0.6,0.3,1,0.4,1.1,0.9c0.3,0.9-0.2,1.9-1,2.1c-0.1,0-0.1,0.1-0.2,0.1c-0.1,0-0.1,0-0.2,0l-1.8,0.5   c-0.6,0.2-1.2-0.2-1.4-0.8l-4-14.1L81.9,81.4C81.9,81.4,81.9,81.4,81.9,81.4z M38.5,17.4h55.2c1.4,0,2.6,1.2,2.6,2.6v8.7H35.9v-8.7   C35.9,18.6,37.1,17.4,38.5,17.4z M16.9,65.5c-0.6-0.1-1.4,0.3-3.5,1.5c-0.4,0.3-1,0.6-1.5,0.9c1.3-3.5,0.4-4,0.1-4.2   C4.9,59.6,1.7,51,4.5,43.3c2.5-6.9,8.9-11.1,15.8-11.1c1.9,0,3.8,0.3,5.7,1c8.7,3.1,13.3,12.8,10.1,21.5   C33.3,62.5,25.1,67.1,16.9,65.5z M37.5,55.2c2-5.4,1.2-11.2-1.6-15.8v-0.3v-8.8h60.4V53v9.4l-7,6.6l-17.6,5c-1.3,0.4-2.3,1.2-3,2.4   c-0.6,1.2-0.8,2.5-0.4,3.8c0.6,2.2,2.6,3.6,4.8,3.6c0.5,0,0.9-0.1,1.4-0.2l1.3-0.4l4,14.1c0.3,1.2,1.4,1.9,2.5,1.9   c0.2,0,0.5,0,0.7-0.1l1.8-0.5c0,0,0.1,0,0.1-0.1c0.1,0,0.1,0,0.2,0c1.6-0.5,2.5-2.2,2-4c-0.3-1.2-1.3-1.6-2-1.9   c-0.6-0.3-1-0.4-1.1-0.9c-0.1-0.5,0.1-0.8,0.5-1.3c0.4-0.6,1.1-1.5,0.7-2.7c-0.3-1.2-1.3-1.6-2-1.9c-0.6-0.3-1-0.4-1.1-0.9   c-0.1-0.5,0.1-0.8,0.5-1.3c0.5-0.6,1.1-1.5,0.7-2.6c0,0,0,0,0,0l8.8-2.5l4.2,0.9v25.9H35.9V58.5C36.6,57.5,37.1,56.4,37.5,55.2z    M93.7,118.1H38.5c-1.4,0-2.6-1.2-2.6-2.6v-8.7h60.4v8.7C96.3,116.9,95.2,118.1,93.7,118.1z"/><path d="M74.4,110H57.9c-1.2,0-2.2,1-2.2,2.2v0.5c0,1.2,1,2.2,2.2,2.2h16.5c1.2,0,2.2-1,2.2-2.2v-0.5C76.5,111,75.6,110,74.4,110z    M75,112.7c0,0.4-0.3,0.7-0.7,0.7H57.9c-0.4,0-0.7-0.3-0.7-0.7v-0.5c0-0.4,0.3-0.7,0.7-0.7h16.5c0.4,0,0.7,0.3,0.7,0.7V112.7z"/><path d="M59.7,23.7h12.8c0.4,0,0.8-0.3,0.8-0.8c0-0.4-0.3-0.8-0.8-0.8H59.7c-0.4,0-0.8,0.3-0.8,0.8C59,23.3,59.3,23.7,59.7,23.7z"/><path d="M40.4,47.6h13.2c0.4,0,0.8-0.3,0.8-0.8v-12c0-0.4-0.3-0.8-0.8-0.8H40.4c-0.4,0-0.8,0.3-0.8,0.8v12   C39.7,47.3,40,47.6,40.4,47.6z M41.2,35.6h11.7v10.5H41.2V35.6z"/><path d="M59.5,47.6h13.2c0.4,0,0.8-0.3,0.8-0.8v-12c0-0.4-0.3-0.8-0.8-0.8H59.5c-0.4,0-0.8,0.3-0.8,0.8v12   C58.8,47.3,59.1,47.6,59.5,47.6z M60.3,35.6H72v10.5H60.3V35.6z"/><path d="M78.6,47.6h13.2c0.4,0,0.8-0.3,0.8-0.8v-12c0-0.4-0.3-0.8-0.8-0.8H78.6c-0.4,0-0.8,0.3-0.8,0.8v12   C77.8,47.3,78.2,47.6,78.6,47.6z M79.3,35.6H91v10.5H79.3V35.6z"/><path d="M40.4,65.6h13.2c0.4,0,0.8-0.3,0.8-0.8v-12c0-0.4-0.3-0.8-0.8-0.8H40.4c-0.4,0-0.8,0.3-0.8,0.8v12   C39.7,65.2,40,65.6,40.4,65.6z M41.2,53.5h11.7v10.5H41.2V53.5z"/><path d="M59.5,65.6h13.2c0.4,0,0.8-0.3,0.8-0.8v-12c0-0.4-0.3-0.8-0.8-0.8H59.5c-0.4,0-0.8,0.3-0.8,0.8v12   C58.8,65.2,59.1,65.6,59.5,65.6z M60.3,53.5H72v10.5H60.3V53.5z"/></g></svg>