<svg xmlns="http://www.w3.org/2000/svg" xmlns:xlink="http://www.w3.org/1999/xlink" version="1.1" x="0px" y="0px" viewBox="0 0 128 160" enable-background="new 0 0 128 128" xml:space="preserve" fill="#FF9D5F"><g><path d="M122.5,30.2H110c-0.4,0-0.8,0.3-0.8,0.8v95.8c0,0.4,0.3,0.8,0.8,0.8h12.5c0.4,0,0.8-0.3,0.8-0.8V30.9   C123.3,30.5,122.9,30.2,122.5,30.2z M110.7,126V31.7h11v6.4h-5.4c-0.4,0-0.8,0.3-0.8,0.8c0,0.4,0.3,0.8,0.8,0.8h5.4V46h-3.8   c-0.4,0-0.8,0.3-0.8,0.8s0.3,0.8,0.8,0.8h3.8v6.6h-5.4c-0.4,0-0.8,0.3-0.8,0.8c0,0.4,0.3,0.8,0.8,0.8h5.4V62h-3.8   c-0.4,0-0.8,0.3-0.8,0.8s0.3,0.8,0.8,0.8h3.8v6.6h-5.4c-0.4,0-0.8,0.3-0.8,0.8c0,0.4,0.3,0.8,0.8,0.8h5.4V78h-3.8   c-0.4,0-0.8,0.3-0.8,0.8c0,0.4,0.3,0.8,0.8,0.8h3.8v6.6h-5.4c-0.4,0-0.8,0.3-0.8,0.8c0,0.4,0.3,0.8,0.8,0.8h5.4v6.4h-3.8   c-0.4,0-0.8,0.3-0.8,0.8s0.3,0.8,0.8,0.8h3.8v6.6h-5.4c-0.4,0-0.8,0.3-0.8,0.8c0,0.4,0.3,0.8,0.8,0.8h5.4v6.4h-3.8   c-0.4,0-0.8,0.3-0.8,0.8c0,0.4,0.3,0.8,0.8,0.8h3.8v6.6h-5.4c-0.4,0-0.8,0.3-0.8,0.8c0,0.4,0.3,0.8,0.8,0.8h5.4v6.5H110.7z"/><path d="M93.4,41.8V97c0,2.9,2.4,5.3,5.3,5.3H99c2.9,0,5.3-2.4,5.3-5.3v-3.9c0,0,0,0,0,0s0,0,0,0v-5.3c0,0,0,0,0,0s0,0,0,0v-46   c0-0.1,0-0.1,0-0.2c0-0.2,0-0.3,0-0.5l-4.7-10.5c-0.2-0.5-1.1-0.5-1.4,0l-4.7,10.5c-0.1,0.2-0.1,0.3,0,0.5   C93.4,41.7,93.4,41.7,93.4,41.8z M94.9,88.5h7.8v3.8h-7.8V88.5z M102.8,87h-7.8V42.5h7.8V87z M99,100.7h-0.3   c-2.1,0-3.8-1.7-3.8-3.8v-3.1h7.8V97C102.8,99.1,101.1,100.7,99,100.7z M98.9,32.8l3.7,8.2h-7.3L98.9,32.8z"/><path d="M98.9,78.5c0.4,0,0.8-0.3,0.8-0.8v-4c0-0.4-0.3-0.8-0.8-0.8c-0.4,0-0.8,0.3-0.8,0.8v4C98.1,78.2,98.4,78.5,98.9,78.5z"/><path d="M98.9,68.5c0.4,0,0.8-0.3,0.8-0.8v-4c0-0.4-0.3-0.8-0.8-0.8c-0.4,0-0.8,0.3-0.8,0.8v4C98.1,68.1,98.4,68.5,98.9,68.5z"/><path d="M98.9,58.4c0.4,0,0.8-0.3,0.8-0.8v-4c0-0.4-0.3-0.8-0.8-0.8c-0.4,0-0.8,0.3-0.8,0.8v4C98.1,58.1,98.4,58.4,98.9,58.4z"/><path d="M21.9,50.2c0.1,0,0.2,0,0.2,0c0.3,0,0.6-0.2,0.7-0.5c0.1-0.4-0.1-0.8-0.5-1c-0.8-0.3-1.5-0.6-2.3-0.9c-0.4-0.2-0.8,0-1,0.4   c-0.2,0.4,0,0.8,0.4,1C20.3,49.6,21.1,49.9,21.9,50.2z"/><path d="M5.5,25.8c0.4,0,0.7-0.3,0.8-0.7c0.1-1.7,0.3-3.4,0.7-5c0.1-0.4-0.1-0.8-0.5-0.9C6,19,5.6,19.3,5.5,19.7   c-0.4,1.7-0.7,3.5-0.8,5.3C4.7,25.4,5,25.7,5.5,25.8C5.5,25.8,5.5,25.8,5.5,25.8z"/><path d="M16.2,6.4c0.1,0,0.3,0,0.4-0.1c1.4-1,2.9-1.8,4.4-2.4c0.4-0.2,0.6-0.6,0.4-1c-0.2-0.4-0.6-0.6-1-0.4   C18.8,3.1,17.2,4,15.8,5c-0.3,0.2-0.4,0.7-0.2,1C15.7,6.3,16,6.4,16.2,6.4z"/><path d="M7.6,36.9c0.1,0,0.2,0,0.3-0.1c0.4-0.2,0.5-0.6,0.4-1c-0.7-1.5-1.2-3.2-1.6-4.8c-0.1-0.4-0.5-0.7-0.9-0.6   c-0.4,0.1-0.7,0.5-0.6,0.9c0.4,1.7,0.9,3.5,1.7,5.1C7.1,36.8,7.3,36.9,7.6,36.9z"/><path d="M8.2,14.7c0.1,0.1,0.2,0.1,0.4,0.1c0.3,0,0.5-0.1,0.7-0.4c0.8-1.5,1.8-2.9,2.9-4.1c0.3-0.3,0.2-0.8-0.1-1.1   C11.7,8.9,11.2,9,11,9.3c-1.2,1.4-2.2,2.8-3.1,4.4C7.7,14.1,7.8,14.5,8.2,14.7z"/><path d="M26.8,2.2c0,0,0.1,0,0.1,0c1.7-0.2,3.4-0.3,5-0.2c0.4,0,0.8-0.3,0.8-0.7c0-0.4-0.3-0.8-0.7-0.8c-1.8-0.1-3.6-0.1-5.4,0.2   C26.3,0.8,26,1.2,26,1.6C26.1,2,26.4,2.2,26.8,2.2z"/><path d="M37.9,3.2c1.6,0.5,3.1,1.2,4.6,2.1c0.1,0.1,0.3,0.1,0.4,0.1c0.3,0,0.5-0.1,0.6-0.4c0.2-0.4,0.1-0.8-0.3-1   c-1.5-0.9-3.2-1.7-4.9-2.2c-0.4-0.1-0.8,0.1-1,0.5C37.3,2.7,37.5,3.1,37.9,3.2z"/><path d="M14.6,46c0.2,0,0.4-0.1,0.6-0.3c0.3-0.3,0.2-0.8-0.1-1.1c-1.3-1.1-2.5-2.3-3.6-3.6c-0.3-0.3-0.7-0.4-1.1-0.1   c-0.3,0.3-0.4,0.7-0.1,1.1c1.1,1.4,2.4,2.7,3.8,3.8C14.2,45.9,14.4,46,14.6,46z"/><path d="M50.4,13c0.1,0.2,0.4,0.3,0.6,0.3c0.1,0,0.3,0,0.4-0.1c0.3-0.2,0.4-0.7,0.2-1c-1-1.5-2.1-2.9-3.4-4.2   c-0.3-0.3-0.8-0.3-1.1,0c-0.3,0.3-0.3,0.8,0,1.1C48.4,10.2,49.5,11.6,50.4,13z"/><path d="M53.7,20.8c0.1,0.4,0.4,0.6,0.7,0.6c0.1,0,0.1,0,0.2,0c0.4-0.1,0.7-0.5,0.6-0.9c-0.2-0.8-0.4-1.7-0.7-2.5   c-0.1-0.4-0.6-0.6-1-0.5c-0.4,0.1-0.6,0.6-0.5,1C53.3,19.2,53.5,20,53.7,20.8z"/><path d="M77.5,116.6h14.8c0.4,0,0.8-0.3,0.8-0.8c0-0.4-0.3-0.8-0.8-0.8H77.5c-0.4,0-0.8,0.3-0.8,0.8   C76.8,116.2,77.1,116.6,77.5,116.6z"/><path d="M104.3,126.6c0,0,0-0.1,0-0.1c-1-3.4-2-6.8-3.1-10.1c-2.4-7.8-9.6-12.2-18.6-11.5c-1.6,0.1-3.2,0.2-4.8,0.3   c0.2-0.4,0.5-0.9,0.7-1.3c0,0,0,0,0-0.1c0-0.1,0-0.1,0-0.2c0,0,0-0.1,0-0.1c0-0.1,0-0.1,0-0.2c0,0,0-0.1,0-0.1c0,0,0-0.1,0-0.1   l-2-3v-6.8c2.9-2.6,5.3-6.3,6.8-10.6c0,0,0.1,0,0.1,0c2.2,0,3.9-3.3,3.9-7.6c0-3.6-1.1-6.5-2.8-7.3l0-0.2c0.3-2.4,0.6-4.8,0.8-7.2   c0.7-10.5-2.1-11.9-7.4-13.5c-0.4-0.1-0.8-0.3-1.3-0.4c-4.3-1.4-8.8-1.7-11.8-1.7c-3,0-7.4,0.3-11.8,1.7c-0.4,0.1-0.9,0.3-1.3,0.4   c-5.4,1.7-8.1,3-7.4,13.5c0.2,2.4,0.5,4.9,0.8,7.2l0,0.2c-1.7,0.8-2.8,3.7-2.8,7.3c0,4.4,1.8,7.7,4,7.6c1.5,4.4,3.8,8,6.8,10.6v6.8   l-2,3c0,0,0,0.1,0,0.1c0,0,0,0.1-0.1,0.1c0,0,0,0.1,0,0.1c0,0,0,0.1,0,0.1c0,0.1,0,0.1,0,0.1c0,0,0,0.1,0,0.1   c0.2,0.5,0.5,0.9,0.7,1.3c-1.6-0.1-3.2-0.2-4.7-0.3c-9.1-0.7-16.2,3.7-18.6,11.5c-1,3.3-2.1,6.7-3.1,10.1c0,0,0,0.1,0,0.1   c0,0,0,0.1,0,0.1c0,0,0,0,0,0c0,0.1,0,0.1,0,0.2c0,0,0,0.1,0,0.1c0,0,0.1,0.1,0.1,0.1c0,0,0.1,0.1,0.1,0.1c0,0,0.1,0.1,0.1,0.1   c0,0,0.1,0.1,0.1,0.1c0,0,0,0,0,0c0.1,0,0.1,0,0.2,0c0,0,0,0,0,0h77.7l0,0c0.1,0,0.1,0,0.2,0c0,0,0,0,0,0c0,0,0.1,0,0.1-0.1   c0,0,0.1,0,0.1-0.1c0,0,0.1-0.1,0.1-0.1c0,0,0.1-0.1,0.1-0.1c0,0,0-0.1,0-0.1c0-0.1,0-0.1,0-0.2c0,0,0,0,0,0   C104.3,126.7,104.3,126.7,104.3,126.6z M52.1,48.3c0.4-0.1,0.9-0.3,1.3-0.4c3.3-1.1,7.2-1.6,11.3-1.6c4.1,0,8,0.6,11.3,1.6   c0.5,0.1,0.9,0.3,1.3,0.4c4.7,1.4,7,2.2,6.4,12c-0.1,1.1-0.2,2.2-0.3,3.3c-0.8-2.4-2.1-4.9-4.3-5.1c-3.6-0.4-13.1-0.3-13.5-0.3   c0,0-4.1,0.3-8.4-4c-0.2-0.2-0.4-0.2-0.6-0.2c-0.2,0-0.4,0.1-0.5,0.3c-0.7,0.9-1.4,2.7-0.5,4.5c-2.3-0.4-5.9-0.6-7.2,1   c-0.9,1-1.6,2.8-2.2,4.5c-0.1-1.3-0.3-2.6-0.4-4C45.1,50.4,47.5,49.7,52.1,48.3z M47.4,81.6c-0.1-0.2-0.2-0.4-0.4-0.5   c-0.1,0-0.2-0.1-0.3-0.1c-0.1,0-0.2,0-0.3,0.1c-0.1,0.1-0.2,0.1-0.3,0.1c-1,0-2.4-2.3-2.4-6.1c0-3.3,1.1-5.8,2.2-6   c0.3-0.1,0.5-0.3,0.6-0.6l0-0.2c0.4-1.7,1.6-6.1,2.9-7.6c1-1.2,5.2-0.7,7.8,0c0.3,0.1,0.7-0.1,0.9-0.4c0.2-0.3,0.1-0.7-0.2-0.9   c-1.5-1.2-1.4-2.6-1.1-3.4c4.6,4,8.7,3.7,8.8,3.7c0.1,0,9.8-0.1,13.3,0.3c2.3,0.3,3.6,5.8,3.9,8.1c0,0,0,0,0,0l0,0.1   c0,0,0,0.1,0,0.2c0,0,0,0,0,0l0,0.1c0.1,0.3,0.3,0.5,0.6,0.6c1.1,0.2,2.2,2.7,2.2,6c0,3.8-1.4,6.1-2.4,6.1c-0.1,0-0.2,0-0.3-0.1   c-0.2-0.1-0.4-0.1-0.6,0c-0.2,0.1-0.3,0.3-0.4,0.5c-2.8,9.1-9.6,15-17.3,15C57,96.5,50.2,90.7,47.4,81.6z M64.7,98   c3.7,0,7.2-1.3,10.3-3.5v5.8c0,0,0,0,0,0.1c0,0.1,0,0.1,0,0.1c0,0,0,0.1,0.1,0.1c0,0,0,0,0,0.1l1.9,2.8c-1.9,3.7-4,7-6.3,9.9   l-1.4-5.8l2.1-3.6c0.1-0.2,0.1-0.5,0-0.8c-0.1-0.2-0.4-0.4-0.7-0.4H58.7c-0.3,0-0.5,0.1-0.7,0.4c-0.1,0.2-0.1,0.5,0,0.8l2.2,3.7   l-1.4,5.8c-2-2.5-4.2-5.8-6.3-10l1.9-2.9c0,0,0,0,0-0.1c0,0,0-0.1,0.1-0.1c0,0,0-0.1,0-0.1c0,0,0,0,0-0.1v-5.8   C57.5,96.8,61,98,64.7,98z M64.7,119.7c-0.8-0.6-2.5-2.1-4.7-4.6l1.6-6.7H68l1.6,6.6C67.3,117.5,65.5,119.1,64.7,119.7z    M68.1,106.9h-6.7l-1.4-2.4h9.5L68.1,106.9z M29.7,116.9c2.2-7.1,8.7-11.1,17.1-10.4c1.9,0.1,3.8,0.2,5.7,0.3   c5.7,10.2,11.6,14.2,11.9,14.4c0,0,0,0,0.1,0c0,0,0,0,0.1,0c0.1,0,0.2,0.1,0.3,0.1c0,0,0,0,0,0c0,0,0,0,0,0c0.1,0,0.2,0,0.3-0.1   c0,0,0,0,0.1,0c0,0,0,0,0.1,0c0.1-0.1,2.5-1.7,5.8-5.6c2.2-2.6,4.2-5.6,6.1-8.8c1.9-0.1,3.8-0.2,5.7-0.3   c8.3-0.6,14.9,3.3,17.1,10.4c0.9,3,1.9,6,2.8,9.1H26.9C27.8,122.9,28.8,119.9,29.7,116.9z"/><path d="M64.7,13.2c0.4,0,0.8-0.3,0.8-0.8V1.6c0-0.4-0.3-0.8-0.8-0.8c-0.4,0-0.8,0.3-0.8,0.8v10.9C64,12.9,64.3,13.2,64.7,13.2z"/><path d="M64.7,20.3c0.4,0,0.8-0.3,0.8-0.8V16c0-0.4-0.3-0.8-0.8-0.8c-0.4,0-0.8,0.3-0.8,0.8v3.5C64,20,64.3,20.3,64.7,20.3z"/><path d="M33.9,77.8c0-0.4-0.3-0.8-0.8-0.8s-0.8,0.3-0.8,0.8v10.9c0,0.4,0.3,0.8,0.8,0.8s0.8-0.3,0.8-0.8V77.8z"/><path d="M33.2,91.5c-0.4,0-0.8,0.3-0.8,0.8v3.5c0,0.4,0.3,0.8,0.8,0.8s0.8-0.3,0.8-0.8v-3.5C33.9,91.9,33.6,91.5,33.2,91.5z"/><path d="M57.9,33.1c0.1,0.1,0.3,0.2,0.5,0.2c0.2,0,0.4-0.1,0.5-0.2c0.3-0.3,0.3-0.8,0-1.1l-1.5-1.5c-0.3-0.3-0.8-0.3-1.1,0   c-0.3,0.3-0.3,0.8,0,1.1L57.9,33.1z"/><path d="M62.7,37.9c0.1,0.1,0.3,0.2,0.5,0.2c0.2,0,0.4-0.1,0.5-0.2c0.3-0.3,0.3-0.8,0-1.1l-1.5-1.5c-0.3-0.3-0.8-0.3-1.1,0   c-0.3,0.3-0.3,0.8,0,1.1L62.7,37.9z"/><path d="M57,38.1c0.2,0,0.4-0.1,0.5-0.2l1.5-1.5c0.3-0.3,0.3-0.8,0-1.1c-0.3-0.3-0.8-0.3-1.1,0l-1.5,1.5c-0.3,0.3-0.3,0.8,0,1.1   C56.6,38,56.8,38.1,57,38.1z"/><path d="M61.8,33.3c0.2,0,0.4-0.1,0.5-0.2l1.5-1.5c0.3-0.3,0.3-0.8,0-1.1c-0.3-0.3-0.8-0.3-1.1,0L61.2,32c-0.3,0.3-0.3,0.8,0,1.1   C61.4,33.2,61.6,33.3,61.8,33.3z"/><path d="M78.9,7.8C79,7.9,79.2,8,79.4,8c0.2,0,0.4-0.1,0.5-0.2c0.3-0.3,0.3-0.8,0-1.1l-1.5-1.5c-0.3-0.3-0.8-0.3-1.1,0   c-0.3,0.3-0.3,0.8,0,1.1L78.9,7.8z"/><path d="M83.7,12.5c0.1,0.1,0.3,0.2,0.5,0.2c0.2,0,0.4-0.1,0.5-0.2c0.3-0.3,0.3-0.8,0-1.1L83.3,10c-0.3-0.3-0.8-0.3-1.1,0   c-0.3,0.3-0.3,0.8,0,1.1L83.7,12.5z"/><path d="M78,12.8c0.2,0,0.4-0.1,0.5-0.2l1.5-1.5c0.3-0.3,0.3-0.8,0-1.1c-0.3-0.3-0.8-0.3-1.1,0l-1.5,1.5c-0.3,0.3-0.3,0.8,0,1.1   C77.6,12.7,77.8,12.8,78,12.8z"/><path d="M82.7,8c0.2,0,0.4-0.1,0.5-0.2l1.5-1.5C85,6,85,5.5,84.7,5.2c-0.3-0.3-0.8-0.3-1.1,0l-1.5,1.5c-0.3,0.3-0.3,0.8,0,1.1   C82.3,7.9,82.5,8,82.7,8z"/><path d="M12.8,70.4L11.3,69c-0.3-0.3-0.8-0.3-1.1,0c-0.3,0.3-0.3,0.8,0,1.1l1.5,1.5c0.1,0.1,0.3,0.2,0.5,0.2c0.2,0,0.4-0.1,0.5-0.2   C13.1,71.2,13.1,70.7,12.8,70.4z"/><path d="M16.1,73.7c-0.3-0.3-0.8-0.3-1.1,0c-0.3,0.3-0.3,0.8,0,1.1l1.5,1.5c0.1,0.1,0.3,0.2,0.5,0.2c0.2,0,0.4-0.1,0.5-0.2   c0.3-0.3,0.3-0.8,0-1.1L16.1,73.7z"/><path d="M12.8,74.8c0.3-0.3,0.3-0.8,0-1.1c-0.3-0.3-0.8-0.3-1.1,0l-1.5,1.5c-0.3,0.3-0.3,0.8,0,1.1c0.1,0.1,0.3,0.2,0.5,0.2   c0.2,0,0.4-0.1,0.5-0.2L12.8,74.8z"/><path d="M17.6,69c-0.3-0.3-0.8-0.3-1.1,0L15,70.4c-0.3,0.3-0.3,0.8,0,1.1c0.1,0.1,0.3,0.2,0.5,0.2c0.2,0,0.4-0.1,0.5-0.2l1.5-1.5   C17.9,69.7,17.9,69.3,17.6,69z"/><path d="M82.2,27.4c-2,0-3.5,1.6-3.5,3.5c0,2,1.6,3.5,3.5,3.5c2,0,3.5-1.6,3.5-3.5C85.8,29,84.2,27.4,82.2,27.4z M82.2,33   c-1.1,0-2-0.9-2-2c0-1.1,0.9-2,2-2c1.1,0,2,0.9,2,2C84.3,32,83.3,33,82.2,33z"/><path d="M81.5,95.8c0,2,1.6,3.5,3.5,3.5c2,0,3.5-1.6,3.5-3.5c0-2-1.6-3.5-3.5-3.5C83.1,92.3,81.5,93.8,81.5,95.8z M87,95.8   c0,1.1-0.9,2-2,2c-1.1,0-2-0.9-2-2c0-1.1,0.9-2,2-2C86.1,93.8,87,94.7,87,95.8z"/><path d="M35.6,59.4c0-2.3-1.8-4.1-4.1-4.1c-2.3,0-4.1,1.8-4.1,4.1c0,2.3,1.8,4.1,4.1,4.1C33.8,63.5,35.6,61.7,35.6,59.4z M31.5,62   c-1.4,0-2.6-1.2-2.6-2.6c0-1.4,1.2-2.6,2.6-2.6c1.4,0,2.6,1.2,2.6,2.6C34.1,60.8,33,62,31.5,62z"/><path d="M105.9,9.8h12.9c0.4,0,0.8-0.3,0.8-0.8s-0.3-0.8-0.8-0.8h-12.9c-0.4,0-0.8,0.3-0.8,0.8S105.5,9.8,105.9,9.8z"/><path d="M97.5,9.8h4.2c0.4,0,0.8-0.3,0.8-0.8s-0.3-0.8-0.8-0.8h-4.2c-0.4,0-0.8,0.3-0.8,0.8S97,9.8,97.5,9.8z"/><path d="M106.5,12.7h-9c-0.4,0-0.8,0.3-0.8,0.8s0.3,0.8,0.8,0.8h9c0.4,0,0.8-0.3,0.8-0.8S106.9,12.7,106.5,12.7z"/><path d="M110.3,12.7c-0.4,0-0.8,0.3-0.8,0.8s0.3,0.8,0.8,0.8h2.9c0.4,0,0.8-0.3,0.8-0.8s-0.3-0.8-0.8-0.8H110.3z"/><path d="M14.8,104.5h12.9c0.4,0,0.8-0.3,0.8-0.8s-0.3-0.8-0.8-0.8H14.8c-0.4,0-0.8,0.3-0.8,0.8S14.4,104.5,14.8,104.5z"/><path d="M6.4,103c-0.4,0-0.8,0.3-0.8,0.8s0.3,0.8,0.8,0.8h4.2c0.4,0,0.8-0.3,0.8-0.8S11,103,10.6,103H6.4z"/><path d="M15.4,107.4h-9c-0.4,0-0.8,0.3-0.8,0.8c0,0.4,0.3,0.8,0.8,0.8h9c0.4,0,0.8-0.3,0.8-0.8C16.1,107.7,15.8,107.4,15.4,107.4z"/><path d="M22.2,107.4h-2.9c-0.4,0-0.8,0.3-0.8,0.8c0,0.4,0.3,0.8,0.8,0.8h2.9c0.4,0,0.8-0.3,0.8-0.8   C22.9,107.7,22.6,107.4,22.2,107.4z"/><path d="M10.5,25.7c0,1.6,0.2,3.1,0.6,4.6c2.1,8.8,9.9,14.9,19,14.9c1.1,0,2.2-0.1,3.3-0.3c9.4-1.6,16.2-9.7,16.2-19.2   c0-10.8-8.7-19.5-19.5-19.5C19.2,6.2,10.5,14.9,10.5,25.7z M48,25.7c0,8.8-6.3,16.3-14.9,17.7c-1,0.2-2.1,0.3-3.1,0.3   c-8.3,0-15.5-5.7-17.5-13.8c-0.3-1.4-0.5-2.8-0.5-4.3c0-9.9,8.1-18,18-18C39.9,7.7,48,15.7,48,25.7z"/><path d="M30,23.4c-1.3,0-2.3,1-2.3,2.3c0,1.3,1,2.3,2.3,2.3c0.1,0,0.2,0,0.3,0l2.3,4.7c0.1,0.3,0.4,0.4,0.7,0.4   c0.1,0,0.2,0,0.3-0.1c0.4-0.2,0.5-0.6,0.3-1l-2.3-4.7c0.1-0.1,0.1-0.2,0.2-0.2c0-0.1,0.1-0.1,0.1-0.2c0.1-0.1,0.1-0.3,0.2-0.4   c0-0.1,0.1-0.1,0.1-0.2c0.1-0.2,0.1-0.4,0.1-0.7c0-0.1,0-0.1,0-0.2l9.3-4.3c0.4-0.2,0.5-0.6,0.4-1c-0.2-0.4-0.6-0.5-1-0.4l-9.3,4.3   C31.2,23.6,30.6,23.4,30,23.4z M29.1,25.7c0-0.4,0.3-0.8,0.8-0.8L29.7,25c0,0,0,0,0,0c-0.4,0.2-0.5,0.6-0.3,1l0.1,0.2   C29.2,26.1,29.1,25.9,29.1,25.7z"/><path d="M29.2,10.1v2.1c0,0.4,0.3,0.8,0.8,0.8c0.4,0,0.8-0.3,0.8-0.8v-2.1c0-0.4-0.3-0.8-0.8-0.8C29.6,9.3,29.2,9.6,29.2,10.1z"/><path d="M16.4,24.9h-2.1c-0.4,0-0.8,0.3-0.8,0.8c0,0.4,0.3,0.8,0.8,0.8h2.1c0.4,0,0.8-0.3,0.8-0.8C17.2,25.3,16.9,24.9,16.4,24.9z"/><path d="M30,38.4c-0.4,0-0.8,0.3-0.8,0.8v2.1c0,0.4,0.3,0.8,0.8,0.8c0.4,0,0.8-0.3,0.8-0.8v-2.1C30.7,38.8,30.4,38.4,30,38.4z"/><path d="M43.5,26.4h2.1c0.4,0,0.8-0.3,0.8-0.8c0-0.4-0.3-0.8-0.8-0.8h-2.1c-0.4,0-0.8,0.3-0.8,0.8C42.7,26.1,43.1,26.4,43.5,26.4z"/></g></svg>