<?xml version="1.0" encoding="utf-8"?><svg viewBox="0 0 800 800" xmlns="http://www.w3.org/2000/svg" xmlns:xlink="http://www.w3.org/1999/xlink"><style>:root>svg{display:none}:root>svg:target{display:block}</style><svg viewBox="0 -2.5 20 20" id="email" xmlns="http://www.w3.org/2000/svg"><path d="M10 12.474L0 3.649V15h20V3.649l-10 8.825zm.001-2.662L0 .981V0h20v.981l-9.999 8.831z" fill-rule="evenodd"/></svg><svg viewBox="0 0 16 16" class="bbi bbi-geo-alt-fill" id="geo" xmlns="http://www.w3.org/2000/svg"><path d="M8 16s6-5.686 6-10A6 6 0 002 6c0 4.314 6 10 6 10zm0-7a3 3 0 110-6 3 3 0 010 6z"/></svg><svg viewBox="0 0 32 32" id="phone" xmlns="http://www.w3.org/2000/svg"><path d="M31.129 23.072a5.601 5.601 0 00-.719-2.004l.014.026a1.255 1.255 0 00-.868-.589l-.007-.001-8.969-1.424a1.278 1.278 0 00-1.08.35 6.672 6.672 0 00-1.429 2.14l-.016.044c-3.506-1.573-6.252-4.319-7.785-7.729l-.039-.097a6.668 6.668 0 002.182-1.445 1.248 1.248 0 00.349-1.089l.001.007-1.423-8.97a1.252 1.252 0 00-.587-.873l-.006-.003A5.427 5.427 0 008.881.731L8.848.726A5.414 5.414 0 007.687.604h-.071.004-.01A6.894 6.894 0 00.766 7.455v.002c.015 13.037 10.579 23.601 23.615 23.616h.001a6.893 6.893 0 006.854-6.849v-.002l.001-.098c0-.373-.039-.737-.114-1.088l.006.034zm-6.746 5.504C12.726 28.563 3.28 19.117 3.267 7.461V7.46a4.389 4.389 0 014.359-4.354h.036c.249 0 .492.027.726.079l-.022-.004c.233.039.438.093.635.163l-.025-.008 1.21 7.634a4.309 4.309 0 01-1.807.768l-.026.004a1.253 1.253 0 00-.962 1.648l-.003-.009c1.824 5.217 5.859 9.252 10.951 11.038l.125.038a1.252 1.252 0 001.047-.107l-.006.003c.311-.184.532-.492.597-.854l.001-.008a4.364 4.364 0 01.78-1.846l-.009.012 7.633 1.211c.068.193.129.425.17.663l.004.026c.037.177.057.381.057.589l-.001.073v-.004a4.383 4.383 0 01-4.352 4.359h-.002zm-6.32-22.44a1.214 1.214 0 00-1.307 1.178v.002l-.002.066c0 .666.519 1.21 1.175 1.25h.003c3.266.182 5.846 2.875 5.846 6.17 0 .205-.01.407-.029.607l.002-.025a1.25 1.25 0 002.5 0 8.673 8.673 0 00-8.165-9.247l-.022-.001zm-.125-2.888c.43.022 10.523.66 10.523 12.136a1.25 1.25 0 002.5 0c.015-.239.023-.519.023-.8 0-7.325-5.681-13.324-12.878-13.829l-.044-.002a1.216 1.216 0 00-1.31 1.184v.001a1.249 1.249 0 001.182 1.31h.003z"/></svg><svg viewBox="0 0 128 160" id="service-icon-1" xmlns="http://www.w3.org/2000/svg"><path d="M66.2 9.1s2.6-1.1 7.3.5h.2c.3 0 .6-.2.7-.5.1-.4-.1-.8-.5-1-5.3-1.8-8.3-.5-8.4-.5-.4.2-.5.6-.4 1 .3.5.7.7 1.1.5zm47.9 34.1c5.8 0 10.5-4.7 10.5-10.5s-4.7-10.5-10.5-10.5-10.5 4.7-10.5 10.5 4.7 10.5 10.5 10.5zm-8.9-9.7h3.9c.1 3.2.8 5.9 2 7.7-3.3-1.3-5.6-4.2-5.9-7.7zm8.9-9.8c1.6 0 3.4 3.4 3.6 8.2h-7.2c.2-4.8 2-8.2 3.6-8.2zm3.6 9.8c-.2 4.9-2 8.2-3.6 8.2s-3.4-3.4-3.6-8.2h7.2zm-.4 7.6c1.1-1.7 1.9-4.5 2-7.7h3.9c-.4 3.6-2.7 6.5-5.9 7.7zm5.8-9.1h-3.9c-.1-3.2-.8-5.9-2-7.7 3.3 1.2 5.6 4.1 5.9 7.7zM111 24.3c-1.1 1.7-1.9 4.5-2 7.7h-3.9c.4-3.6 2.7-6.5 5.9-7.7zm10.2 47.1c0-.4-.3-.8-.8-.8-.4 0-.8.3-.8.8v10c0 .4.3.8.8.8.4 0 .8-.3.8-.8v-10zm-.8 12.5c-.4 0-.8.3-.8.8v3.2c0 .4.3.8.8.8.4 0 .8-.3.8-.8v-3.2c0-.4-.4-.8-.8-.8zM13.3 26c0-.4-.3-.8-.8-.8-.4 0-.8.3-.8.8v10c0 .4.3.8.8.8.4 0 .8-.3.8-.8V26zm-.8 12.5c-.4 0-.8.3-.8.8v3.2c0 .4.3.8.8.8.4 0 .8-.3.8-.8v-3.2c0-.5-.3-.8-.8-.8zM1.8 95.1c-.3-.3-.8-.3-1.1 0-.3.3-.3.8 0 1.1l1.7 1.7c.1.1.3.1.5.1s.4-.1.5-.2c.3-.3.3-.8 0-1.1l-1.6-1.6zm4.4 6.5l1.7 1.7c.1.1.3.2.5.2s.4-.1.5-.2c.3-.3.3-.8 0-1.1l-1.7-1.7c-.3-.3-.8-.3-1.1 0-.2.3-.2.8.1 1.1zm-3.8-1.1l-1.7 1.7c-.3.3-.3.8 0 1.1.1.1.3.2.5.2s.4-.1.5-.2l1.7-1.7c.3-.3.3-.8 0-1.1-.2-.3-.7-.3-1 0zM6.7 98c.2 0 .4-.1.5-.2l1.7-1.7c.3-.3.3-.8 0-1.1-.3-.3-.8-.3-1.1 0l-1.7 1.7c-.3.3-.3.8 0 1.1.2.2.4.2.6.2zM107.4 7.6c.1.1.3.2.5.2s.4-.1.5-.2c.3-.3.3-.8 0-1.1l-1.7-1.7c-.3-.3-.8-.3-1.1 0-.3.3-.3.8 0 1.1l1.8 1.7zm5.4 5.4c.1.1.3.2.5.2s.4-.1.5-.2c.3-.3.3-.8 0-1.1l-1.7-1.7c-.3-.3-.8-.3-1.1 0-.3.3-.3.8 0 1.1l1.8 1.7zm-6.6.2c.2 0 .4-.1.5-.2l1.7-1.7c.3-.3.3-.8 0-1.1-.3-.3-.8-.3-1.1 0l-1.7 1.7c-.3.3-.3.8 0 1.1.2.1.4.2.6.2zm5.4-5.4c.2 0 .4-.1.5-.2l1.7-1.7c.3-.3.3-.8 0-1.1-.3-.3-.8-.3-1.1 0L111 6.5c-.3.3-.3.8 0 1.1.3.1.5.2.6.2zM39.7 32.3c2 0 3.6-1.6 3.6-3.6s-1.6-3.6-3.6-3.6-3.6 1.6-3.6 3.6 1.6 3.6 3.6 3.6zm0-5.7c1.2 0 2.1.9 2.1 2.1 0 1.2-.9 2.1-2.1 2.1-1.2 0-2.1-.9-2.1-2.1 0-1.2.9-2.1 2.1-2.1zm84.2 70.8c-2 0-3.6 1.6-3.6 3.6s1.6 3.6 3.6 3.6 3.6-1.6 3.6-3.6-1.6-3.6-3.6-3.6zm0 5.7c-1.2 0-2.1-.9-2.1-2.1 0-1.2.9-2.1 2.1-2.1 1.2 0 2.1.9 2.1 2.1 0 1.2-1 2.1-2.1 2.1zM16.1 16.2c0 .4.3.8.8.8h13.3c.4 0 .8-.3.8-.8 0-.4-.3-.8-.8-.8H16.9c-.4 0-.8.4-.8.8zm-7.8.8h4.3c.4 0 .8-.3.8-.8 0-.4-.3-.8-.8-.8H8.3c-.4 0-.8.3-.8.8 0 .4.3.8.8.8zm0-4.6h9.2c.4 0 .8-.3.8-.8s-.3-.8-.8-.8H8.3c-.4 0-.8.3-.8.8s.3.8.8.8zm13.2 0h3c.4 0 .8-.3.8-.8s-.3-.8-.8-.8h-3c-.4 0-.8.3-.8.8s.4.8.8.8zm62 18.1c0 .4.3.8.8.8h13.3c.4 0 .8-.3.8-.8 0-.4-.3-.8-.8-.8H84.3c-.4.1-.8.4-.8.8zm-7.9-.7c-.4 0-.8.3-.8.8 0 .4.3.8.8.8h4.3c.4 0 .8-.3.8-.8 0-.4-.3-.8-.8-.8h-4.3zm0-4.6c-.4 0-.8.3-.8.8 0 .4.3.8.8.8h9.2c.4 0 .8-.3.8-.8 0-.4-.3-.8-.8-.8h-9.2zm13.3 1.5h3c.4 0 .8-.3.8-.8 0-.4-.3-.8-.8-.8h-3c-.4 0-.8.3-.8.8s.4.8.8.8zM18.7 61.2h88.9c.4 0 .7-.2.7-.6.1-.3-.1-.7-.4-.8L68 40.8c-3-1.6-6.6-1.6-9.6 0l-39.9 19c-.3.2-.5.5-.4.8 0 .3.3.6.6.6zM59 42.1c2.6-1.3 5.7-1.3 8.3 0l36.9 17.6H22.1L59 42.1z"/><path d="M116 113.5h-3.5v-3c0-.3-.1-.5-.4-.7l-2.3-1.3V72.2h1.5c1.7 0 3.1-1.4 3.1-3.1v-.5c0-.6-.2-1.2-.5-1.6h6.4c.4 0 .8-.3.8-.8v-6.5c0-.3-.2-.6-.4-.7L69.2 34.1c-1.7-.8-3.5-1.2-5.3-1.3V18.3c3.2-1.2 6.4-.5 9.8.2 2.1.5 4.2.9 6.4.9 1.6 0 3.2-.3 4.8-1 .3-.1.4-.4.4-.7V5.5c0-.3-.1-.5-.3-.6-.2-.1-.5-.2-.7-.1-3.4 1.5-6.7.7-10.3 0-3.3-.7-6.7-1.5-10.1-.4V2.8c0-.4-.3-.8-.8-.8-.4 0-.8.3-.8.8v29.8c-1.8.1-3.6.5-5.3 1.3L5.6 59c-.3.1-.4.4-.4.7v6.5c0 .4.3.8.8.8h6.4c-.3.5-.5 1-.5 1.6v.5c0 1.7 1.4 3.1 3.1 3.1h1.5v36.3l-2.3 1.3c-.2.1-.4.4-.4.7v3h-3.5c-2.8 0-5.1 2.3-5.1 5.1v6.6c0 .4.3.8.8.8h114.5c.4 0 .8-.3.8-.8v-6.6c-.1-2.9-2.4-5.1-5.3-5.1zm-5 0H99v-2.6l1.8-1.1h8.3l1.8 1.1v2.6zm-26.4 0v-3c0-.3-.1-.5-.4-.7l-2.3-1.3V72.2h1.5c1.7 0 3.1-1.4 3.1-3.1v-.5c0-.6-.2-1.2-.5-1.6h10c-.3.5-.5 1-.5 1.6v.5c0 1.7 1.4 3.1 3.1 3.1h1.5v36.3l-2.3 1.3c-.2.1-.4.4-.4.7v3H84.6zm-13.5 0v-2.6l1.8-1.1h8.3l1.8 1.1v2.6H71.1zm-14.4 0v-3c0-.3-.1-.5-.4-.7l-2.3-1.3V72.2h1.5c1.7 0 3.1-1.4 3.1-3.1v-.5c0-.6-.2-1.2-.5-1.6h10c-.3.5-.5 1-.5 1.6v.5c0 1.7 1.4 3.1 3.1 3.1h1.5v36.3l-2.3 1.3c-.2.1-.4.4-.4.7v3H56.7zm-13.5 0v-2.6l1.8-1.1h8.3l1.8 1.1v2.6H43.2zm-14.4 0v-3c0-.3-.1-.5-.4-.7l-2.3-1.3V72.2h1.5c1.7 0 3.1-1.4 3.1-3.1v-.5c0-.6-.2-1.2-.5-1.6h10c-.3.5-.5 1-.5 1.6v.5c0 1.7 1.4 3.1 3.1 3.1h1.5v36.3l-2.3 1.3c-.2.1-.4.4-.4.7v3H28.8zM18 105.9h6.6v2.5H18v-2.5zm39.1-37.4v.5c0 .9-.7 1.6-1.6 1.6H42.8c-.9 0-1.6-.7-1.6-1.6v-.5c0-.9.7-1.6 1.6-1.6h12.6c1 0 1.7.7 1.7 1.6zm-11.2 37.4h6.6v2.5h-6.6v-2.5zm6.6-1.6h-6.6V72.2h6.6v32.1zM85 68.5v.5c0 .9-.7 1.6-1.6 1.6H70.7c-.9 0-1.6-.7-1.6-1.6v-.5c0-.9.7-1.6 1.6-1.6h12.6c1 0 1.7.7 1.7 1.6zm-11.2 37.4h6.6v2.5h-6.6v-2.5zm6.6-1.6h-6.6V72.2h6.6v32.1zm21.3 1.6h6.6v2.5h-6.6v-2.5zm6.6-1.6h-6.6V72.2h6.6v32.1zm4.7-35.8v.5c0 .9-.7 1.6-1.6 1.6H98.7c-.9 0-1.6-.7-1.6-1.6v-.5c0-.9.7-1.6 1.6-1.6h12.6c.9 0 1.7.7 1.7 1.6zM73.7 6.3c3.3.7 6.7 1.5 10.2.3v10.6c-3.2 1.2-6.4.5-9.8-.2-2.1-.5-4.2-.9-6.4-.9-1.3 0-2.5.2-3.8.6V6c3.2-1.2 6.4-.5 9.8.3zm-67 53.8l51.2-24.7c3.4-1.6 7.3-1.6 10.7 0l51.2 24.7v5.3H6.7v-5.3zm6.6 9v-.5c0-.9.7-1.6 1.6-1.6h12.6c.9 0 1.6.7 1.6 1.6v.5c0 .9-.7 1.6-1.6 1.6H15c-.9 0-1.7-.7-1.7-1.6zm11.3 3.1v32.2H18V72.2h6.6zm-9.3 38.7l1.8-1.1h8.3l1.8 1.1v2.6H15.3v-2.6zm104.4 13.5H6.7v-5.9c0-2 1.6-3.6 3.6-3.6H116c2 0 3.6 1.6 3.6 3.6v5.9z"/><path d="M16.1 118.9h-1.5c-.4 0-.8.3-.8.8 0 .4.3.8.8.8h1.5c.4 0 .8-.3.8-.8-.1-.4-.4-.8-.8-.8zm70.6 0h-2.9c-.4 0-.8.3-.8.8 0 .4.3.8.8.8h2.9c.4 0 .8-.3.8-.8-.1-.4-.4-.8-.8-.8zm-8.8 0H75c-.4 0-.8.3-.8.8 0 .4.3.8.8.8h2.9c.4 0 .8-.3.8-.8-.1-.4-.4-.8-.8-.8zm-8.9 0h-2.9c-.4 0-.8.3-.8.8 0 .4.3.8.8.8H69c.4 0 .8-.3.8-.8 0-.4-.3-.8-.8-.8zm35.4 0h-2.9c-.4 0-.8.3-.8.8 0 .4.3.8.8.8h2.9c.4 0 .8-.3.8-.8-.1-.4-.4-.8-.8-.8zm-8.9 0h-2.9c-.4 0-.8.3-.8.8 0 .4.3.8.8.8h2.9c.4 0 .8-.3.8-.8 0-.4-.4-.8-.8-.8zm-70.6 0H22c-.4 0-.8.3-.8.8 0 .4.3.8.8.8h2.9c.4 0 .8-.3.8-.8-.1-.4-.4-.8-.8-.8zm8.8 0h-2.9c-.4 0-.8.3-.8.8 0 .4.3.8.8.8h2.9c.4 0 .8-.3.8-.8 0-.4-.4-.8-.8-.8zm8.9 0h-2.9c-.4 0-.8.3-.8.8 0 .4.3.8.8.8h2.9c.4 0 .8-.3.8-.8-.1-.4-.4-.8-.8-.8zm17.6 0h-2.9c-.4 0-.8.3-.8.8 0 .4.3.8.8.8h2.9c.4 0 .8-.3.8-.8 0-.4-.4-.8-.8-.8zm-8.8 0h-2.9c-.4 0-.8.3-.8.8 0 .4.3.8.8.8h2.9c.4 0 .8-.3.8-.8-.1-.4-.4-.8-.8-.8zm60.3 0h-1.5c-.4 0-.8.3-.8.8 0 .4.3.8.8.8h1.5c.4 0 .8-.3.8-.8 0-.4-.3-.8-.8-.8z"/></svg><svg viewBox="0 0 128 160" id="service-icon-2" xmlns="http://www.w3.org/2000/svg"><path d="M5.6 46.8c.4 0 .8-.3.8-.8V33.4c0-.4-.3-.8-.8-.8-.4 0-.8.3-.8.8V46c.1.4.4.8.8.8zm0 8.2c.4 0 .8-.3.8-.8v-4.1c0-.4-.3-.8-.8-.8-.4 0-.8.3-.8.8v4.1c.1.4.4.8.8.8zm115 25.4c-.4 0-.8.3-.8.8v12.6c0 .4.3.8.8.8.4 0 .8-.3.8-.8V81.1c-.1-.4-.4-.7-.8-.7zm0 16.7c-.4 0-.8.3-.8.8v4.1c0 .4.3.8.8.8.4 0 .8-.3.8-.8v-4.1c-.1-.5-.4-.8-.8-.8zM52.8 8.3c.2 0 .4-.1.5-.2L55 6.3c.3-.3.3-.8 0-1.1-.3-.3-.8-.3-1.1 0L52.2 7c-.3.3-.3.8 0 1.1.2.1.4.2.6.2zm-5.6 5.6c.2 0 .4-.1.5-.2l1.7-1.7c.3-.3.3-.8 0-1.1s-.8-.3-1.1 0l-1.7 1.7c-.3.3-.3.8 0 1.1.2.1.4.2.6.2zm6.7-.3c.1.1.3.2.5.2s.4-.1.5-.2c.3-.3.3-.8 0-1.1l-1.7-1.7c-.3-.3-.8-.3-1.1 0s-.3.8 0 1.1l1.8 1.7zm-5.5-5.5c.1.1.3.2.5.2s.4-.1.5-.2c.3-.3.3-.8 0-1.1l-1.7-1.7c-.3-.3-.8-.3-1.1 0s-.3.8 0 1.1l1.8 1.7zM124.5 40c.1.1.3.2.5.2s.4-.1.5-.2l1.7-1.7c.3-.3.3-.8 0-1.1s-.8-.3-1.1 0l-1.7 1.7c-.2.3-.2.8.1 1.1zm-3.9 2.8l-1.7 1.7c-.3.3-.3.8 0 1.1.1.1.3.2.5.2s.4-.1.5-.2l1.7-1.7c.3-.3.3-.8 0-1.1-.2-.3-.7-.3-1 0zm5 0c-.3-.3-.8-.3-1.1 0-.3.3-.3.8 0 1.1l1.7 1.7c.1.1.3.2.5.2s.4-.1.5-.2c.3-.3.3-.8 0-1.1l-1.6-1.7zm-5.6-5.6c-.3-.3-.8-.3-1.1 0-.3.3-.3.8 0 1.1l1.7 1.7c.1.1.3.2.5.2s.4-.1.5-.2c.3-.3.3-.8 0-1.1l-1.6-1.7zM68.9 97.6l-1.7 1.7c-.3.3-.3.8 0 1.1.1.1.3.2.5.2s.4-.1.5-.2l1.7-1.7c.3-.3.3-.8 0-1.1s-.7-.3-1 0zm-5.6 5.6l-1.7 1.7c-.3.3-.3.8 0 1.1.1.1.3.2.5.2s.4-.1.5-.2l1.7-1.7c.3-.3.3-.8 0-1.1-.2-.3-.7-.3-1 0zm4.9 0c-.3-.3-.8-.3-1.1 0-.3.3-.3.8 0 1.1l1.7 1.7c.1.1.3.2.5.2s.4-.1.5-.2c.3-.3.3-.8 0-1.1l-1.6-1.7zm-5.6-5.6c-.3-.3-.8-.3-1.1 0s-.3.8 0 1.1l1.7 1.7c.1.1.3.2.5.2s.4-.1.5-.2c.3-.3.3-.8 0-1.1l-1.6-1.7zm-57-12.8c2 0 3.7-1.7 3.7-3.7s-1.7-3.7-3.7-3.7-3.7 1.7-3.7 3.7 1.7 3.7 3.7 3.7zm0-5.8c1.2 0 2.2 1 2.2 2.2s-1 2.2-2.2 2.2-2.2-1-2.2-2.2c0-1.3 1-2.2 2.2-2.2zm80-63.9c2 0 3.7-1.7 3.7-3.7s-1.7-3.7-3.7-3.7-3.7 1.7-3.7 3.7 1.7 3.7 3.7 3.7zm0-5.9c1.2 0 2.2 1 2.2 2.2s-1 2.2-2.2 2.2-2.2-1-2.2-2.2c.1-1.2 1-2.2 2.2-2.2zm20.3 78.5c0-2-1.7-3.7-3.7-3.7s-3.7 1.7-3.7 3.7 1.7 3.7 3.7 3.7 3.7-1.7 3.7-3.7zm-5.9 0c0-1.2 1-2.2 2.2-2.2s2.2 1 2.2 2.2-1 2.2-2.2 2.2c-1.2 0-2.2-1-2.2-2.2zM14.5 9.2h13.6c.4 0 .8-.3.8-.8s-.3-.8-.8-.8H14.5c-.4 0-.8.3-.8.8s.4.8.8.8zm-8.9 0H10c.4 0 .8-.3.8-.8s-.4-.7-.8-.7H5.6c-.4 0-.7.3-.7.7s.3.8.7.8zm0 4.7h9.5c.4 0 .8-.3.8-.8s-.3-.8-.8-.8H5.6c-.4 0-.8.3-.8.8s.4.8.8.8zm13.6-1.6c-.4 0-.8.3-.8.8s.3.8.8.8h3.1c.4 0 .8-.3.8-.8s-.3-.8-.8-.8h-3.1zm97.2 6.9h-13.6c-.4 0-.8.3-.8.8 0 .4.3.8.8.8h13.6c.4 0 .8-.3.8-.8 0-.4-.4-.8-.8-.8zm9.6.8c0-.4-.3-.8-.8-.8h-4.4c-.4 0-.8.3-.8.8 0 .4.3.8.8.8h4.4c.5-.1.8-.4.8-.8zm-10.2-3.9h9.5c.4 0 .8-.3.8-.8s-.3-.8-.8-.8h-9.5c-.4 0-.8.3-.8.8s.4.8.8.8zm-7.1 0h3.1c.4 0 .8-.3.8-.8s-.3-.8-.8-.8h-3.1c-.4 0-.8.3-.8.8s.4.8.8.8zm-4.8 92.8H90.3c-.4 0-.8.3-.8.8 0 .4.3.8.8.8h13.6c.4 0 .8-.3.8-.8 0-.4-.4-.8-.8-.8zm8.9 0h-4.4c-.4 0-.8.3-.8.8 0 .4.3.8.8.8h4.4c.4 0 .8-.3.8-.8-.1-.4-.4-.8-.8-.8zm0-4.6h-9.5c-.4 0-.8.3-.8.8 0 .4.3.8.8.8h9.5c.4 0 .8-.3.8-.8-.1-.5-.4-.8-.8-.8zm-16.6 0c-.4 0-.8.3-.8.8 0 .4.3.8.8.8h3.1c.4 0 .8-.3.8-.8 0-.4-.3-.8-.8-.8h-3.1zm-43.8 12.5H38.8c-.4 0-.8.3-.8.8 0 .4.3.8.8.8h13.6c.4 0 .8-.3.8-.8-.1-.5-.4-.8-.8-.8zm-22.5 1.5h4.4c.4 0 .8-.3.8-.8 0-.4-.3-.8-.8-.8h-4.4c-.4 0-.8.3-.8.8s.4.8.8.8zm9.5 3.2h-9.5c-.4 0-.8.3-.8.8 0 .4.3.8.8.8h9.5c.4 0 .8-.3.8-.8-.1-.5-.4-.8-.8-.8zm7.1 0h-3.1c-.4 0-.8.3-.8.8 0 .4.3.8.8.8h3.1c.4 0 .8-.3.8-.8s-.4-.8-.8-.8zm25-71.9c-.2-.1-.4 0-.6.1s-.3.3-.3.5c-.3 2-2.5 3.6-5.1 3.6s-4.8-1.6-5.1-3.6c0-.2-.2-.4-.3-.5-.2-.1-.4-.1-.6-.1-4.6 1.5-7.6 6-7.3 10.9l.6 9.6c0 .4.4.7.8.7h24c.4 0 .7-.3.8-.7l.6-9.6c.2-4.9-2.9-9.4-7.5-10.9zm5.8 10.8l-.6 8.9H54.1l-.6-8.9c-.3-3.9 2-7.5 5.5-9.1.8 2.3 3.4 4 6.4 4s5.6-1.7 6.4-4c3.6 1.6 5.8 5.2 5.5 9.1z"/><path d="M65.5 49.6c4.3 0 7.7-3.7 7.7-8.2s-3.5-8.2-7.7-8.2c-4.3 0-7.7 3.7-7.7 8.2-.1 4.5 3.4 8.2 7.7 8.2zm0-15c3.4 0 6.2 3 6.2 6.7S68.9 48 65.5 48c-3.4 0-6.2-3-6.2-6.7-.1-3.7 2.7-6.7 6.2-6.7z"/><path d="M98 66.6h13.8c.4 0 .7-.3.8-.7l.5-7.3c.2-3.8-2.1-7.3-5.7-8.5-.2-.1-.4 0-.6.1s-.3.3-.3.5c-.2 1.5-1.8 2.6-3.7 2.6-.7 0-1.4-.2-2.1-.5 0-1-.1-1.9-.2-2.9.7.3 1.5.5 2.2.5 3.4 0 6.1-2.9 6.1-6.5s-2.7-6.5-6.1-6.5c-1.9 0-3.6.9-4.8 2.4-1.7-4.2-4.3-8-7.5-11.3-6.6-6.6-15.5-10.3-24.8-10.3-9.4 0-18.2 3.7-24.8 10.3-3.3 3.3-5.8 7-7.6 11.2-1.1-1.5-2.9-2.4-4.8-2.4-3.4 0-6.1 2.9-6.1 6.5s2.7 6.5 6.1 6.5c.8 0 1.5-.2 2.2-.5-.1.9-.2 1.9-.2 2.9-.6.3-1.3.5-2.1.5-1.9 0-3.5-1.1-3.7-2.6 0-.2-.2-.4-.3-.5-.2-.1-.4-.1-.6-.1-3.6 1.2-6 4.7-5.7 8.5l.5 7.3c0 .4.4.7.8.7H33c1.2 2.9 2.8 5.7 4.7 8.1L2.1 104.8c-.9.8-1.5 2-1.6 3.2s.4 2.4 1.3 3.3l5.7 5.7c.8.8 2 1.3 3.1 1.3h.2c1.2-.1 2.4-.6 3.2-1.6l30.1-35.6c6.3 4.9 13.9 7.3 21.4 7.3 9 0 18-3.5 24.8-10.3 3.3-3.3 5.9-7.2 7.7-11.5zm9.6-14.9c2.6 1.2 4.2 3.8 4 6.7l-.4 6.6H98.5c0-.1 0-.1.1-.2.3-.7.5-1.5.7-2.3 0-.1.1-.3.1-.4.2-.8.4-1.5.5-2.3v-.1c.1-.8.3-1.6.4-2.4 0-.2 0-.3.1-.5.1-.8.1-1.6.2-2.4v-.1c.6.2 1.3.4 2.1.4 2.2 0 4.2-1.2 4.9-3zm-5-12.9c2.5 0 4.6 2.2 4.6 5s-2.1 5-4.6 5c-.9 0-1.7-.3-2.4-.8-.1-.3-.1-.7-.2-1 0-.2-.1-.4-.1-.6-.1-.6-.2-1.1-.4-1.6 0-.1 0-.2-.1-.3-.1-.5-.3-1-.4-1.5-.1-.2-.1-.4-.2-.6l-.3-.9c.8-1.6 2.4-2.7 4.1-2.7zm-78.9 5c0-2.7 2.1-5 4.6-5 1.7 0 3.3 1 4.1 2.7-.1.3-.2.7-.3 1-.1.2-.1.4-.2.5-.3 1.1-.6 2.3-.9 3.4 0 .2-.1.4-.1.5-.1.3-.1.7-.2 1-.7.5-1.6.8-2.4.8-2.5.1-4.6-2.1-4.6-4.9zm-3.9 21.3l-.4-6.6c-.2-2.9 1.4-5.5 4-6.7.7 1.8 2.7 3 5 3 .7 0 1.4-.1 2.1-.4v.2c0 .8.1 1.6.2 2.4 0 .2 0 .3.1.5.1.8.2 1.6.4 2.4v.1c.1.8.3 1.6.5 2.3 0 .1.1.3.1.4.2.8.4 1.5.7 2.3 0 .1 0 .1.1.2l-12.8-.1zm-6.9 50.6c-.5.6-1.3 1-2.1 1s-1.6-.3-2.2-.8l-5.7-5.7c-.6-.6-.9-1.4-.9-2.2s.4-1.6 1-2.1l35.5-30c.2.2.3.4.5.6.1.1.2.2.3.4.3.4.7.8 1 1.1l.2.2.3.3c.3.3.6.6 1 .9.1.1.3.2.4.4.2.2.4.4.6.5l-29.9 35.4zm31.5-36.2c-.4-.3-.8-.7-1.2-1-.5-.5-1-.9-1.5-1.4-.2-.2-.3-.4-.5-.5-.7-.7-1.4-1.5-1.9-2.2-2.1-2.7-3.9-5.6-5.1-8.8-.2-.5-.4-1-.5-1.5-1.2-3.5-1.8-7.1-1.8-10.9 0-1.6.1-3.2.3-4.6.1-.6.2-1.2.3-1.7.3-1.7.8-3.4 1.4-5.1 1.7-4.6 4.3-8.7 7.8-12.1 6.3-6.3 14.8-9.8 23.8-9.8s17.4 3.5 23.8 9.8c3.5 3.5 6.1 7.6 7.8 12.2.8 2.1 1.4 4.4 1.7 6.8.2 1.5.3 3 .3 4.6v.1c0 3.7-.6 7.3-1.7 10.7-.2.5-.3 1-.5 1.5-1.7 4.3-4.2 8.2-7.6 11.6-12.2 12-31.5 13.1-44.9 2.3z"/><path d="M65.5 26.3c-7.2 0-14 2.8-19.1 7.9-9.8 9.8-10.6 25.2-1.9 36 .6.8 1.2 1.5 1.9 2.2s1.4 1.3 2.2 2c4.8 3.8 10.8 5.9 16.9 5.9 7.2 0 14-2.8 19.1-7.9 10.5-10.5 10.5-27.7 0-38.2-5.2-5.1-11.9-7.9-19.1-7.9zm18 45.1c-4.8 4.8-11.2 7.5-18 7.5-5.8 0-11.5-2-15.9-5.6-.7-.6-1.4-1.2-2.1-1.9-.7-.7-1.3-1.3-1.8-2-8.2-10.2-7.4-24.8 1.8-34 4.8-4.8 11.2-7.5 18-7.5s13.2 2.7 18 7.5c9.9 9.8 9.9 26 0 36zm25.8.8c.4 0 .8-.3.8-.8s-.3-.8-.8-.8h-3c-.4 0-.8.3-.8.8s.3.8.8.8h3zm-6.5 0c.4 0 .8-.3.8-.8s-.3-.8-.8-.8h-3c-.4 0-.8.3-.8.8s.3.8.8.8h3zm-73.7 0c.4 0 .8-.3.8-.8s-.3-.8-.8-.8h-3c-.4 0-.8.3-.8.8s.3.8.8.8h3zm-6.6 0c.4 0 .8-.3.8-.8s-.3-.8-.8-.8h-3c-.4 0-.8.3-.8.8s.3.8.8.8h3z"/></svg><svg viewBox="0 0 128 160" id="service-icon-3" xmlns="http://www.w3.org/2000/svg"><path d="M7.8 34.7c.4 0 .7-.3.7-.7v-9.1c0-.4-.3-.7-.7-.7-.4 0-.7.3-.7.7V34c0 .4.3.7.7.7zm0 7.5c.4 0 .7-.3.7-.7v-3.2c0-.4-.3-.7-.7-.7-.4 0-.7.3-.7.7v3.2c0 .4.3.7.7.7zm70.9-25c1.9 0 3.5-1.6 3.5-3.5s-1.6-3.5-3.5-3.5-3.5 1.6-3.5 3.5 1.6 3.5 3.5 3.5zm0-5.5c1.1 0 2 .9 2 2s-.9 2-2 2-2-.9-2-2 .9-2 2-2zM19.8 7.6c0 .4.3.7.7.7h11.3c.4 0 .7-.3.7-.7 0-.4-.3-.7-.7-.7H20.6c-.5-.1-.8.3-.8.7zm-6.6.7h3.6c.4 0 .7-.3.7-.7 0-.4-.3-.7-.7-.7h-3.6c-.4 0-.7.3-.7.7 0 .4.3.7.7.7zm0-3.9h7.9c.4 0 .7-.3.7-.7 0-.4-.3-.7-.7-.7h-7.9c-.4 0-.7.3-.7.7 0 .4.3.7.7.7zm11.2 0H27c.4 0 .7-.3.7-.7 0-.4-.3-.7-.7-.7h-2.5c-.4 0-.7.3-.7.7-.1.4.2.7.6.7zm94.4 112c0-.4-.3-.7-.7-.7h-11.3c-.4 0-.7.3-.7.7 0 .4.3.7.7.7h11.3c.4 0 .7-.3.7-.7zm6.6-.8h-3.6c-.4 0-.7.3-.7.7 0 .4.3.7.7.7h3.6c.4 0 .7-.3.7-.7.1-.3-.3-.7-.7-.7zm0 3.9h-7.9c-.4 0-.7.3-.7.7 0 .4.3.7.7.7h7.9c.4 0 .7-.3.7-.7.1-.4-.3-.7-.7-.7zm-11.2 0h-2.5c-.4 0-.7.3-.7.7 0 .4.3.7.7.7h2.5c.4 0 .7-.3.7-.7 0-.4-.3-.7-.7-.7zM54.6 4.5c.1.1.3.2.5.2s.4-.1.5-.2c.3-.3.3-.8 0-1L54.1 2c-.3-.3-.8-.3-1 0-.3.3-.3.8 0 1l1.5 1.5zm4.8 4.8c.1.1.3.2.5.2s.4-.1.5-.2c.3-.3.3-.8 0-1l-1.5-1.5c-.3-.3-.8-.3-1 0-.3.3-.3.8 0 1l1.5 1.5zm-5.8.2c.2 0 .4-.1.5-.2l1.5-1.5c.3-.3.3-.8 0-1-.3-.3-.8-.3-1 0l-1.5 1.5c-.3.3-.3.8 0 1 .1.2.3.2.5.2zm4.8-4.8c.2 0 .4-.1.5-.2L60.4 3c.3-.3.3-.8 0-1-.3-.3-.8-.3-1 0l-1.5 1.5c-.3.3-.3.8 0 1 .1.1.3.2.5.2zm25.9 83.2l-1.5-1.5c-.3-.3-.8-.3-1 0-.3.3-.3.8 0 1l1.5 1.5c.1.1.3.2.5.2s.4-.1.5-.2c.3-.3.3-.7 0-1zm3.3 3.3c-.3-.3-.8-.3-1 0-.3.3-.3.8 0 1l1.5 1.5c.1.1.3.2.5.2s.4-.1.5-.2c.3-.3.3-.8 0-1l-1.5-1.5zm-4.3 0l-1.5 1.5c-.3.3-.3.8 0 1 .1.1.3.2.5.2s.4-.1.5-.2l1.5-1.5c.3-.3.3-.8 0-1s-.8-.3-1 0zm5.8-4.8c-.3-.3-.8-.3-1 0l-1.5 1.5c-.3.3-.3.8 0 1 .1.1.3.2.5.2s.4-.1.5-.2l1.5-1.5c.3-.2.3-.7 0-1zm-79.7.7c.1.1.3.2.5.2s.4-.1.5-.2c.3-.3.3-.8 0-1l-1.5-1.5c-.3-.3-.8-.3-1 0-.3.3-.3.8 0 1l1.5 1.5zm3.3 3.3l1.5 1.5c.1.1.3.2.5.2s.4-.1.5-.2c.3-.3.3-.8 0-1l-1.5-1.5c-.3-.3-.8-.3-1 0-.3.2-.3.7 0 1zm-4.8 1.5c.1.1.3.2.5.2s.4-.1.5-.2l1.5-1.5c.3-.3.3-.8 0-1-.3-.3-.8-.3-1 0l-1.5 1.5c-.3.2-.3.7 0 1zm5.3-4.6c.2 0 .4-.1.5-.2l1.5-1.5c.3-.3.3-.8 0-1-.3-.3-.8-.3-1 0L12.7 86c-.3.3-.3.8 0 1 .1.2.3.3.5.3zM96.9 5.7c3.1-2.2 6.8-3.1 10.5-2.5s7 2.6 9.2 5.7c4.5 6.3 3.1 15.1-3.2 19.6-.3.2-.4.7-.2 1 .1.2.4.3.6.3.1 0 .3 0 .4-.1 7-5 8.6-14.7 3.6-21.7-2.4-3.4-6-5.6-10.1-6.3s-8.2.3-11.6 2.7c-.3.2-.4.7-.2 1 .2.5.7.5 1 .3z"/><path d="M111.1 26.2c.1 0 .3 0 .4-.1 2.4-1.7 4-4.2 4.4-7.1.5-2.9-.2-5.8-1.9-8.2-1.7-2.4-4.2-4-7.1-4.4-2.9-.5-5.8.2-8.2 1.9-.3.2-.4.7-.2 1 .2.3.7.4 1 .2 2.1-1.5 4.6-2.1 7.1-1.7 2.5.4 4.7 1.8 6.2 3.8 1.5 2.1 2.1 4.6 1.7 7.1s-1.8 4.7-3.8 6.2c-.3.2-.4.7-.2 1 .2.2.4.3.6.3z"/><path d="M108 21.2c-.3.2-.4.7-.2 1 .1.2.4.3.6.3.1 0 .3 0 .4-.1 1.4-1 2.3-2.5 2.6-4.2.3-1.7-.1-3.4-1.1-4.8-2.1-2.9-6.1-3.5-9-1.5-.3.2-.4.7-.2 1 .2.3.7.4 1 .2 2.2-1.6 5.3-1.1 6.9 1.1.8 1.1 1.1 2.4.9 3.7-.1 1.3-.8 2.5-1.9 3.3zm-3.3 34.7c2 2.9 5.1 4.9 8.5 5.7 1.1.3 2.2.4 3.3.4 2.1 0 4.3-.5 6.2-1.4l.6-.3.7-.4c.3-.2.6-.4.8-.5.8-.6 1.4-1.5 1.5-2.5.2-1-.1-2-.6-2.8l-5.2-7.4c-.6-.8-1.3-1.3-2.1-1.5-1.2-.2-2.6.2-4.1 1.3-.1.1-.2.1-.3.2-.3.1-.5.1-.8.1s-.5-.1-.8-.3l-.4-.4c-.2-.3-.4-.5-.5-.6L102.6 33c-.4-.5-.6-1.1-.6-1.6 0-.4.1-.9.3-1.2.1-.1.1-.2.2-.2l1-.7c1.7-1.2 2.1-3.6.9-5.3l-5.2-7.4c-.6-.8-1.5-1.4-2.5-1.5-1-.2-2 .1-2.8.6-.3.2-.5.4-.8.6l-.6.6-.5.4c-2.3 2.3-3.8 5.3-4.1 8.6-.4 3.5.5 7 2.6 9.9l14.2 20.1zm13.4-9.2c.5.1.9.4 1.2.9l5.2 7.4c.4.5.5 1.1.4 1.7-.1.6-.4 1.2-1 1.5-.3.2-.6.4-.8.5l-2.6-3.6-5.3-7.5c1.1-.8 2.1-1.1 2.9-.9zM94.7 16.9c.5-.4 1.1-.5 1.7-.4s1.2.4 1.5.9l5.2 7.4c.7 1 .5 2.5-.6 3.2l-.8.6-2.5-3.6-5.3-7.5c.2-.2.5-.4.8-.6zM89.3 26c.3-2.8 1.5-5.5 3.5-7.5l8 11.2c-.2.5-.4 1-.3 1.6 0 .9.3 1.7.9 2.5l8.8 12.5c.2.3.5.7.6.8.3.4.6.6.7.7.4.3.9.5 1.4.5.3 0 .6 0 .9-.1l3 4.2 4.9 7c-2.6 1.2-5.5 1.5-8.3.8-3.1-.7-5.8-2.5-7.6-5.1L91.6 35c-1.9-2.6-2.7-5.8-2.3-9zm-6.2 85.2H64.5c-.4 0-.7.3-.7.7 0 .4.3.7.7.7h18.6c.4 0 .7-.3.7-.7 0-.3-.3-.7-.7-.7z"/><path d="M94 112.9c-3-9.6-11.9-15.1-23.1-14.2l-1.6.1c-1.6.1-3 .2-4.7.3-.8-1.5-3.5-7.9-.1-17 .3-.3.5-.6.8-.8h15c.1 0 .2 0 .3-.1h.1c.1 0 .1-.1.1-.1l.1-.1s.1-.1.1-.2v-.1l1.7-4.6c1.8-.3 3.5-1 5-2 2.7-1.8 4.4-4.6 5-7.8.6-3.2-.1-6.4-2-9.1-1.7-2.5-4.2-4.2-7.1-4.9.2-1.3.3-2.6.3-4C83.9 28.9 68 13 48.5 13S13.2 28.9 13.2 48.4c0 1.4.1 2.7.3 4-2.9.7-5.4 2.4-7.1 4.9-1.8 2.7-2.5 5.9-2 9.1.6 3.2 2.4 6 5 7.8 2 1.4 4.4 2.2 6.9 2.2.7 0 1.5-.1 2.2-.2.4-.1.7-.5.6-.9l-4-22.2V53c-.2-1.4-.3-2.9-.3-4.5 0-18.7 15.2-33.9 33.9-33.9s33.9 15.2 33.9 33.9c0 1.5-.1 3-.3 4.4v.1L78 75.2c-.1.4.2.8.6.9.7.1 1.5.2 2.2.2h.3l-1.3 3.4H66.5c2.1-2.8 3.8-6 5.1-9.7h.3c2.6 0 4.6-4 4.6-9.3 0-4.5-1.5-8.1-3.6-9v-.4c.4-3 .8-6 .9-9.1.9-13.6-2.9-14.8-9.2-16.7-.5-.2-1.1-.3-1.6-.5-5.4-1.7-11-2.1-14.7-2.1-5.3 0-10.4.8-14.7 2.1-.6.2-1.1.3-1.6.5-6.3 1.9-10 3.1-9.2 16.7.2 3 .6 6.1.9 9.1l.1.4c-2.1.9-3.6 4.6-3.6 9 0 5.3 2 9.3 4.6 9.3h.3c1.6 4.7 4 8.7 6.9 11.9 3.3 9 .6 15.6-.2 17.1-1.6-.1-3-.2-4.6-.3l-1.5-.1C14.8 97.8 6 103.2 3 112.9c-.8 2.4-1.5 4.8-2.3 7.2-.5 1.5-.2 3.1.8 4.3.9 1.3 2.4 2 3.9 2h86.2c1.6 0 3-.7 3.9-2s1.2-2.8.8-4.3c-.8-2.5-1.5-4.9-2.3-7.2zm-83.8-40c-2.3-1.6-3.9-4-4.4-6.8-1-5.5 2.5-10.9 7.9-12.2l3.8 20.9c-2.7.2-5.2-.4-7.3-1.9zm69.4 1.8l3.8-20.9c5.4 1.4 8.9 6.7 7.9 12.2-.5 2.8-2.1 5.2-4.4 6.8-2.2 1.6-4.8 2.2-7.3 1.9zm-47-47.8c.5-.2 1.1-.3 1.6-.5 4.1-1.3 9.1-2 14.2-2.1 5.2 0 10.1.7 14.2 2.1.6.2 1.1.3 1.6.5 6 1.8 8.9 2.8 8.1 15.2-.1 1.8-.3 3.6-.5 5.3-.9-3.2-2.6-6.8-5.5-7.2-4.4-.5-16.4-.4-16.9-.4-.1 0-5.1.4-10.7-5-.2-.1-.4-.2-.6-.2-.2 0-.4.1-.5.3-.8 1.1-1.7 3.5-.4 5.7-2.9-.5-7.5-1-9.3 1.1-1.2 1.4-2.3 4.2-3 6.5-.2-2-.5-4.1-.6-6.1-.6-12.4 2.4-13.4 8.3-15.2zm-6.4 41.6c-.1 0-.2-.1-.3-.1-.1 0-.2 0-.3.1-.2.1-.3.1-.5.1-1.5 0-3.2-3.2-3.2-7.8 0-4.1 1.3-7.1 2.7-7.7h.1c.3 0 .6-.2.7-.6 0-.1 1.7-7.4 3.8-9.8 1.4-1.6 6.9-.9 10-.1.3.1.7-.1.8-.4.2-.3.1-.7-.2-.9-2.2-1.7-1.8-3.7-1.3-4.8 5.8 5.2 11 4.8 11.1 4.8.1 0 12.3-.1 16.7.4 3.2.4 4.8 7.8 5.2 10.7.1.4.4.7.8.6 1.3.6 2.7 3.5 2.7 7.7 0 4.6-1.7 7.8-3.2 7.8-.2 0-.3 0-.5-.1s-.4-.1-.6 0-.3.3-.4.4C69 73 67 76.7 64.5 79.6h-10c-.2-1.1-1.2-1.8-2.3-1.8h-7.3c-1.3 0-2.4 1.1-2.4 2.4v.4c0 1.3 1.1 2.4 2.4 2.4h7.3c1.1 0 2.1-.8 2.3-1.8h8.9c-4.1 4.2-9.3 6.6-14.8 6.6-5.6 0-10.8-2.4-14.9-6.7V81c-.1-.2-.2-.3-.4-.4-2.9-3.1-5.1-7.1-6.6-11.7-.2-.2-.3-.4-.5-.4zM53 80.6c0 .5-.4.9-.9.9h-7.3c-.5 0-.9-.4-.9-.9v-.4c0-.5.4-.9.9-.9h7.3c.5 0 .9.4.9.9v.4zM34.5 84c4 3.4 8.8 5.3 14 5.3 5.1 0 9.8-1.9 13.8-5.2-2.5 9.2.7 15.1 1.2 15.9.1.2.2.3.3.4-2.3 3.7-4.9 7.1-7.7 10.1l-2.1-8.7 2.7-4.6c.1-.2.1-.5 0-.7s-.4-.4-.6-.4H40.9c-.3 0-.5.1-.6.4-.1.2-.1.5 0 .7l2.8 4.7-2.1 8.7c-2.4-2.6-5.2-6-7.8-10.3.1-.1.1-.2.2-.3.3-.6 3.6-6.8 1.1-16zm14 33.1c-.9-.6-3.4-2.3-6.5-5.4.1-.1.2-.2.2-.4l2.2-8.9h8.3l2.2 8.9c0 .1.1.2.2.3-3.2 3.2-5.7 4.9-6.6 5.5zm4.3-16.1h-8.7l-2-3.4h12.7l-2 3.4zm41.5 22.6c-.7.9-1.7 1.4-2.8 1.4H5.4c-1.1 0-2.1-.5-2.8-1.4s-.8-2-.5-3c.7-2.5 1.5-4.9 2.2-7.2 2.8-9 11.1-14 21.6-13.2l1.5.1c1.4.1 2.6.2 4 .2 7.7 13 16.3 18 16.7 18.2.1.1.2.1.4.1.1 0 .2 0 .3-.1.1-.1 3.1-1.8 7.2-5.9 3.5-3.5 6.7-7.6 9.5-12.3 1.4-.1 2.6-.2 3.9-.2l1.6-.1c10.5-.8 18.8 4.2 21.6 13.2.7 2.4 1.5 4.8 2.2 7.2.4 1 .2 2.1-.5 3zm15.7-38c-1.4.6-2.4 1.8-2.9 3.2-.5 1.4-.4 2.9.2 4.3s1.8 2.4 3.2 2.9c.6.2 1.2.3 1.9.3.8 0 1.7-.2 2.4-.6 2.8-1.3 4-4.7 2.6-7.5-1.2-2.7-4.6-3.9-7.4-2.6zm6.4 6.5c-.4 1-1.1 1.9-2.1 2.4s-2.1.5-3.2.2c-1-.4-1.9-1.1-2.4-2.1s-.5-2.1-.2-3.2c.4-1 1.1-1.9 2.1-2.4.6-.3 1.2-.4 1.8-.4 1.6 0 3 .9 3.8 2.4.5.9.5 2 .2 3.1z"/><path d="M127 86.9c-.1-.2-.2-.4-.4-.5-.2-.1-.4-.1-.6 0l-.9.4c-.3.1-.6.1-.9 0s-.5-.3-.6-.6c-.2-.6 0-1.3.6-1.5l.9-.4c.2-.1.3-.2.4-.4.1-.2 0-.4-.1-.6-1.3-2.3-3.2-4.2-5.4-5.5-.2-.1-.4-.1-.6-.1-.2.1-.4.2-.4.4l-.4.9c-.3.6-.9.9-1.5.6s-.9-.9-.6-1.5l.4-.9c.1-.2.1-.4 0-.6s-.3-.3-.5-.4c-2.5-.7-5.2-.7-7.7 0-.2.1-.4.2-.5.4-.1.2-.1.4 0 .6l.4.9c.1.3.1.6 0 .9s-.3.5-.6.6c-.3.1-.6.1-.9 0s-.5-.3-.6-.6l-.5-1c-.1-.2-.2-.3-.4-.4-.2-.1-.4 0-.6.1-2.3 1.3-4.2 3.2-5.5 5.4-.1.2-.1.4-.1.6.1.2.2.4.4.4l.9.4c.6.3.9.9.6 1.5s-.9.9-1.5.6l-.9-.4c-.2-.1-.4-.1-.6 0s-.3.3-.4.5c-.7 2.5-.7 5.2 0 7.7.1.2.2.4.4.5.2.1.4.1.6 0l.9-.4c.6-.2 1.3 0 1.5.6.1.3.1.6 0 .9s-.3.5-.6.6l-.9.4c-.2.1-.3.2-.4.4-.1.2 0 .4.1.6 1.3 2.3 3.2 4.2 5.4 5.5.2.1.4.1.6.1.2-.1.4-.2.4-.4l.4-.9c.3-.6.9-.9 1.5-.6s.9.9.6 1.5l-.4.9c-.1.2-.1.4 0 .6s.3.3.5.4c1.3.4 2.6.5 4 .5 1.3 0 2.5-.2 3.8-.5.2-.1.4-.2.5-.4.1-.2.1-.4 0-.6l-.4-.9c-.2-.6 0-1.3.6-1.5s1.3 0 1.5.6l.4.9c.1.2.2.3.4.4.2.1.4 0 .6-.1 2.3-1.3 4.2-3.2 5.5-5.4.1-.2.1-.4.1-.6-.1-.2-.2-.4-.4-.4l-.9-.4c-.6-.3-.9-.9-.6-1.5s.9-.9 1.5-.6l.9.4c.2.1.4.1.6 0s.3-.3.4-.5c.7-2.4.7-5.1 0-7.6zm-1.3 6.5c-1.4-.6-3 .1-3.6 1.4s.1 2.9 1.4 3.5h.1c-1 1.5-2.3 2.8-3.8 3.7v-.1c-.5-1.3-2.1-2-3.4-1.5s-2 2.1-1.4 3.4v.1c-1.8.3-3.6.3-5.3 0v-.1c.6-1.3-.1-2.9-1.4-3.5s-2.9.1-3.5 1.4v.1c-1.5-1-2.8-2.3-3.7-3.8h.1c.7-.3 1.2-.8 1.4-1.4.3-.6.3-1.4 0-2-.5-1.3-2.1-2-3.4-1.4h-.1c-.3-1.8-.3-3.6 0-5.3h.1c1.3.6 2.9-.1 3.5-1.4s-.1-2.9-1.4-3.5h-.1c1-1.5 2.3-2.8 3.8-3.7v.1c.3.7.8 1.2 1.4 1.4.6.3 1.4.3 2 0 .7-.3 1.2-.8 1.4-1.4.3-.6.3-1.4 0-2v-.1c1.8-.3 3.6-.3 5.3 0v.1c-.6 1.3.1 2.9 1.4 3.5s2.9-.1 3.5-1.4v-.1c1.5 1 2.8 2.3 3.7 3.8h-.1c-1.3.5-2 2.1-1.4 3.4.3.7.8 1.2 1.4 1.4.6.3 1.4.3 2 0h.1c.4 1.9.4 3.7 0 5.4z"/></svg><svg viewBox="0 0 128 160" id="service-icon-4" xmlns="http://www.w3.org/2000/svg"><path d="M10.8 39.4c.4 0 .7-.3.7-.7V27.6c0-.4-.3-.7-.7-.7s-.7.3-.7.7v11.1c0 .3.3.7.7.7zm0 7.2c.4 0 .7-.3.7-.7v-3.6c0-.4-.3-.7-.7-.7s-.7.3-.7.7v3.6c0 .4.3.7.7.7zm114 24.5c-.4 0-.7.3-.7.7v11.1c0 .4.3.7.7.7.4 0 .7-.3.7-.7v-11c.1-.4-.3-.8-.7-.8zm0 14.7c-.4 0-.7.3-.7.7v3.6c0 .4.3.7.7.7.4 0 .7-.3.7-.7v-3.6c.1-.3-.3-.7-.7-.7zM25 10.4c0 .4.3.7.7.7H39c.4 0 .7-.3.7-.7 0-.4-.3-.7-.7-.7H25.7c-.4-.1-.7.3-.7.7zm-8 .7h4.3c.4 0 .7-.3.7-.7 0-.4-.3-.7-.7-.7H17c-.4 0-.7.3-.7.7 0 .4.3.7.7.7zm0-4.5h9.3c.4 0 .7-.3.7-.7 0-.4-.3-.7-.7-.7H17c-.4 0-.7.3-.7.7 0 .3.3.7.7.7zm13.3 0h3c.4 0 .7-.3.7-.7 0-.4-.3-.7-.7-.7h-3c-.4 0-.7.3-.7.7-.1.3.3.7.7.7zm70 109.4c0-.4-.3-.7-.7-.7H86.3c-.4 0-.7.3-.7.7 0 .4.3.7.7.7h13.3c.4 0 .7-.3.7-.7zm7.9-.8h-4.3c-.4 0-.7.3-.7.7 0 .4.3.7.7.7h4.3c.4 0 .7-.3.7-.7 0-.3-.3-.7-.7-.7zm0 4.6h-9.3c-.4 0-.7.3-.7.7 0 .4.3.7.7.7h9.3c.4 0 .7-.3.7-.7 0-.4-.3-.7-.7-.7zm-13.2 0h-3c-.4 0-.7.3-.7.7 0 .4.3.7.7.7h3c.4 0 .7-.3.7-.7 0-.4-.3-.7-.7-.7zM111.5 7.9c.1.1.3.2.5.2s.4-.1.5-.2c.3-.3.3-.8 0-1L111 5.3c-.3-.3-.8-.3-1 0-.3.3-.3.8 0 1l1.5 1.6zm5 4.9c.1.1.3.2.5.2s.4-.1.5-.2c.3-.3.3-.8 0-1l-1.5-1.5c-.3-.3-.8-.3-1 0-.3.3-.3.8 0 1l1.5 1.5zm-6 .2c.2 0 .4-.1.5-.2l1.5-1.5c.3-.3.3-.8 0-1-.3-.3-.8-.3-1 0l-1.5 1.5c-.3.3-.3.8 0 1 .2.2.3.2.5.2zm5-4.9c.2 0 .4-.1.5-.2l1.5-1.5c.3-.3.3-.8 0-1-.3-.3-.8-.3-1 0L115 6.8c-.3.3-.3.8 0 1 .1.2.3.3.5.3zM40.9 115.2c-.3-.3-.8-.3-1 0-.3.3-.3.8 0 1l1.5 1.5c.1.1.3.2.5.2s.4-.1.5-.2c.3-.3.3-.8 0-1l-1.5-1.5zm5 4.9c-.3-.3-.8-.3-1 0-.3.3-.3.8 0 1l1.5 1.5c.1.1.3.2.5.2s.4-.1.5-.2c.3-.3.3-.8 0-1l-1.5-1.5zm-4.5 0l-1.5 1.5c-.3.3-.3.8 0 1 .1.1.3.2.5.2s.4-.1.5-.2l1.5-1.5c.3-.3.3-.8 0-1-.2-.3-.7-.3-1 0zm5-4.9l-1.5 1.5c-.3.3-.3.8 0 1 .1.1.3.2.5.2s.4-.1.5-.2l1.5-1.5c.3-.3.3-.8 0-1-.3-.3-.8-.3-1 0zM1.8 68.1c-.3-.3-.8-.3-1 0s-.3.8 0 1l1.5 1.5c.1.1.3.2.5.2s.4-.1.5-.2c.3-.3.3-.8 0-1l-1.5-1.5zm6.4 6.5l-1.5-1.5c-.3-.3-.8-.3-1 0s-.3.8 0 1l1.5 1.5c.1.1.3.2.5.2s.4-.1.5-.2c.3-.3.3-.7 0-1zm-6-1.5L.7 74.6c-.3.3-.3.8 0 1 .1.1.3.2.5.2s.4-.1.5-.2l1.5-1.5c.3-.3.3-.8 0-1-.2-.3-.7-.3-1 0zm4-2.2c.2 0 .4-.1.5-.2l1.5-1.5c.3-.3.3-.8 0-1-.3-.3-.8-.3-1 0l-1.5 1.5c-.3.3-.3.8 0 1 .1.1.3.2.5.2zm117.6-32.3c-2 0-3.7 1.7-3.7 3.7s1.7 3.7 3.7 3.7 3.7-1.7 3.7-3.7c0-2.1-1.7-3.7-3.7-3.7zm0 5.9c-1.2 0-2.2-1-2.2-2.2 0-1.2 1-2.2 2.2-2.2s2.2 1 2.2 2.2c0 1.2-1 2.2-2.2 2.2zm-110 70.7c-2 0-3.7 1.7-3.7 3.7s1.7 3.7 3.7 3.7 3.7-1.7 3.7-3.7-1.7-3.7-3.7-3.7zm0 6c-1.2 0-2.2-1-2.2-2.2s1-2.2 2.2-2.2c1.2 0 2.2 1 2.2 2.2s-1 2.2-2.2 2.2zm11.1-30.5H9c-.4 0-.7.3-.7.7v17.8c0 .4.3.7.7.7h15.9c.4 0 .7-.3.7-.7V91.4c0-.4-.3-.7-.7-.7zm-.7 17.7H9.7V92.1h14.5v16.3zM48 82.6H32.1c-.4 0-.7.3-.7.7v25.8c0 .4.3.7.7.7H48c.4 0 .7-.3.7-.7V83.3c0-.4-.3-.7-.7-.7zm-.7 25.8H32.8V84h14.5v24.4zm23.8-30H55.2c-.4 0-.7.3-.7.7v30c0 .4.3.7.7.7h15.9c.4 0 .7-.3.7-.7v-30c.1-.4-.3-.7-.7-.7zm-.7 30H55.9V79.9h14.5v28.5zm24.6.8V64.7c0-.4-.3-.7-.7-.7h-16c-.4 0-.7.3-.7.7v44.5c0 .4.3.7.7.7h15.9c.4 0 .8-.3.8-.7zm-1.5-.8H79v-43h14.5v43zm23.8-54.2h-15.9c-.4 0-.7.3-.7.7v54.2c0 .4.3.7.7.7h15.9c.4 0 .7-.3.7-.7V54.9c.1-.4-.3-.7-.7-.7zm-.7 54.2h-14.5V55.7h14.5v52.7zM77.5 47.5l11.1 11.1c.1.1.3.2.5.2s.4-.1.5-.2L114.3 34c.3-.3.3-.8 0-1-.3-.3-.8-.3-1 0l-6.3 6.3c-.8-1.6-2.3-2.7-4-3.1-1.7-.4-3.6-.1-5 .9-2 1.5-5.3 1.5-7.3 0-1.4-1-3.2-1.4-5-.9-1.8.5-3.4 1.7-4.2 3.4-.5 1-1.6 5.1-1 8.8l-2.2-2.2c.1-.2.1-.4.2-.6.3-2-1.3-3.9-1.4-4-2.9-2.8-7.3-3.2-10.4-.9-1.4 1-3.2 1.6-5.1 1.6-1.9 0-3.7-.6-5.1-1.6-1.9-1.4-4.2-1.8-6.5-1.2-2.4.6-4.5 2.2-5.5 4.5-.5 1-.8 2.1-1 3.2-2.3-1.3-5.1-1.2-7.2.4-1.1.8-2.6 1.3-4.1 1.3-1.5 0-3-.5-4.1-1.3-1.5-1.1-3.5-1.5-5.5-1s-3.7 1.9-4.6 3.7c-.9 1.8-1.5 3.8-1.8 5.9-1.3 9.2 4 17.5 5.4 19.5l-5 5c-.3.3-.3.7 0 1 .1.1.3.2.5.2s.4-.1.5-.2l20-19.6 7.2 7.2.1.1 4.9 4.9c.1.1.3.2.5.2s.4-.1.5-.2l25.9-26c.3-.4.6-.6.8-.8zm5.3-7.3c.6-1.3 1.8-2.2 3.2-2.6 1.3-.3 2.7-.1 3.7.7 1.2.9 2.8 1.4 4.5 1.4 1.7 0 3.3-.5 4.5-1.4 1.1-.8 2.4-1 3.7-.7 1.4.4 2.6 1.3 3.2 2.6 0 .1.1.1.1.1L89.2 57l-6.5-6.5c-1.8-3.7-.4-9.2.1-10.3zM17.6 56.3c.3-2 .8-3.8 1.7-5.5.7-1.5 2-2.5 3.6-2.9 1.5-.4 3-.1 4.2.8 1.4 1 3.1 1.6 5 1.6 1.8 0 3.6-.6 5-1.6 1.8-1.3 4.2-1.2 6.1.1-.1.8-.1 1.7-.2 2.5-.2 4.5.7 11.2 1.3 15.3l-6.2-6.2-.1-.1-.1-.1h-.6l-.1.1s-.1 0-.1.1L22.6 74.5c-1.5-2.2-6.2-9.9-5-18.2zm32.7 16.3L46 68.3c-.6-3.6-1.8-11.8-1.6-17 0-.9.1-1.8.2-2.7v-.1c.2-1.4.5-2.8 1.1-4 .9-1.8 2.6-3.2 4.6-3.7 1.9-.5 3.8-.1 5.3 1 1.6 1.2 3.8 1.9 6 1.9s4.3-.7 6-1.9c2.5-1.8 6.2-1.5 8.5.7 0 0 1.2 1.5 1 2.8 0 .2-.1.3-.2.5L50.3 72.6zm11.2-37c5.9 0 10.6-5.1 10.6-11.3S67.3 13 61.5 13c-5.9 0-10.6 5.1-10.6 11.3s4.8 11.3 10.6 11.3zm0-21.2c5.1 0 9.2 4.4 9.2 9.9s-4.1 9.9-9.2 9.9-9.2-4.4-9.2-9.9 4.2-9.9 9.2-9.9zm32.8 19.3c4.4 0 8-3.8 8-8.5s-3.6-8.5-8-8.5-8 3.8-8 8.5 3.6 8.5 8 8.5zm0-15.6c3.6 0 6.5 3.2 6.5 7s-2.9 7-6.5 7-6.5-3.2-6.5-7 2.9-7 6.5-7z"/><path d="M32.1 24.8c-4.9 0-8.8 4.2-8.8 9.4s4 9.4 8.8 9.4c4.9 0 8.8-4.2 8.8-9.4s-4-9.4-8.8-9.4zm0 17.3c-4 0-7.3-3.5-7.3-7.9s3.3-7.9 7.3-7.9c4.1 0 7.3 3.5 7.3 7.9 0 4.3-3.3 7.9-7.3 7.9z"/></svg><svg viewBox="0 0 128 160" id="service-icon-5" xmlns="http://www.w3.org/2000/svg"><path d="M105.8 55.7c.1.4.5.6.9.5 3.2-.9 6.5-.5 9.4 1.1 2.9 1.6 5 4.3 5.9 7.4.9 3.2.5 6.5-1.1 9.4-1.6 2.9-4.3 5-7.4 5.9-.4.1-.6.5-.5.9.1.3.4.5.7.5h.2c3.6-1 6.5-3.4 8.3-6.6 1.8-3.2 2.2-7 1.2-10.6-1-3.6-3.4-6.5-6.6-8.3-3.2-1.8-7-2.2-10.6-1.2-.2.2-.5.6-.4 1z"/><path d="M112.2 75.5c-.4.1-.6.6-.4 1 .1.3.4.5.7.5h.3c2.1-.8 3.8-2.2 4.8-4.2 1.2-2.1 1.5-4.6.8-7-1.3-4.6-6-7.5-10.7-6.5-.4.1-.7.5-.6.9.1.4.5.7.9.6 3.9-.8 7.8 1.6 8.9 5.4.6 2 .3 4-.7 5.8-.8 1.7-2.3 2.9-4 3.5zm-89-33.4c.8.6 1.2 1.5 1.2 2.4 0 .4.3.8.8.8.4 0 .8-.3.8-.8 0-1.3-.6-2.6-1.7-3.5-.9-.8-2-1.2-3.2-1.4v-2.3c0-.4-.3-.8-.8-.8-.4 0-.8.3-.8.8v2.3c-1.2.1-2.3.6-3.2 1.4-1.1.9-1.7 2.2-1.7 3.5 0 1.3.6 2.6 1.7 3.5.9.8 2 1.2 3.2 1.4v6.9c-.8-.1-1.6-.5-2.2-1-.8-.7-1.2-1.5-1.2-2.4 0-.4-.3-.8-.8-.8-.4 0-.8.3-.8.8 0 1.3.6 2.6 1.7 3.5.9.8 2 1.2 3.2 1.4v2.3c0 .4.3.8.8.8.4 0 .8-.3.8-.8v-2.3c1.2-.1 2.3-.6 3.2-1.4 1.1-.9 1.7-2.2 1.7-3.5 0-1.3-.6-2.6-1.7-3.5-.9-.8-2-1.2-3.2-1.4v-6.9c.8.2 1.6.5 2.2 1zM17.3 47c-.8-.6-1.2-1.5-1.2-2.4 0-.9.4-1.8 1.2-2.4.6-.5 1.4-.8 2.2-1v6.7c-.9-.1-1.6-.4-2.2-.9zm5.9 3.6c.8.6 1.2 1.5 1.2 2.4 0 .9-.4 1.8-1.2 2.4-.6.5-1.4.9-2.2 1v-6.8c.8.1 1.6.4 2.2 1zm96.1-10.9c.4 0 .8-.3.8-.8v-15c0-.4-.3-.8-.8-.8-.4 0-.8.3-.8.8V39c0 .4.4.7.8.7zm-3.4 4.4c.4 0 .8-.3.8-.8v-4.9c0-.4-.3-.8-.8-.8-.4 0-.8.3-.8.8v4.9c0 .5.3.8.8.8zM8.3 79.5c-.4 0-.8.3-.8.8v15.1c0 .4.3.8.8.8.4-.2.7-.5.7-.9V80.2c0-.4-.3-.7-.7-.7zm0 20c-.4 0-.8.3-.8.8v4.9c0 .4.3.8.8.8.4 0 .8-.3.8-.8v-4.9c-.1-.5-.4-.8-.8-.8zm96.8-95.1c.1.1.3.2.5.2s.4-.1.5-.2c.3-.3.3-.8 0-1.1l-2-2c-.3-.3-.8-.3-1.1 0-.3.3-.3.8 0 1.1l2.1 2zm6.6 6.6c.1.1.3.2.5.2s.4-.1.5-.2c.3-.3.3-.8 0-1.1l-2-2c-.3-.3-.8-.3-1.1 0-.3.3-.3.8 0 1.1l2.1 2zm-8.2.2c.2 0 .4-.1.5-.2l2-2c.3-.3.3-.8 0-1.1-.3-.3-.8-.3-1.1 0l-2 2c-.3.3-.3.8 0 1.1.3.1.5.2.6.2zm6.7-6.6c.2 0 .4-.1.5-.2l2-2c.3-.3.3-.8 0-1.1-.3-.3-.8-.3-1.1 0l-2 2c-.3.3-.3.8 0 1.1.2.1.4.2.6.2zm6 88.9c.1.1.3.2.5.2s.4-.1.5-.2c.3-.3.3-.8 0-1.1l-2-2c-.3-.3-.8-.3-1.1 0-.3.3-.3.8 0 1.1l2.1 2zm7.2 6.8c.2 0 .4-.1.5-.2.3-.3.3-.8 0-1.1l-2-2c-.3-.3-.8-.3-1.1 0-.3.3-.3.8 0 1.1l2 2c.2.2.4.2.6.2zm-9.2-.2c.1.1.3.2.5.2s.4-.1.5-.2l2-2c.3-.3.3-.8 0-1.1-.3-.3-.8-.3-1.1 0l-2 2c-.2.4-.2.8.1 1.1zm8.6-9.7l-2 2c-.3.3-.3.8 0 1.1.1.1.3.2.5.2s.4-.1.5-.2l2-2c.3-.3.3-.8 0-1.1-.2-.3-.7-.3-1 0zM16.5 116.5c-.3-.3-.8-.3-1.1 0-.3.3-.3.8 0 1.1l2 2c.1.1.3.2.5.2s.4-.1.5-.2c.3-.3.3-.8 0-1.1l-1.9-2zm6.6 6.6c-.3-.3-.8-.3-1.1 0-.3.3-.3.8 0 1.1l2 2c.1.1.3.2.5.2s.4-.1.5-.2c.3-.3.3-.8 0-1.1l-1.9-2zm-5.6 0l-2 2c-.3.3-.3.8 0 1.1.1.1.3.2.5.2s.4-.1.5-.2l2-2c.3-.3.3-.8 0-1.1-.2-.2-.7-.2-1 0zm6.6-6.6l-2 2c-.3.3-.3.8 0 1.1.1.1.3.2.5.2s.4-.1.5-.2l2-2c.3-.3.3-.8 0-1.1-.2-.3-.7-.3-1 0zM72.7 9.7c2.5 0 4.6-2.1 4.6-4.6 0-2.5-2.1-4.6-4.6-4.6-2.5 0-4.6 2.1-4.6 4.6 0 2.6 2.1 4.6 4.6 4.6zm0-7.7c1.7 0 3.1 1.4 3.1 3.1 0 1.7-1.4 3.1-3.1 3.1-1.7 0-3.1-1.4-3.1-3.1C69.6 3.4 71 2 72.7 2zM24.3 80c-2.5 0-4.6 2.1-4.6 4.6 0 2.5 2.1 4.6 4.6 4.6 2.5 0 4.6-2.1 4.6-4.6 0-2.5-2-4.6-4.6-4.6zm0 7.8c-1.7 0-3.1-1.4-3.1-3.1s1.4-3.1 3.1-3.1c1.7 0 3.1 1.4 3.1 3.1s-1.3 3.1-3.1 3.1zM14.1 6.7H32c.4 0 .8-.3.8-.8s-.4-.8-.8-.8H14.1c-.4 0-.8.3-.8.8s.4.8.8.8zm-11.6 0h5.8c.4 0 .7-.4.7-.8s-.3-.8-.7-.8H2.5c-.4 0-.8.3-.8.8s.4.8.8.8zm12.4 6.1c.4 0 .8-.3.8-.8s-.3-.8-.8-.8H2.5c-.4 0-.8.3-.8.8s.3.8.8.8h12.4zm5.4-1.5c-.4 0-.8.3-.8.8s.3.8.8.8h4c.4 0 .8-.3.8-.8s-.3-.8-.8-.8h-4zM113.9 126H96c-.4 0-.8.3-.8.8 0 .4.3.8.8.8h17.9c.4 0 .8-.3.8-.8-.1-.5-.4-.8-.8-.8zm11.6 0h-5.8c-.4 0-.8.3-.8.8 0 .4.3.8.8.8h5.8c.4 0 .8-.3.8-.8s-.4-.8-.8-.8zm-13.2-5.4c0 .4.3.8.8.8h12.5c.4 0 .8-.3.8-.8 0-.4-.3-.8-.8-.8h-12.5c-.5.1-.8.4-.8.8zm-8.6-.7c-.4 0-.8.3-.8.8 0 .4.3.8.8.8h4c.4 0 .8-.3.8-.8 0-.4-.3-.8-.8-.8h-4z"/><path d="M97.8 115.4V79.6l11.1 2.3c.3.1.5 0 .7-.2.2-.2.2-.5.2-.7l-6.7-23.5c-.1-.3-.3-.5-.5-.5-.3-.1-.5 0-.7.2L97.8 61V20.1c0-2.3-1.9-4.1-4.1-4.1H38.5c-2.3 0-4.1 1.9-4.1 4.1v17.3c-2-2.5-4.7-4.4-7.9-5.6-9.5-3.4-20 1.5-23.4 11-3 8.4.4 17.6 8 22.1 0 .6-.5 2.3-1.2 4-.1.2-.1.4 0 .6.1.2.2.3.4.4.1 0 .2.1.4.1.7 0 1.6-.5 3.5-1.6.8-.5 2.1-1.2 2.5-1.3 6.7 1.4 13.5-1.2 17.7-6.3v54.8c0 2.3 1.9 4.1 4.1 4.1h55.2c2.3-.1 4.1-2 4.1-4.3zm4.2-56.3l6 21.1L92.2 77h-.4l-17.7 5c-1.8.5-3.7-.5-4.3-2.4-.3-.9-.1-1.8.3-2.6.5-.8 1.2-1.4 2.1-1.6L90 70.3c.1 0 .2-.1.3-.2l11.7-11zM81.9 81.4c.1.5-.1.8-.5 1.3-.5.6-1.1 1.5-.7 2.7.3 1.2 1.3 1.6 2 1.9.6.3 1 .4 1.1.9.1.5-.1.8-.5 1.3-.5.6-1.1 1.5-.7 2.7.3 1.2 1.3 1.6 2 1.9.6.3 1 .4 1.1.9.3.9-.2 1.9-1 2.1-.1 0-.1.1-.2.1h-.2l-1.8.5c-.6.2-1.2-.2-1.4-.8l-4-14.1 4.8-1.4zm-43.4-64h55.2c1.4 0 2.6 1.2 2.6 2.6v8.7H35.9V20c0-1.4 1.2-2.6 2.6-2.6zM16.9 65.5c-.6-.1-1.4.3-3.5 1.5-.4.3-1 .6-1.5.9 1.3-3.5.4-4 .1-4.2C4.9 59.6 1.7 51 4.5 43.3c2.5-6.9 8.9-11.1 15.8-11.1 1.9 0 3.8.3 5.7 1 8.7 3.1 13.3 12.8 10.1 21.5-2.8 7.8-11 12.4-19.2 10.8zm20.6-10.3c2-5.4 1.2-11.2-1.6-15.8v-9.1h60.4v32.1l-7 6.6-17.6 5c-1.3.4-2.3 1.2-3 2.4-.6 1.2-.8 2.5-.4 3.8.6 2.2 2.6 3.6 4.8 3.6.5 0 .9-.1 1.4-.2l1.3-.4 4 14.1c.3 1.2 1.4 1.9 2.5 1.9.2 0 .5 0 .7-.1l1.8-.5s.1 0 .1-.1h.2c1.6-.5 2.5-2.2 2-4-.3-1.2-1.3-1.6-2-1.9-.6-.3-1-.4-1.1-.9-.1-.5.1-.8.5-1.3.4-.6 1.1-1.5.7-2.7-.3-1.2-1.3-1.6-2-1.9-.6-.3-1-.4-1.1-.9-.1-.5.1-.8.5-1.3.5-.6 1.1-1.5.7-2.6l8.8-2.5 4.2.9v25.9H35.9V58.5c.7-1 1.2-2.1 1.6-3.3zm56.2 62.9H38.5c-1.4 0-2.6-1.2-2.6-2.6v-8.7h60.4v8.7c0 1.4-1.1 2.6-2.6 2.6z"/><path d="M74.4 110H57.9c-1.2 0-2.2 1-2.2 2.2v.5c0 1.2 1 2.2 2.2 2.2h16.5c1.2 0 2.2-1 2.2-2.2v-.5c-.1-1.2-1-2.2-2.2-2.2zm.6 2.7c0 .4-.3.7-.7.7H57.9c-.4 0-.7-.3-.7-.7v-.5c0-.4.3-.7.7-.7h16.5c.4 0 .7.3.7.7v.5zm-15.3-89h12.8c.4 0 .8-.3.8-.8 0-.4-.3-.8-.8-.8H59.7c-.4 0-.8.3-.8.8.1.4.4.8.8.8zM40.4 47.6h13.2c.4 0 .8-.3.8-.8v-12c0-.4-.3-.8-.8-.8H40.4c-.4 0-.8.3-.8.8v12c.1.5.4.8.8.8zm.8-12h11.7v10.5H41.2V35.6zm18.3 12h13.2c.4 0 .8-.3.8-.8v-12c0-.4-.3-.8-.8-.8H59.5c-.4 0-.8.3-.8.8v12c.1.5.4.8.8.8zm.8-12H72v10.5H60.3V35.6zm18.3 12h13.2c.4 0 .8-.3.8-.8v-12c0-.4-.3-.8-.8-.8H78.6c-.4 0-.8.3-.8.8v12c0 .5.4.8.8.8zm.7-12H91v10.5H79.3V35.6zm-38.9 30h13.2c.4 0 .8-.3.8-.8v-12c0-.4-.3-.8-.8-.8H40.4c-.4 0-.8.3-.8.8v12c.1.4.4.8.8.8zm.8-12.1h11.7V64H41.2V53.5zm18.3 12.1h13.2c.4 0 .8-.3.8-.8v-12c0-.4-.3-.8-.8-.8H59.5c-.4 0-.8.3-.8.8v12c.1.4.4.8.8.8zm.8-12.1H72V64H60.3V53.5z"/></svg><svg viewBox="0 0 128 160" id="service-icon-6" xmlns="http://www.w3.org/2000/svg"><path d="M122.5 30.2H110c-.4 0-.8.3-.8.8v95.8c0 .4.3.8.8.8h12.5c.4 0 .8-.3.8-.8V30.9c0-.4-.4-.7-.8-.7zM110.7 126V31.7h11v6.4h-5.4c-.4 0-.8.3-.8.8 0 .4.3.8.8.8h5.4V46h-3.8c-.4 0-.8.3-.8.8s.3.8.8.8h3.8v6.6h-5.4c-.4 0-.8.3-.8.8 0 .4.3.8.8.8h5.4V62h-3.8c-.4 0-.8.3-.8.8s.3.8.8.8h3.8v6.6h-5.4c-.4 0-.8.3-.8.8 0 .4.3.8.8.8h5.4V78h-3.8c-.4 0-.8.3-.8.8 0 .4.3.8.8.8h3.8v6.6h-5.4c-.4 0-.8.3-.8.8 0 .4.3.8.8.8h5.4v6.4h-3.8c-.4 0-.8.3-.8.8s.3.8.8.8h3.8v6.6h-5.4c-.4 0-.8.3-.8.8 0 .4.3.8.8.8h5.4v6.4h-3.8c-.4 0-.8.3-.8.8 0 .4.3.8.8.8h3.8v6.6h-5.4c-.4 0-.8.3-.8.8 0 .4.3.8.8.8h5.4v6.5h-11zM93.4 41.8V97c0 2.9 2.4 5.3 5.3 5.3h.3c2.9 0 5.3-2.4 5.3-5.3V41.1l-4.7-10.5c-.2-.5-1.1-.5-1.4 0l-4.7 10.5c-.1.2-.1.3 0 .5-.1.1-.1.1-.1.2zm1.5 46.7h7.8v3.8h-7.8v-3.8zm7.9-1.5H95V42.5h7.8V87zM99 100.7h-.3c-2.1 0-3.8-1.7-3.8-3.8v-3.1h7.8V97c.1 2.1-1.6 3.7-3.7 3.7zm-.1-67.9l3.7 8.2h-7.3l3.6-8.2z"/><path d="M98.9 78.5c.4 0 .8-.3.8-.8v-4c0-.4-.3-.8-.8-.8-.4 0-.8.3-.8.8v4c0 .5.3.8.8.8zm0-10c.4 0 .8-.3.8-.8v-4c0-.4-.3-.8-.8-.8-.4 0-.8.3-.8.8v4c0 .4.3.8.8.8zm0-10.1c.4 0 .8-.3.8-.8v-4c0-.4-.3-.8-.8-.8-.4 0-.8.3-.8.8v4c0 .5.3.8.8.8zm-77-8.2h.2c.3 0 .6-.2.7-.5.1-.4-.1-.8-.5-1-.8-.3-1.5-.6-2.3-.9-.4-.2-.8 0-1 .4-.2.4 0 .8.4 1 .9.4 1.7.7 2.5 1zM5.5 25.8c.4 0 .7-.3.8-.7.1-1.7.3-3.4.7-5 .1-.4-.1-.8-.5-.9-.5-.2-.9.1-1 .5-.4 1.7-.7 3.5-.8 5.3 0 .4.3.7.8.8zM16.2 6.4c.1 0 .3 0 .4-.1 1.4-1 2.9-1.8 4.4-2.4.4-.2.6-.6.4-1-.2-.4-.6-.6-1-.4-1.6.6-3.2 1.5-4.6 2.5-.3.2-.4.7-.2 1 .1.3.4.4.6.4zM7.6 36.9c.1 0 .2 0 .3-.1.4-.2.5-.6.4-1-.7-1.5-1.2-3.2-1.6-4.8-.1-.4-.5-.7-.9-.6-.4.1-.7.5-.6.9.4 1.7.9 3.5 1.7 5.1.2.4.4.5.7.5zm.6-22.2c.1.1.2.1.4.1.3 0 .5-.1.7-.4.8-1.5 1.8-2.9 2.9-4.1.3-.3.2-.8-.1-1.1-.4-.3-.9-.2-1.1.1-1.2 1.4-2.2 2.8-3.1 4.4-.2.4-.1.8.3 1zM26.8 2.2h.1c1.7-.2 3.4-.3 5-.2.4 0 .8-.3.8-.7 0-.4-.3-.8-.7-.8-1.8-.1-3.6-.1-5.4.2-.3.1-.6.5-.6.9.1.4.4.6.8.6zm11.1 1c1.6.5 3.1 1.2 4.6 2.1.1.1.3.1.4.1.3 0 .5-.1.6-.4.2-.4.1-.8-.3-1-1.5-.9-3.2-1.7-4.9-2.2-.4-.1-.8.1-1 .5 0 .4.2.8.6.9zM14.6 46c.2 0 .4-.1.6-.3.3-.3.2-.8-.1-1.1a30.6 30.6 0 01-3.6-3.6c-.3-.3-.7-.4-1.1-.1-.3.3-.4.7-.1 1.1 1.1 1.4 2.4 2.7 3.8 3.8.1.1.3.2.5.2zm35.8-33c.1.2.4.3.6.3.1 0 .3 0 .4-.1.3-.2.4-.7.2-1-1-1.5-2.1-2.9-3.4-4.2-.3-.3-.8-.3-1.1 0-.3.3-.3.8 0 1.1 1.3 1.1 2.4 2.5 3.3 3.9zm3.3 7.8c.1.4.4.6.7.6h.2c.4-.1.7-.5.6-.9-.2-.8-.4-1.7-.7-2.5-.1-.4-.6-.6-1-.5-.4.1-.6.6-.5 1 .3.7.5 1.5.7 2.3zm23.8 95.8h14.8c.4 0 .8-.3.8-.8 0-.4-.3-.8-.8-.8H77.5c-.4 0-.8.3-.8.8.1.4.4.8.8.8z"/><path d="M104.3 126.6v-.1c-1-3.4-2-6.8-3.1-10.1-2.4-7.8-9.6-12.2-18.6-11.5l-4.8.3c.2-.4.5-.9.7-1.3v-.8l-2-3v-6.8c2.9-2.6 5.3-6.3 6.8-10.6h.1c2.2 0 3.9-3.3 3.9-7.6 0-3.6-1.1-6.5-2.8-7.3v-.2c.3-2.4.6-4.8.8-7.2.7-10.5-2.1-11.9-7.4-13.5-.4-.1-.8-.3-1.3-.4-4.3-1.4-8.8-1.7-11.8-1.7s-7.4.3-11.8 1.7c-.4.1-.9.3-1.3.4-5.4 1.7-8.1 3-7.4 13.5.2 2.4.5 4.9.8 7.2v.2c-1.7.8-2.8 3.7-2.8 7.3 0 4.4 1.8 7.7 4 7.6 1.5 4.4 3.8 8 6.8 10.6v6.8l-2 3v.1s0 .1-.1.1v.4c.2.5.5.9.7 1.3-1.6-.1-3.2-.2-4.7-.3-9.1-.7-16.2 3.7-18.6 11.5-1 3.3-2.1 6.7-3.1 10.1v.5l.1.1.1.1.1.1.1.1h78.1s.1 0 .1-.1c0 0 .1 0 .1-.1l.1-.1.1-.1v-.3c.1.2.1.2.1.1zM52.1 48.3c.4-.1.9-.3 1.3-.4 3.3-1.1 7.2-1.6 11.3-1.6 4.1 0 8 .6 11.3 1.6.5.1.9.3 1.3.4 4.7 1.4 7 2.2 6.4 12l-.3 3.3c-.8-2.4-2.1-4.9-4.3-5.1-3.6-.4-13.1-.3-13.5-.3 0 0-4.1.3-8.4-4-.2-.2-.4-.2-.6-.2-.2 0-.4.1-.5.3-.7.9-1.4 2.7-.5 4.5-2.3-.4-5.9-.6-7.2 1-.9 1-1.6 2.8-2.2 4.5-.1-1.3-.3-2.6-.4-4-.7-9.9 1.7-10.6 6.3-12zm-4.7 33.3c-.1-.2-.2-.4-.4-.5-.1 0-.2-.1-.3-.1-.1 0-.2 0-.3.1-.1.1-.2.1-.3.1-1 0-2.4-2.3-2.4-6.1 0-3.3 1.1-5.8 2.2-6 .3-.1.5-.3.6-.6v-.2c.4-1.7 1.6-6.1 2.9-7.6 1-1.2 5.2-.7 7.8 0 .3.1.7-.1.9-.4.2-.3.1-.7-.2-.9-1.5-1.2-1.4-2.6-1.1-3.4 4.6 4 8.7 3.7 8.8 3.7.1 0 9.8-.1 13.3.3 2.3.3 3.6 5.8 3.9 8.1v.4c.1.3.3.5.6.6 1.1.2 2.2 2.7 2.2 6 0 3.8-1.4 6.1-2.4 6.1-.1 0-.2 0-.3-.1-.2-.1-.4-.1-.6 0-.2.1-.3.3-.4.5-2.8 9.1-9.6 15-17.3 15-7.6-.1-14.4-5.9-17.2-15zM64.7 98c3.7 0 7.2-1.3 10.3-3.5v6s0 .1.1.1v.1l1.9 2.8c-1.9 3.7-4 7-6.3 9.9l-1.4-5.8 2.1-3.6c.1-.2.1-.5 0-.8-.1-.2-.4-.4-.7-.4h-12c-.3 0-.5.1-.7.4-.1.2-.1.5 0 .8l2.2 3.7-1.4 5.8c-2-2.5-4.2-5.8-6.3-10l1.9-2.9v-.1s0-.1.1-.1v-6c3 2.4 6.5 3.6 10.2 3.6zm0 21.7c-.8-.6-2.5-2.1-4.7-4.6l1.6-6.7H68l1.6 6.6c-2.3 2.5-4.1 4.1-4.9 4.7zm3.4-12.8h-6.7l-1.4-2.4h9.5l-1.4 2.4zm-38.4 10c2.2-7.1 8.7-11.1 17.1-10.4l5.7.3c5.7 10.2 11.6 14.2 11.9 14.4h.2c.1 0 .2.1.3.1.1 0 .2 0 .3-.1h.2c.1-.1 2.5-1.7 5.8-5.6 2.2-2.6 4.2-5.6 6.1-8.8l5.7-.3c8.3-.6 14.9 3.3 17.1 10.4.9 3 1.9 6 2.8 9.1h-76c.9-3.1 1.9-6.1 2.8-9.1zm35-103.7c.4 0 .8-.3.8-.8V1.6c0-.4-.3-.8-.8-.8-.4 0-.8.3-.8.8v10.9c.1.4.4.7.8.7zm0 7.1c.4 0 .8-.3.8-.8V16c0-.4-.3-.8-.8-.8-.4 0-.8.3-.8.8v3.5c.1.5.4.8.8.8zM33.9 77.8c0-.4-.3-.8-.8-.8s-.8.3-.8.8v10.9c0 .4.3.8.8.8s.8-.3.8-.8V77.8z"/><path d="M33.2 91.5c-.4 0-.8.3-.8.8v3.5c0 .4.3.8.8.8s.8-.3.8-.8v-3.5c-.1-.4-.4-.8-.8-.8zm24.7-58.4c.1.1.3.2.5.2s.4-.1.5-.2c.3-.3.3-.8 0-1.1l-1.5-1.5c-.3-.3-.8-.3-1.1 0-.3.3-.3.8 0 1.1l1.6 1.5zm4.8 4.8c.1.1.3.2.5.2s.4-.1.5-.2c.3-.3.3-.8 0-1.1l-1.5-1.5c-.3-.3-.8-.3-1.1 0-.3.3-.3.8 0 1.1l1.6 1.5zm-5.7.2c.2 0 .4-.1.5-.2l1.5-1.5c.3-.3.3-.8 0-1.1-.3-.3-.8-.3-1.1 0l-1.5 1.5c-.3.3-.3.8 0 1.1.2.1.4.2.6.2zm4.8-4.8c.2 0 .4-.1.5-.2l1.5-1.5c.3-.3.3-.8 0-1.1-.3-.3-.8-.3-1.1 0L61.2 32c-.3.3-.3.8 0 1.1.2.1.4.2.6.2zM78.9 7.8c.1.1.3.2.5.2s.4-.1.5-.2c.3-.3.3-.8 0-1.1l-1.5-1.5c-.3-.3-.8-.3-1.1 0-.3.3-.3.8 0 1.1l1.6 1.5zm4.8 4.7c.1.1.3.2.5.2s.4-.1.5-.2c.3-.3.3-.8 0-1.1L83.3 10c-.3-.3-.8-.3-1.1 0-.3.3-.3.8 0 1.1l1.5 1.4zm-5.7.3c.2 0 .4-.1.5-.2l1.5-1.5c.3-.3.3-.8 0-1.1-.3-.3-.8-.3-1.1 0l-1.5 1.5c-.3.3-.3.8 0 1.1.2.1.4.2.6.2zM82.7 8c.2 0 .4-.1.5-.2l1.5-1.5c.3-.3.3-.8 0-1.1-.3-.3-.8-.3-1.1 0l-1.5 1.5c-.3.3-.3.8 0 1.1.2.1.4.2.6.2zM12.8 70.4L11.3 69c-.3-.3-.8-.3-1.1 0-.3.3-.3.8 0 1.1l1.5 1.5c.1.1.3.2.5.2s.4-.1.5-.2c.4-.4.4-.9.1-1.2zm3.3 3.3c-.3-.3-.8-.3-1.1 0-.3.3-.3.8 0 1.1l1.5 1.5c.1.1.3.2.5.2s.4-.1.5-.2c.3-.3.3-.8 0-1.1l-1.4-1.5zm-3.3 1.1c.3-.3.3-.8 0-1.1-.3-.3-.8-.3-1.1 0l-1.5 1.5c-.3.3-.3.8 0 1.1.1.1.3.2.5.2s.4-.1.5-.2l1.6-1.5zm4.8-5.8c-.3-.3-.8-.3-1.1 0L15 70.4c-.3.3-.3.8 0 1.1.1.1.3.2.5.2s.4-.1.5-.2l1.5-1.5c.4-.3.4-.7.1-1zm64.6-41.6c-2 0-3.5 1.6-3.5 3.5 0 2 1.6 3.5 3.5 3.5 2 0 3.5-1.6 3.5-3.5.1-1.9-1.5-3.5-3.5-3.5zm0 5.6c-1.1 0-2-.9-2-2s.9-2 2-2 2 .9 2 2c.1 1-.9 2-2 2zm-.7 62.8c0 2 1.6 3.5 3.5 3.5 2 0 3.5-1.6 3.5-3.5 0-2-1.6-3.5-3.5-3.5s-3.5 1.5-3.5 3.5zm5.5 0c0 1.1-.9 2-2 2s-2-.9-2-2 .9-2 2-2 2 .9 2 2zM35.6 59.4c0-2.3-1.8-4.1-4.1-4.1s-4.1 1.8-4.1 4.1 1.8 4.1 4.1 4.1 4.1-1.8 4.1-4.1zM31.5 62c-1.4 0-2.6-1.2-2.6-2.6 0-1.4 1.2-2.6 2.6-2.6 1.4 0 2.6 1.2 2.6 2.6 0 1.4-1.1 2.6-2.6 2.6zm74.4-52.2h12.9c.4 0 .8-.3.8-.8s-.3-.8-.8-.8h-12.9c-.4 0-.8.3-.8.8s.4.8.8.8zm-8.4 0h4.2c.4 0 .8-.3.8-.8s-.3-.8-.8-.8h-4.2c-.4 0-.8.3-.8.8s.3.8.8.8zm9 2.9h-9c-.4 0-.8.3-.8.8s.3.8.8.8h9c.4 0 .8-.3.8-.8s-.4-.8-.8-.8zm3.8 0c-.4 0-.8.3-.8.8s.3.8.8.8h2.9c.4 0 .8-.3.8-.8s-.3-.8-.8-.8h-2.9zm-95.5 91.8h12.9c.4 0 .8-.3.8-.8s-.3-.8-.8-.8H14.8c-.4 0-.8.3-.8.8s.4.8.8.8zM6.4 103c-.4 0-.8.3-.8.8s.3.8.8.8h4.2c.4 0 .8-.3.8-.8s-.4-.8-.8-.8H6.4zm9 4.4h-9c-.4 0-.8.3-.8.8 0 .4.3.8.8.8h9c.4 0 .8-.3.8-.8-.1-.5-.4-.8-.8-.8zm6.8 0h-2.9c-.4 0-.8.3-.8.8 0 .4.3.8.8.8h2.9c.4 0 .8-.3.8-.8-.1-.5-.4-.8-.8-.8zM10.5 25.7c0 1.6.2 3.1.6 4.6 2.1 8.8 9.9 14.9 19 14.9 1.1 0 2.2-.1 3.3-.3 9.4-1.6 16.2-9.7 16.2-19.2 0-10.8-8.7-19.5-19.5-19.5-10.9 0-19.6 8.7-19.6 19.5zm37.5 0c0 8.8-6.3 16.3-14.9 17.7-1 .2-2.1.3-3.1.3-8.3 0-15.5-5.7-17.5-13.8-.3-1.4-.5-2.8-.5-4.3 0-9.9 8.1-18 18-18 9.9.1 18 8.1 18 18.1z"/><path d="M30 23.4c-1.3 0-2.3 1-2.3 2.3 0 1.3 1 2.3 2.3 2.3h.3l2.3 4.7c.1.3.4.4.7.4.1 0 .2 0 .3-.1.4-.2.5-.6.3-1l-2.3-4.7c.1-.1.1-.2.2-.2 0-.1.1-.1.1-.2.1-.1.1-.3.2-.4 0-.1.1-.1.1-.2.1-.2.1-.4.1-.7v-.2l9.3-4.3c.4-.2.5-.6.4-1-.2-.4-.6-.5-1-.4L31.7 24c-.5-.4-1.1-.6-1.7-.6zm-.9 2.3c0-.4.3-.8.8-.8l-.2.1c-.4.2-.5.6-.3 1l.1.2c-.3-.1-.4-.3-.4-.5zm.1-15.6v2.1c0 .4.3.8.8.8.4 0 .8-.3.8-.8v-2.1c0-.4-.3-.8-.8-.8-.4 0-.8.3-.8.8zM16.4 24.9h-2.1c-.4 0-.8.3-.8.8 0 .4.3.8.8.8h2.1c.4 0 .8-.3.8-.8 0-.4-.3-.8-.8-.8zM30 38.4c-.4 0-.8.3-.8.8v2.1c0 .4.3.8.8.8.4 0 .8-.3.8-.8v-2.1c-.1-.4-.4-.8-.8-.8zm13.5-12h2.1c.4 0 .8-.3.8-.8 0-.4-.3-.8-.8-.8h-2.1c-.4 0-.8.3-.8.8s.4.8.8.8z"/></svg><svg viewBox="0 0 128 160" id="service-icon-7" xmlns="http://www.w3.org/2000/svg"><path d="M64 15.9c1.3 0 2.4-.9 2.7-2.1H79c-3.6 2-6.1 5.8-6.4 10.1h-1.2c-.4 0-.8.3-.8.8v3.6c0 .4.3.8.8.8H75c.4 0 .8-.3.8-.8v-3.6c0-.4-.3-.8-.8-.8h-.9c.3-4.8 3.8-8.9 8.6-9.9v.8c0 .4.3.8.8.8H87c.4 0 .8-.3.8-.8V14c4.7 1 8.2 5.1 8.5 9.9h-.9c-.4 0-.8.3-.8.8v3.6c0 .4.3.8.8.8H99c.4 0 .8-.3.8-.8v-3.6c0-.4-.3-.8-.8-.8h-1.2c-.3-4.3-2.7-8.1-6.4-10.1h12.3a2.795 2.795 0 005.5-.7 2.795 2.795 0 00-5.5-.7h-16v-1c0-.4-.3-.8-.8-.8h-3.6c-.4 0-.8.3-.8.8v1h-16a2.795 2.795 0 00-5.5.7c.2 1.6 1.4 2.8 3 2.8zm10.3 11.6h-2.1v-2.1h2.1v2.1zm24 0h-2.1v-2.1h2.1v2.1zm8.2-15.7c.7 0 1.3.6 1.3 1.3 0 .7-.6 1.3-1.3 1.3-.7 0-1.3-.6-1.3-1.3-.1-.7.5-1.3 1.3-1.3zm-22.3.3h2.1v2.1h-2.1v-2.1zM64 11.8c.7 0 1.3.6 1.3 1.3 0 .7-.6 1.3-1.3 1.3-.7 0-1.3-.6-1.3-1.3 0-.7.6-1.3 1.3-1.3zM7.9 74.1c0-.4-.3-.8-.8-.8-.4 0-.8.3-.8.8v13.2c0 .4.3.8.8.8.4 0 .8-.3.8-.8V74.1zm-.8 16.8c-.4 0-.8.3-.8.8V96c0 .4.3.8.8.8.4 0 .8-.3.8-.8v-4.3c0-.5-.4-.8-.8-.8zm113-65.2c.4 0 .8-.3.8-.8V11.8c0-.4-.3-.8-.8-.8s-.8.3-.8.8V25c0 .4.3.7.8.7zm0 8.7c.4 0 .8-.3.8-.8v-4.3c0-.4-.3-.8-.8-.8s-.8.3-.8.8v4.3c0 .4.3.8.8.8zM1.8 54.6c-.3-.3-.8-.3-1.1 0-.3.3-.3.8 0 1.1L2.1 57c.1.1.3.2.5.2s.4-.1.5-.2c.3-.3.3-.8 0-1.1l-1.3-1.3zm3.4 5.5l1.4 1.4c.1.1.3.2.5.2s.4-.1.5-.2c.3-.3.3-.8 0-1.1L6.3 59c-.3-.3-.8-.3-1.1 0-.3.3-.3.8 0 1.1zM2.1 59L.7 60.4c-.3.3-.3.8 0 1.1.1.1.3.2.5.2s.4-.1.5-.2l1.4-1.4c.3-.3.3-.8 0-1.1-.2-.2-.7-.2-1 0zm3.6-1.8c.2 0 .4-.1.5-.2l1.4-1.4c.3-.3.3-.8 0-1.1-.3-.3-.8-.3-1.1 0l-1.4 1.4c-.3.3-.3.8 0 1.1.3.2.4.2.6.2zm44.1 51.4c-.3-.3-.8-.3-1.1 0-.3.3-.3.8 0 1.1l1.4 1.4c.1.1.3.2.5.2s.4-.1.5-.2c.3-.3.3-.8 0-1.1l-1.3-1.4zm4.5 4.5c-.3-.3-.8-.3-1.1 0-.3.3-.3.8 0 1.1l1.4 1.4c.1.1.3.2.5.2s.4-.1.5-.2c.3-.3.3-.8 0-1.1l-1.3-1.4zm-4.2 0l-1.4 1.4c-.3.3-.3.8 0 1.1.1.1.3.2.5.2s.4-.1.5-.2l1.4-1.4c.3-.3.3-.8 0-1.1-.2-.3-.7-.3-1 0zm4.5-4.5l-1.4 1.4c-.3.3-.3.8 0 1.1.1.1.3.2.5.2s.4-.1.5-.2l1.4-1.4c.3-.3.3-.8 0-1.1-.2-.3-.7-.3-1 0zm65.7-58l1.4 1.4c.1.1.3.2.5.2s.4-.1.5-.2c.3-.3.3-.8 0-1.1l-1.4-1.4c-.3-.3-.8-.3-1.1 0-.2.3-.2.8.1 1.1zm5.6 3.4c-.3-.3-.8-.3-1.1 0-.3.3-.3.8 0 1.1l1.4 1.4c.1.1.3.2.5.2s.4-.1.5-.2c.3-.3.3-.8 0-1.1l-1.3-1.4zm-4.2 0l-1.4 1.4c-.3.3-.3.8 0 1.1.1.1.3.2.5.2s.4-.1.5-.2l1.4-1.4c.3-.3.3-.8 0-1.1-.2-.3-.7-.3-1 0zm3.7-1.8c.2 0 .4-.1.5-.2l1.4-1.4c.3-.3.3-.8 0-1.1-.3-.3-.8-.3-1.1 0l-1.4 1.4c-.3.3-.3.8 0 1.1.2.2.4.2.6.2zM75 107c-2.1 0-3.8 1.7-3.8 3.8 0 2.1 1.7 3.8 3.8 3.8s3.8-1.7 3.8-3.8c.1-2-1.7-3.8-3.8-3.8zm0 6.2c-1.3 0-2.3-1-2.3-2.3 0-1.3 1-2.3 2.3-2.3s2.3 1 2.3 2.3c0 1.3-1 2.3-2.3 2.3zM45.1 36.7c0 2.1 1.7 3.8 3.8 3.8 2.1 0 3.8-1.7 3.8-3.8 0-2.1-1.7-3.8-3.8-3.8-2.1 0-3.8 1.7-3.8 3.8zm6.1 0c0 1.3-1 2.3-2.3 2.3-1.3 0-2.3-1-2.3-2.3 0-1.3 1-2.3 2.3-2.3 1.3 0 2.3 1 2.3 2.3zM29.4 114H15.1c-.4 0-.8.3-.8.8 0 .4.3.8.8.8h14.3c.4 0 .8-.3.8-.8-.1-.5-.4-.8-.8-.8zm-19 0H5.7c-.4 0-.8.3-.8.8 0 .4.3.8.8.8h4.6c.4 0 .8-.3.8-.8s-.3-.8-.7-.8zm-4.7-3.4h10c.4 0 .8-.3.8-.8 0-.4-.3-.8-.8-.8h-10c-.4 0-.8.3-.8.8.1.4.4.8.8.8zm17.5 0c.4 0 .8-.3.8-.8 0-.4-.3-.8-.8-.8H20c-.4 0-.8.3-.8.8 0 .4.3.8.8.8h3.2zm85.6 1.5c0-.4-.3-.8-.8-.8H93.7c-.4 0-.8.3-.8.8 0 .4.3.8.8.8H108c.5-.1.8-.4.8-.8zm8.6-.8h-4.6c-.4 0-.8.3-.8.8 0 .4.3.8.8.8h4.6c.4 0 .8-.3.8-.8-.1-.5-.4-.8-.8-.8zm0 4.9h-10c-.4 0-.8.3-.8.8 0 .4.3.8.8.8h10c.4 0 .8-.3.8-.8-.1-.4-.4-.8-.8-.8zm-14.3 0h-3.2c-.4 0-.8.3-.8.8 0 .4.3.8.8.8h3.2c.4 0 .8-.3.8-.8 0-.4-.4-.8-.8-.8zM38 25.1c0 .4.3.8.8.8H53c.4 0 .8-.3.8-.8 0-.4-.3-.8-.8-.8H38.7c-.4.1-.7.4-.7.8zm-8.6.8H34c.4 0 .8-.3.8-.8 0-.4-.3-.8-.8-.8h-4.6c-.4 0-.8.3-.8.8s.4.8.8.8zm0-4.9h10c.4 0 .8-.3.8-.8 0-.4-.3-.8-.8-.8h-10c-.4 0-.8.3-.8.8 0 .4.4.8.8.8zm14.3 0h3.2c.4 0 .8-.3.8-.8 0-.4-.3-.8-.8-.8h-3.2c-.4 0-.8.3-.8.8 0 .4.4.8.8.8zM28.8 61.4c-.6 0-1.2.2-1.7.7-.5.5-.7 1.1-.7 1.7 0 .4.3.8.8.8.4 0 .8-.3.8-.8 0-.2.1-.5.3-.6.2-.2.4-.3.6-.3.4 0 .8-.3.8-.8-.1-.4-.5-.7-.9-.7zM82 62.9c.2 0 .5.1.6.3.2.2.3.4.3.6 0 .4.3.8.8.8.4 0 .8-.3.8-.8 0-.6-.2-1.2-.7-1.7-.5-.5-1.1-.7-1.7-.7-.4 0-.8.3-.8.8 0 .3.3.7.7.7zm0 28.9c.6 0 1.2-.2 1.7-.7.5-.5.7-1.1.7-1.7 0-.4-.3-.8-.8-.8-.4 0-.8.3-.8.8 0 .2-.1.5-.3.6-.2.2-.4.3-.6.3-.4 0-.8.3-.8.8.2.3.5.7.9.7zm-53.2-1.5c-.2 0-.5-.1-.6-.3-.2-.2-.3-.4-.3-.6 0-.4-.3-.8-.8-.8-.4 0-.8.3-.8.8 0 .6.2 1.2.7 1.7.5.5 1.1.7 1.7.7.4 0 .8-.3.8-.8s-.3-.7-.7-.7zm77.8-33h-11c-.4 0-.8.3-.8.8v3.5c0 .4.3.8.8.8h11c.4 0 .8-.3.8-.8V58c0-.4-.4-.7-.8-.7zm-.7 3.4h-9.5v-2h9.5v2zm.7 3.2h-11c-.4 0-.8.3-.8.8v3.5c0 .4.3.8.8.8h11c.4 0 .8-.3.8-.8v-3.5c0-.4-.4-.8-.8-.8zm-.7 3.5h-9.5v-2h9.5v2zm.7 16.9h-11c-.4 0-.8.3-.8.8v3.5c0 .4.3.8.8.8h11c.4 0 .8-.3.8-.8V85c0-.4-.4-.7-.8-.7zm-.7 3.4h-9.5v-2h9.5v2zm.7 3.2h-11c-.4 0-.8.3-.8.8v3.5c0 .4.3.8.8.8h11c.4 0 .8-.3.8-.8v-3.5c0-.5-.4-.8-.8-.8zm-.7 3.5h-9.5v-2h9.5v2zm.4-17.8c0-2.9-2.3-5.2-5.2-5.2-2.9 0-5.2 2.3-5.2 5.2 0 2.9 2.3 5.2 5.2 5.2 2.9 0 5.2-2.4 5.2-5.2zm-8.9 0c0-2 1.7-3.7 3.7-3.7s3.7 1.7 3.7 3.7-1.7 3.7-3.7 3.7-3.7-1.7-3.7-3.7z"/><path d="M126.8 71.8c-1.1-2.7-2.3-5.6-5-5.6-2.6 0-3.8 2.8-4.9 5.6-.8 2-1.6 3.9-2.8 4.5V52.7c0-1.8-1.5-3.3-3.3-3.3H92.2l-.3-2.1-.2-1c-.2-.9-.3-1.8-.5-2.7.5-.4.8-1 .8-1.6 0-.7-.3-1.2-.8-1.6l3.3-5.9c.1-.2.1-.5 0-.7 0-.1-.1-.1-.1-.2-4.4-4.9-7.1-11.5-8.3-15v-.1c0-.1-.1-.1-.1-.2l-.1-.1s-.1-.1-.2-.1h-.1c-.1 0-.2-.1-.3-.1-.1 0-.2 0-.3.1h-.1c-.1 0-.1.1-.2.1l-.1.1s-.1.1-.1.2v.1c-1.2 3.5-3.8 10-8.3 14.9-.1.1-.1.1-.1.2-.1.2-.1.5 0 .7l3.3 5.9c-.5.4-.8 1-.8 1.6 0 .7.3 1.2.8 1.6-.2.9-.3 1.8-.5 2.7l-.2 1-.3 2.1H34.8L11.2 25.8l-2.6-2.6c-.8-.8-1.8-1.2-2.9-1.2-1.1 0-2.1.4-2.9 1.2-1.6 1.6-1.6 4.2 0 5.7l20.5 20.5h-4.4c-1.8 0-3.3 1.5-3.3 3.3v47.8c0 1.8 1.5 3.3 3.3 3.3h91.9c1.8 0 3.3-1.5 3.3-3.3V77.9c2.1-.5 3.2-3 4.2-5.5 1-2.4 1.9-4.7 3.6-4.7 1.6 0 2.6 2.3 3.6 4.7.2.5.4 1 .6 1.4.2.4.6.6 1 .4s.6-.6.4-1c-.3-.4-.5-.9-.7-1.4zM80.2 41.9c0-.4.3-.7.7-.7h8.9c.4 0 .7.3.7.7 0 .4-.3.7-.7.7h-8.9c-.4 0-.7-.3-.7-.7zm5.1-11.7c.6 0 1.1.5 1.1 1.1 0 .6-.5 1.1-1.1 1.1-.6 0-1.1-.5-1.1-1.1 0-.7.5-1.1 1.1-1.1zm-.8-7.4v6c-1.1.3-1.8 1.3-1.8 2.5 0 1.4 1.2 2.6 2.6 2.6 1.4 0 2.6-1.2 2.6-2.6 0-1.2-.8-2.1-1.8-2.5v-6c1.5 3.4 3.7 7.7 6.8 11.3l-3.1 5.7H81l-3.1-5.7c2.9-3.6 5.2-7.9 6.6-11.3zm-4.3 24.7l.2-1c.1-.8.3-1.6.4-2.4h8.9c.2.8.3 1.6.4 2.4l.2 1 .3 1.8H79.9l.3-1.8zm-36 11.3H85c1 0 1.8.8 1.8 1.8v31.9c0 1-.8 1.8-1.8 1.8H25.8c-1 0-1.8-.8-1.8-1.8V60.6c0-1 .8-1.8 1.8-1.8h6.9l11 11s.1 0 .1.1l.3.3 7.3 2.8v12.6c0 2.4 1.9 4.3 4.3 4.3S60 88 60 85.6v-4.9c0-1.5 1.2-2.8 2.8-2.8s2.8 1.2 2.8 2.8v5c0 2.4 1.9 4.3 4.3 4.3s4.3-1.9 4.3-4.3V83c0-.4-.3-.8-.8-.8-.4 0-.8.3-.8.8v2.5c0 1.5-1.2 2.8-2.8 2.8S67 87 67 85.5v-5c0-2.4-1.9-4.3-4.3-4.3s-4.3 1.9-4.3 4.3v4.9c0 1.5-1.2 2.8-2.8 2.8-1.5 0-2.8-1.2-2.8-2.8V72.7c0-.2-.1-.4-.2-.5v-.1l-2.9-7.6c-.1-.1-.1-.2-.3-.3 0 0 0-.1-.1-.1l-5.1-5.3zm-10.3-8.2l7.9 7.9 6 6-3.6 3.6-10.6-10.6-7.9-7.9L7.1 31l3.6-3.6 23.2 23.2zm14.8 15.2l2 5.2-5.2-2 3.2-3.2zM3.9 24.2c.5-.5 1.1-.8 1.8-.8s1.3.3 1.8.8l2.1 2.1L6 29.9l-2.1-2.1c-1-1-1-2.6 0-3.6zm106.9 78.1H18.9c-1 0-1.8-.8-1.8-1.8V52.7c0-1 .8-1.8 1.8-1.8h5.9l6.4 6.4h-5.4c-1.8 0-3.3 1.5-3.3 3.3v31.9c0 1.8 1.5 3.3 3.3 3.3H85c1.8 0 3.3-1.5 3.3-3.3V60.6c0-1.8-1.5-3.3-3.3-3.3H42.7l-6.4-6.4h74.5c1 0 1.8.8 1.8 1.8v47.8c0 1-.8 1.8-1.8 1.8z"/></svg><svg viewBox="0 0 24 24" id="telegram" xmlns="http://www.w3.org/2000/svg"><path fill-rule="evenodd" clip-rule="evenodd" d="M23.112 4.494c.318-1.55-1.205-2.837-2.68-2.267L2.342 9.216c-1.647.637-1.72 2.941-.117 3.682l3.94 1.818 1.873 6.559a1 1 0 001.67.432l2.886-2.887 4.043 3.033a2 2 0 003.16-1.198l3.315-16.16zM3.063 11.082l18.09-6.99-3.316 16.161L13.1 16.7a1 1 0 00-1.307.093l-1.236 1.236.371-2.043 7.28-7.279a1 1 0 00-1.204-1.575L6.95 12.876l-3.888-1.794zm5.114 3.397l.606 2.123.233-1.281a1 1 0 01.277-.528l2.22-2.22-3.336 1.906z"/></svg><svg viewBox="0 0 30.667 30.667" id="whatsapp" xmlns="http://www.w3.org/2000/svg"><path d="M30.667 14.939c0 8.25-6.74 14.938-15.056 14.938a15.1 15.1 0 01-7.276-1.857L0 30.667l2.717-8.017a14.787 14.787 0 01-2.159-7.712C.559 6.688 7.297 0 15.613 0c8.315.002 15.054 6.689 15.054 14.939zM15.61 2.382c-6.979 0-12.656 5.634-12.656 12.56 0 2.748.896 5.292 2.411 7.362l-1.58 4.663 4.862-1.545c2 1.312 4.393 2.076 6.963 2.076 6.979 0 12.658-5.633 12.658-12.559C28.27 8.016 22.59 2.382 15.61 2.382zm7.604 15.998c-.094-.151-.34-.243-.708-.427-.367-.184-2.184-1.069-2.521-1.189-.34-.123-.586-.185-.832.182-.243.367-.951 1.191-1.168 1.437-.215.245-.43.276-.799.095-.369-.186-1.559-.57-2.969-1.817-1.097-.972-1.838-2.169-2.052-2.536-.217-.366-.022-.564.161-.746.165-.165.369-.428.554-.643.185-.213.246-.364.369-.609.121-.245.06-.458-.031-.643-.092-.184-.829-1.984-1.138-2.717-.307-.732-.614-.611-.83-.611-.215 0-.461-.03-.707-.03s-.646.089-.983.456-1.291 1.252-1.291 3.054c0 1.804 1.321 3.543 1.506 3.787.186.243 2.554 4.062 6.305 5.528 3.753 1.465 3.753.976 4.429.914.678-.062 2.184-.885 2.49-1.739.308-.858.308-1.593.215-1.746z"/></svg></svg>